<svg width="24" height="22" viewBox="0 0 24 22" fill="none" xmlns="http://www.w3.org/2000/svg">
<path d="M17.3381 3.35538V2.17615C17.3381 0.976154 16.3689 0 15.1758 0H8.77657C7.58349 0 6.61426 0.976154 6.61426 2.17615V3.35538H7.80734V2.17615C7.80734 1.63846 8.24349 1.2 8.77657 1.2H15.1758C15.7112 1.2 16.145 1.63846 16.145 2.17615V3.35538H17.3381Z" fill="#317BF7"/>
<path d="M0.907227 11.2085V20.5477C0.907227 21.097 1.3503 21.5447 1.89492 21.5447H22.1057C22.6503 21.5447 23.0934 21.097 23.0934 20.5477V11.2085L13.5372 13.6454V14.8316C13.5372 15.397 13.078 15.8562 12.5172 15.8562H11.4326C10.8695 15.8562 10.4103 15.397 10.4103 14.8316V13.6293L0.907227 11.2085Z" fill="#317BF7"/>
<path d="M23.0077 4.04772H0.992308C0.445384 4.04772 0 4.49541 0 5.04695V9.82387C0 10.0823 0.175385 10.3085 0.426923 10.3731L10.41 12.9162V12.4269C10.41 11.8639 10.8692 11.4046 11.4323 11.4046H12.5123C13.0938 11.4046 13.5369 11.8754 13.5369 12.4293V12.93L23.5731 10.3708C23.8246 10.3062 24 10.0823 24 9.82156V5.04464C24 4.4931 23.5546 4.04541 23.0077 4.04541V4.04772Z" fill="#317BF7"/>
<path d="M12.5172 15.1662C12.6995 15.1662 12.8448 15.0162 12.8448 14.8339V12.4316C12.8448 12.2469 12.6972 12.0992 12.5172 12.0992H11.4325C11.2502 12.0992 11.1025 12.2492 11.1025 12.4316V14.8339C11.1025 15.0185 11.2502 15.1662 11.4325 15.1662H12.5172Z" fill="#317BF7"/>
</svg>
