<svg width="29" height="29" viewBox="0 0 29 29" fill="none" xmlns="http://www.w3.org/2000/svg">
<rect width="28.0976" height="28.0976" fill="white"/>
<path d="M22.6422 16.9637L21.4715 15.0203C21.2256 14.5872 21.0032 13.7676 21.0032 13.2877V10.3257C21.0032 7.57448 19.3876 5.19789 17.0578 4.0857C16.449 3.00863 15.3251 2.34131 14.0373 2.34131C12.7612 2.34131 11.614 3.03204 11.0052 4.12082C8.72226 5.25643 7.14178 7.6096 7.14178 10.3257V13.2877C7.14178 13.7676 6.91934 14.5872 6.67348 15.0086L5.49105 16.9637C5.02275 17.7481 4.91739 18.6145 5.21007 19.4106C5.49105 20.195 6.15836 20.8037 7.0247 21.0964C9.29592 21.8691 11.6842 22.2437 14.0725 22.2437C16.4608 22.2437 18.849 21.8691 21.1203 21.1081C21.9398 20.8389 22.572 20.2184 22.8764 19.4106C23.1808 18.6028 23.0988 17.713 22.6422 16.9637Z" fill="#317BF7"/>
<path d="M17.3617 23.4264C16.87 24.7844 15.5705 25.7561 14.0485 25.7561C13.1237 25.7561 12.2105 25.3815 11.5666 24.7142C11.1919 24.363 10.911 23.8947 10.7471 23.4147C10.8993 23.4381 11.0515 23.4498 11.2154 23.4732C11.4846 23.5083 11.7656 23.5435 12.0466 23.5669C12.7139 23.6254 13.3929 23.6605 14.072 23.6605C14.7393 23.6605 15.4066 23.6254 16.0622 23.5669C16.3081 23.5435 16.5539 23.5317 16.7881 23.4966C16.9754 23.4732 17.1627 23.4498 17.3617 23.4264Z" fill="#317BF7"/>
<path d="M19.9028 10.5364C22.4892 10.5364 24.5857 8.4398 24.5857 5.8535C24.5857 3.26721 22.4892 1.17058 19.9028 1.17058C17.3164 1.17058 15.2199 3.26721 15.2199 5.8535C15.2199 8.4398 17.3164 10.5364 19.9028 10.5364Z" fill="url(#paint0_linear_257_1217)" stroke="white" stroke-width="2.34146"/>
<defs>
<linearGradient id="paint0_linear_257_1217" x1="16.3906" y1="2.34131" x2="24.1418" y2="3.2646" gradientUnits="userSpaceOnUse">
<stop stop-color="#4285F4"/>
<stop offset="1" stop-color="#186EFC"/>
</linearGradient>
</defs>
</svg>
