<svg width="24" height="24" viewBox="0 0 24 24" fill="none" xmlns="http://www.w3.org/2000/svg">
<g clip-path="url(#clip0_257_902)">
<rect width="24" height="24" rx="12" fill="#317BF7" fill-opacity="0.2"/>
<path fill-rule="evenodd" clip-rule="evenodd" d="M13.1102 6.72268L9.4308 10.402L14.8872 15.8592L18.5673 12.1791C18.6493 12.0974 18.7143 12.0004 18.7587 11.8936C18.803 11.7867 18.8259 11.6722 18.8259 11.5565C18.8259 11.4408 18.803 11.3262 18.7587 11.2194C18.7143 11.1125 18.6493 11.0155 18.5673 10.9338L14.3532 6.72268C14.1884 6.55785 13.9648 6.46524 13.7317 6.46524C13.4986 6.46524 13.275 6.55785 13.1102 6.72268ZM4.68637 13.0786C4.24689 13.5182 4 14.1143 4 14.7359C4 15.3575 4.24689 15.9536 4.68637 16.3932L7.27138 18.9855C7.27621 18.9903 7.28194 18.994 7.28822 18.9965C7.29451 18.999 7.30123 19.0003 7.308 19.0002H13.8002C13.8136 19.0002 13.8265 18.9949 13.8361 18.9855L19.6031 13.2185C19.8208 13.0009 19.9935 12.7424 20.1113 12.458C20.2292 12.1736 20.2898 11.8687 20.2898 11.5609C20.2898 11.253 20.2292 10.9482 20.1113 10.6637C19.9935 10.3793 19.8208 10.1209 19.6031 9.90321L15.3934 5.68692C15.1757 5.4692 14.9173 5.29649 14.6329 5.17866C14.3484 5.06083 14.0436 5.00018 13.7357 5.00018C13.4279 5.00018 13.123 5.06083 12.8386 5.17866C12.5542 5.29649 12.2957 5.4692 12.0781 5.68692L4.68637 13.0786Z" fill="black"/>
</g>
<defs>
<clipPath id="clip0_257_902">
<rect width="24" height="24" rx="12" fill="white"/>
</clipPath>
</defs>
</svg>
