<svg width="79" height="72" viewBox="0 0 79 72" fill="none" xmlns="http://www.w3.org/2000/svg">
<path d="M64.5187 8.1602C61.6085 3.129 56.1983 0 50.3896 0H27.6707C21.8621 0 16.4407 3.1289 13.5417 8.1602L2.18265 27.8402C-0.72755 32.8714 -0.72755 39.1292 2.18265 44.1602L13.5417 63.8402C16.4519 68.8714 21.8619 72.0004 27.6707 72.0004H50.3896C56.1982 72.0004 61.6197 68.8715 64.5187 63.8402L75.8777 44.1602C78.7879 39.129 78.7879 32.8712 75.8777 27.8402L64.5187 8.1602ZM53.1596 45.8982C54.3316 47.0701 54.3316 48.9685 53.1596 50.1365C52.5698 50.7263 51.8081 51.0154 51.0386 51.0154C50.2691 51.0154 49.4995 50.7263 48.9174 50.1365L39.0191 40.2381L29.1207 50.1365C28.5308 50.7263 27.7691 51.0154 26.9995 51.0154C26.23 51.0154 25.4604 50.7263 24.8784 50.1365C23.7065 48.9646 23.7065 47.0662 24.8784 45.8982L34.7769 35.9998L24.8784 26.1014C23.7065 24.9295 23.7065 23.0311 24.8784 21.8631C26.0503 20.6912 27.9487 20.6912 29.1167 21.8631L39.0151 31.7615L48.9136 21.8631C50.0855 20.6912 51.9839 20.6912 53.1519 21.8631C54.3238 23.035 54.3238 24.9334 53.1519 26.1014L43.2534 35.9998L53.1519 45.8982H53.1596Z" fill="#475467"/>
</svg>
