<svg width="24" height="24" viewBox="0 0 24 24" fill="none" xmlns="http://www.w3.org/2000/svg">
<path d="M20.9429 0.00012207H2.99173C1.34193 0.00012207 0 1.34587 0 3.00008V20.9998C0 22.6542 1.34199 23.9999 2.99173 23.9999H20.9429C22.593 23.9999 23.9349 22.6542 23.9349 20.9998V3.00013C23.935 1.34587 22.593 0.00012207 20.9429 0.00012207Z" fill="#1B80E4"/>
<path d="M20.1949 11.9999H16.4551V8.99986C16.4551 8.17178 17.1254 8.24997 17.9509 8.24997H19.4471V4.49988H16.4551C13.9763 4.49988 11.9674 6.51426 11.9674 8.99986V11.9999H8.97559V15.7499H11.9674V23.9998H16.4551V15.7499H18.699L20.1949 11.9999Z" fill="#FCFCFC"/>
</svg>
