<svg width="24" height="24" viewBox="0 0 24 24" fill="none" xmlns="http://www.w3.org/2000/svg">
<rect width="24" height="24" rx="3" fill="black"/>
<path d="M14.6482 20.2025C14.2225 20.2854 14.0716 20.0233 14.0716 19.7982C14.0716 19.5224 14.082 18.615 14.082 17.4894C14.082 16.7043 13.8136 16.1911 13.5126 15.931C15.3813 15.7226 17.3424 15.011 17.3424 11.7782C17.3424 10.859 17.0183 10.1077 16.4804 9.5187C16.5664 9.30615 16.8538 8.45095 16.3965 7.2919C16.3965 7.2919 15.6929 7.0656 14.0913 8.1544C13.4211 7.9667 12.7029 7.87465 11.9908 7.8704C11.2767 7.87355 10.5593 7.9667 9.89015 8.15325C8.28795 7.0646 7.58315 7.2907 7.58315 7.2907C7.12695 8.44875 7.41425 9.30495 7.5012 9.5177C6.96445 10.1067 6.6371 10.858 6.6371 11.7771C6.6371 15.0015 8.5962 15.7236 10.4588 15.9365C10.2184 16.1471 10.0014 16.518 9.92595 17.0618C9.4478 17.2776 8.2322 17.6487 7.4834 16.3629C7.4834 16.3629 7.0409 15.5549 6.19885 15.4952C6.19885 15.4952 5.37975 15.4847 6.1421 16.0066C6.1421 16.0066 6.6928 16.2653 7.07355 17.2379C7.07355 17.2379 7.56635 18.8748 9.89965 18.3664C9.90405 19.0687 9.91125 19.5979 9.91125 19.7981C9.91125 20.0215 9.7581 20.2812 9.33865 20.2034C6.0038 19.0896 3.6001 15.9353 3.6001 12.2172C3.6001 7.5684 7.3565 3.80005 11.9886 3.80005C16.623 3.80005 20.3794 7.5684 20.3794 12.2172C20.3795 15.9344 17.9779 19.0874 14.6482 20.2025Z" fill="black"/>
<path d="M14.6482 20.2025C14.2225 20.2854 14.0716 20.0233 14.0716 19.7982C14.0716 19.5224 14.082 18.615 14.082 17.4894C14.082 16.7043 13.8136 16.1911 13.5126 15.931C15.3813 15.7226 17.3424 15.011 17.3424 11.7782C17.3424 10.859 17.0183 10.1077 16.4804 9.5187C16.5664 9.30615 16.8538 8.45095 16.3965 7.2919C16.3965 7.2919 15.6929 7.0656 14.0913 8.1544C13.4211 7.9667 12.7029 7.87465 11.9908 7.8704C11.2767 7.87355 10.5593 7.9667 9.89015 8.15325C8.28795 7.0646 7.58315 7.2907 7.58315 7.2907C7.12695 8.44875 7.41425 9.30495 7.5012 9.5177C6.96445 10.1067 6.6371 10.858 6.6371 11.7771C6.6371 15.0015 8.5962 15.7236 10.4588 15.9365C10.2184 16.1471 10.0014 16.518 9.92595 17.0618C9.4478 17.2776 8.2322 17.6487 7.4834 16.3629C7.4834 16.3629 7.0409 15.5549 6.19885 15.4952C6.19885 15.4952 5.37975 15.4847 6.1421 16.0066C6.1421 16.0066 6.6928 16.2653 7.07355 17.2379C7.07355 17.2379 7.56635 18.8748 9.89965 18.3664C9.90405 19.0687 9.91125 19.5979 9.91125 19.7981C9.91125 20.0215 9.7581 20.2812 9.33865 20.2034C6.0038 19.0896 3.6001 15.9353 3.6001 12.2172C3.6001 7.5684 7.3565 3.80005 11.9886 3.80005C16.623 3.80005 20.3794 7.5684 20.3794 12.2172C20.3795 15.9344 17.9779 19.0874 14.6482 20.2025Z" fill="white"/>
</svg>
