<svg width="20" height="20" viewBox="0 0 20 20" fill="none" xmlns="http://www.w3.org/2000/svg">
<path d="M16.9862 0.000131423H3.01368C1.34202 0.000131423 0 1.34215 0 3.01381V13.3157C0 14.9873 1.34202 16.3293 3.01368 16.3293H4.98605V19.5891C4.98605 19.7539 5.09521 19.8909 5.2322 19.9722C5.28678 20 5.34136 20 5.39701 20C5.50617 20 5.6164 19.9722 5.69881 19.8908L9.23249 16.3292H16.9861C18.6578 16.3292 19.9998 14.9872 19.9998 13.3155V3.01368C19.9998 1.34202 18.6579 0.000131423 16.9862 0.000131423ZM9.99994 13.0962C9.47983 13.0962 9.04104 12.6574 9.04104 12.1373C9.04104 11.6172 9.47983 11.1784 9.99994 11.1784C10.52 11.1784 10.9588 11.6172 10.9588 12.1373C10.9588 12.6574 10.52 13.0962 9.99994 13.0962ZM11.4789 8.35625C10.9856 8.63022 10.6849 9.09575 10.6849 9.58911V9.7261C10.6849 10.1092 10.3831 10.411 9.99994 10.411C9.61682 10.411 9.31501 10.1092 9.31501 9.7261V9.58911C9.31501 8.57564 9.89079 7.64348 10.8497 7.12338C11.4522 6.79483 11.8364 6.16448 11.8086 5.47955C11.7808 4.54849 10.9867 3.75331 10.0556 3.72657C9.56224 3.69875 9.09671 3.89138 8.74033 4.24668C8.38395 4.60306 8.19239 5.04076 8.19239 5.53413C8.19239 5.91725 7.89058 6.21905 7.50746 6.21905C7.12434 6.21905 6.82253 5.91725 6.82253 5.53413C6.82253 4.65764 7.17892 3.86246 7.78143 3.25995C8.41178 2.65743 9.2337 2.32888 10.0823 2.35562C11.7262 2.4102 13.124 3.78005 13.1785 5.45177C13.2052 6.65787 12.5748 7.78036 11.4789 8.35625Z" fill="black"/>
</svg>
