<svg width="24" height="24" viewBox="0 0 24 24" fill="none" xmlns="http://www.w3.org/2000/svg">
<path fill-rule="evenodd" clip-rule="evenodd" d="M7.57719e-05 22.9718V12C7.57719e-05 5.37246 5.37254 0 12.0001 0C18.6276 0 24.0001 5.37246 24.0001 12C24.0001 18.6275 18.6266 24 12.0001 24H1.02829C0.460851 24 7.57719e-05 23.5392 7.57719e-05 22.9718ZM10.9719 17.4533C10.9719 18.0276 11.4317 18.4865 12.0002 18.4865C12.5686 18.4865 13.0284 18.0257 13.0284 17.4582C13.0284 16.8839 12.5686 16.425 12.0002 16.425C11.4317 16.425 10.9719 16.8859 10.9719 17.4533ZM10.135 8.73448C10.2416 8.40882 10.4725 8.12165 10.7814 7.91245C11.5363 7.40423 12.6337 7.46541 13.3058 8.07133C14.1535 8.83513 13.9087 10.0578 12.8321 10.5542C11.6498 11.1 10.9126 12.2506 10.9126 13.5512V14.4828C10.9126 15.0502 11.3735 15.5111 11.9409 15.5111C12.5084 15.5111 12.9692 15.0512 12.9692 14.4828V13.5512C12.9692 13.037 13.2248 12.6324 13.6916 12.4183C14.9715 11.8272 15.8705 10.5828 15.8705 9.15681C15.8705 7.07556 14.034 5.51235 11.9409 5.51235C10.2593 5.51235 8.69505 6.5209 8.18094 8.09879C8.00529 8.63859 8.30035 9.21787 8.84016 9.39254C9.37897 9.5682 9.95826 9.27313 10.1339 8.73332L10.135 8.73448ZM2.05763 12V21.9423H11.9999C17.4917 21.9423 21.9423 17.4907 21.9423 12C21.9423 6.50829 17.4917 2.05768 11.9999 2.05768C6.50824 2.05768 2.05763 6.50829 2.05763 12Z" fill="black"/>
</svg>
