<svg width="24" height="24" viewBox="0 0 24 24" fill="none" xmlns="http://www.w3.org/2000/svg">
<path fill-rule="evenodd" clip-rule="evenodd" d="M24 3C24 1.34423 22.6558 0 21 0H3C1.34423 0 0 1.34423 0 3V21C0 22.6558 1.34423 24 3 24H21C22.6558 24 24 22.6558 24 21V3Z" fill="#2867B2"/>
<path d="M6.88182 8.37488H2.86182V20.4668H6.88182V8.37488Z" fill="white"/>
<path d="M4.899 2.54431C3.52364 2.54431 2.625 3.44853 2.625 4.63367C2.625 5.79392 3.49631 6.72308 4.8458 6.72308H4.87177C6.27347 6.72308 7.14595 5.79392 7.14595 4.63367C7.11994 3.44853 6.27356 2.54431 4.899 2.54431Z" fill="white"/>
<path d="M16.7472 8.09058C14.6149 8.09058 13.6598 9.26325 13.1249 10.0869V8.37492H9.10596C9.15925 9.50915 9.10596 20.4668 9.10596 20.4668H13.1249V13.7138C13.1249 13.3524 13.1508 12.991 13.2574 12.7327C13.5475 12.0108 14.2092 11.2631 15.3196 11.2631C16.7733 11.2631 17.3556 12.3723 17.3556 13.9972V20.4668H21.3747V13.5326C21.3747 9.81839 19.3917 8.09058 16.7472 8.09058Z" fill="white"/>
</svg>
