<svg width="42" height="42" viewBox="0 0 42 42" fill="none" xmlns="http://www.w3.org/2000/svg">
<circle cx="21" cy="21" r="21" fill="#307BF7"/>
<path d="M17 13.5C17 12.3065 17.4741 11.1619 18.318 10.318C19.1619 9.47411 20.3065 9 21.5 9C22.6935 9 23.8381 9.47411 24.682 10.318C25.5259 11.1619 26 12.3065 26 13.5V21C26 22.1935 25.5259 23.3381 24.682 24.182C23.8381 25.0259 22.6935 25.5 21.5 25.5C20.3065 25.5 19.1619 25.0259 18.318 24.182C17.4741 23.3381 17 22.1935 17 21V13.5Z" fill="white"/>
<path d="M14.75 18.75C14.9489 18.75 15.1397 18.829 15.2803 18.9697C15.421 19.1103 15.5 19.3011 15.5 19.5V21C15.5 22.5913 16.1321 24.1174 17.2574 25.2426C18.3826 26.3679 19.9087 27 21.5 27C23.0913 27 24.6174 26.3679 25.7426 25.2426C26.8679 24.1174 27.5 22.5913 27.5 21V19.5C27.5 19.3011 27.579 19.1103 27.7197 18.9697C27.8603 18.829 28.0511 18.75 28.25 18.75C28.4489 18.75 28.6397 18.829 28.7803 18.9697C28.921 19.1103 29 19.3011 29 19.5V21C29 22.8593 28.3094 24.6523 27.0622 26.0312C25.8149 27.4101 24.1 28.2766 22.25 28.4625V31.5H26.75C26.9489 31.5 27.1397 31.579 27.2803 31.7197C27.421 31.8603 27.5 32.0511 27.5 32.25C27.5 32.4489 27.421 32.6397 27.2803 32.7803C27.1397 32.921 26.9489 33 26.75 33H16.25C16.0511 33 15.8603 32.921 15.7197 32.7803C15.579 32.6397 15.5 32.4489 15.5 32.25C15.5 32.0511 15.579 31.8603 15.7197 31.7197C15.8603 31.579 16.0511 31.5 16.25 31.5H20.75V28.4625C18.9 28.2766 17.1851 27.4101 15.9378 26.0312C14.6906 24.6523 14 22.8593 14 21V19.5C14 19.3011 14.079 19.1103 14.2197 18.9697C14.3603 18.829 14.5511 18.75 14.75 18.75Z" fill="white"/>
</svg>
