<svg width="40" height="40" viewBox="0 0 40 40" fill="none" xmlns="http://www.w3.org/2000/svg">
<rect y="0.00012207" width="40" height="40" rx="8" fill="#73B6B2"/>
<path d="M27 18.0001C27.552 18.0001 28 18.4001 28 19.0001V20.0001C28 24.0001 24.944 27.4001 21 27.9001V30.0001H27C27.552 30.0001 28 30.4001 28 31.0001C28 31.5001 27.552 32.0001 27 32.0001H13C12.4477 32.0001 12 31.5001 12 31.0001C12 30.4001 12.4477 30.0001 13 30.0001H19V27.9001C15.0556 27.4001 12 24.0001 12 20.0001V19.0001C12 18.4001 12.4477 18.0001 13 18.0001C13.5523 18.0001 14 18.4001 14 19.0001V20.0001C14 23.3001 16.6863 26.0001 20 26.0001C23.314 26.0001 26 23.3001 26 20.0001V19.0001C26 18.4001 26.448 18.0001 27 18.0001Z" fill="white"/>
<path d="M20 8.00012C22.209 8.00012 24 9.80012 24 12.0001V20.0001C24 22.2001 22.209 24.0001 20 24.0001C17.7909 24.0001 16 22.2001 16 20.0001V12.0001C16 9.80012 17.7909 8.00012 20 8.00012Z" fill="#CCEBFF"/>
<path d="M20 8.00012V24.0001C17.7909 24.0001 16 22.2001 16 20.0001V12.0001C16 9.80012 17.7909 8.00012 20 8.00012Z" fill="white"/>
<path d="M24 13.0001V14.0001H22V13.0001H24ZM24 15.0001V16.0001H22V15.0001H24ZM24 17.0001V18.0001H22V17.0001H24Z" fill="#73B6B2"/>
<path d="M18 13.0001V14.0001H16V13.0001H18ZM18 15.0001V16.0001H16V15.0001H18ZM18 17.0001V18.0001H16V17.0001H18Z" fill="#73B6B2"/>
</svg>
