<svg width="24" height="24" viewBox="0 0 24 24" fill="none" xmlns="http://www.w3.org/2000/svg">
<path d="M11.6996 12C11.5719 11.984 11.4282 11.984 11.2845 12C8.3469 11.9039 6 9.48617 6 6.50801C6.01597 3.46579 8.45866 1 11.508 1C14.5414 1 17 3.46579 17 6.50801C16.984 9.48617 14.6531 11.9039 11.6996 12Z" fill="#317BF7"/>
<path d="M5.25835 15.4388C2.24722 17.1237 2.24722 19.893 5.25835 21.5612C8.6883 23.4796 14.3117 23.4796 17.7416 21.5612C20.7528 19.8763 20.7528 17.107 17.7416 15.4388C14.3317 13.5204 8.70824 13.5204 5.25835 15.4388Z" fill="#317BF7"/>
</svg>
