<svg width="18" height="20" viewBox="0 0 18 20" fill="none" xmlns="http://www.w3.org/2000/svg">
<path d="M2.43145 3.63578L5.36067 0.221867C5.69785 -0.157457 6.30898 -0.0310155 6.4565 0.453676L6.81475 1.57058C9.57538 0.959442 12.61 1.71809 14.7595 3.88867C17.0986 6.22783 17.8151 9.55746 16.909 12.5288C16.635 13.4139 15.5181 13.7089 14.8648 13.0557C14.5487 12.7396 14.4223 12.2549 14.5698 11.8334C15.202 9.70497 14.6963 7.32366 13.0314 5.63777C11.5352 4.14155 9.47002 3.57256 7.53125 3.93081L7.86843 5.02664C8.01594 5.51133 7.5734 5.95388 7.0887 5.82744L2.74755 4.66839C2.28393 4.54195 2.11534 3.99403 2.43145 3.63578Z" fill="black"/>
<path d="M2.53698 16.1113C0.197814 13.7722 -0.518687 10.4425 0.366403 7.49223C0.640359 6.60714 1.75726 6.31211 2.41054 6.96539C2.72664 7.28149 2.85308 7.76619 2.70557 8.18766C2.07336 10.3161 2.57913 12.6974 4.24394 14.3833C5.74016 15.8795 7.80537 16.4485 9.74414 16.0902L9.40696 14.9944C9.25945 14.5097 9.70199 14.0672 10.1867 14.1936L14.5489 15.3316C15.0125 15.458 15.1811 16.0059 14.865 16.3642L11.9358 19.7781C11.5986 20.1574 10.9875 20.031 10.84 19.5463L10.4817 18.4294C7.72108 19.0405 4.68648 18.2819 2.53698 16.1113Z" fill="black"/>
</svg>
