<svg width="42" height="42" viewBox="0 0 42 42" fill="none" xmlns="http://www.w3.org/2000/svg">
<rect x="0.5" y="0.5" width="41" height="41" rx="20.5" fill="white"/>
<rect x="0.5" y="0.5" width="41" height="41" rx="20.5" stroke="#307BF7"/>
<path fill-rule="evenodd" clip-rule="evenodd" d="M27.6667 26.5555C27.6667 27.1688 27.1689 27.6666 26.5556 27.6666H16.5556V23.2222L11 28.7777L16.5556 34.3333V29.8888H26.5556C28.3933 29.8888 29.8889 28.3933 29.8889 26.5555V21H27.6667V26.5555ZM14.3333 21H12.1111V15.4444C12.1111 13.6066 13.6067 12.1111 15.4444 12.1111H25.4444V7.66663L31 13.2222L25.4444 18.7777V14.3333H15.4444C14.8311 14.3333 14.3333 14.8311 14.3333 15.4444V21Z" fill="#317CF7"/>
</svg>
