<svg width="15" height="20" viewBox="0 0 15 20" fill="none" xmlns="http://www.w3.org/2000/svg">
<path d="M9.27409 4.53127V0.0078L14.8325 5.5662H10.309C9.73831 5.5662 9.27409 5.10196 9.27409 4.53127ZM14.8403 6.23287V18.3333C14.8403 19.2524 14.0927 20 13.1736 20H1.66667C0.7476 20 0 19.2524 0 18.3333V1.66667C0 0.747622 0.7476 0 1.66667 0H8.60742V4.5662C8.60742 5.48524 9.35502 6.23287 10.2741 6.23287H14.8403ZM11.713 11.9709C11.713 9.60002 9.791 7.67807 7.42013 7.67807C5.04927 7.67807 3.12729 9.60002 3.12729 11.9709C3.12729 14.3418 5.04927 16.2637 7.42013 16.2637C9.791 16.2637 11.713 14.3418 11.713 11.9709ZM7.50395 14.394V9.8302C7.50395 9.66231 7.30791 9.57084 7.17927 9.67871L5.75622 10.8718H4.8888C4.67173 10.8718 4.49576 11.0477 4.49576 11.2648V12.9624C4.49576 13.1795 4.67173 13.3555 4.8888 13.3555H5.75622L7.17947 14.5457C7.30816 14.6533 7.50395 14.5618 7.50395 14.394ZM10.0672 10.947C9.92287 10.6213 9.71107 10.345 9.43173 10.1179C9.38169 10.0772 9.31344 10.1419 9.35131 10.1941C9.55309 10.4721 9.69391 10.8262 9.77371 11.2566C9.86989 11.7858 9.86527 12.3387 9.75964 12.9153C9.68444 13.3257 9.56322 13.6996 9.39604 14.0369C9.36607 14.0974 9.44784 14.1504 9.48942 14.0972C9.86307 13.6195 10.1046 13.0818 10.2141 12.4842C10.3173 11.9208 10.2684 11.4084 10.0672 10.947ZM9.25264 11.2162C9.14171 10.9658 8.97884 10.7533 8.76407 10.5787C8.72558 10.5474 8.67309 10.5972 8.70222 10.6373C8.85738 10.851 8.96564 11.1233 9.02702 11.4542C9.10098 11.8612 9.09742 12.2863 9.0162 12.7297C8.95838 13.0453 8.86515 13.3328 8.7366 13.5922C8.71355 13.6387 8.77644 13.6794 8.80842 13.6386C9.09573 13.2712 9.28147 12.8578 9.36567 12.3982C9.44502 11.965 9.40738 11.571 9.25264 11.2162ZM8.49242 11.4419C8.40942 11.2545 8.28758 11.0955 8.12689 10.9649C8.09809 10.9415 8.05882 10.9787 8.08062 11.0088C8.19669 11.1687 8.27771 11.3724 8.3236 11.6199C8.37893 11.9244 8.37629 12.2424 8.31551 12.5741C8.27227 12.8103 8.20251 13.0254 8.10635 13.2194C8.08911 13.2542 8.13616 13.2847 8.16007 13.2541C8.37502 12.9793 8.51398 12.67 8.57695 12.3262C8.63633 12.0021 8.60815 11.7073 8.49242 11.4419Z" fill="black"/>
</svg>
