<svg width="24" height="24" viewBox="0 0 24 24" fill="none" xmlns="http://www.w3.org/2000/svg">
<path fill-rule="evenodd" clip-rule="evenodd" d="M19.1232 9.80438L13.7395 1.97588L12.0531 3.11588L17.437 10.9442L19.1232 9.80438ZM17.1051 11.2219L8.87464 6.40819L7.83739 8.15081L16.0683 12.9647L17.1051 11.2219ZM15.9005 13.5366L6.67283 11.0769L6.14258 13.0311L15.3708 15.4911L15.9005 13.5366ZM15.2727 16.1773L5.75783 15.3081L5.57052 17.3235L15.0856 18.192L15.2727 16.1773ZM21.5 9.33544L19.8653 0L17.8542 0.345938L19.4886 9.68138L21.5 9.33544ZM15.0428 20.7962L5.48708 20.8007L5.48633 18.777L15.0417 18.7721L15.0428 20.7962Z" fill="#FF810F"/>
<path fill-rule="evenodd" clip-rule="evenodd" d="M16.6658 14.1392V22.4122H4.13256V14.1392H2.5V24H18.2901V14.1392H16.6658Z" fill="#BEBCBC"/>
</svg>
