<svg width="24" height="24" viewBox="0 0 24 24" fill="none" xmlns="http://www.w3.org/2000/svg">
<g clip-path="url(#clip0_263_2030)">
<path d="M17.6569 19.6568C18.7757 18.538 19.5376 17.1126 19.8463 15.5607C20.155 14.0089 19.9965 12.4003 19.391 10.9385C18.7855 9.47671 17.7602 8.22728 16.4446 7.34823C15.129 6.46918 13.5823 5.99999 12 5.99999C10.4177 5.99999 8.87103 6.46918 7.55544 7.34823C6.23984 8.22728 5.21446 9.47671 4.60896 10.9385C4.00346 12.4003 3.84504 14.0089 4.15372 15.5607C4.4624 17.1126 5.22433 18.538 6.34315 19.6568L12 14L17.6569 19.6568Z" fill="#0DCA5B"/>
<path d="M20.5846 8.18462L21.3846 7.35385C21.4154 7.32308 21.4154 7.29231 21.4462 7.29231C21.8462 6.8 21.8154 6.09231 21.3846 5.63077L20.0615 4.30769C19.6 3.84615 18.8308 3.84615 18.3692 4.27692L18.3385 4.30769L17.5077 5.16923C16.5538 4.58462 15.4769 4.15385 14.3385 3.90769V2.46154H14.9538C15.6308 2.46154 16.1846 1.90769 16.1846 1.23077C16.1846 0.553846 15.6308 0 14.9538 0H9.38461C8.70769 0 8.15385 0.553846 8.15385 1.23077C8.15385 1.90769 8.70769 2.46154 9.38461 2.46154H10V3.93846C5.44615 4.92308 2 8.98462 2 13.8462C2 19.4462 6.55385 24 12.1538 24C17.7538 24 22.3077 19.4462 22.3077 13.8462C22.3077 11.7538 21.6615 9.78462 20.5846 8.18462ZM12.4615 13.5385V6.15385C14.4923 6.15385 16.3385 6.98462 17.6923 8.30769C19.0154 9.66154 19.8462 11.5077 19.8462 13.5385H12.4615Z" fill="white"/>
<mask id="path-3-inside-1_263_2030" fill="white">
<path d="M12 6C10.4177 6 8.87103 6.46919 7.55544 7.34824C6.23984 8.22729 5.21446 9.47672 4.60896 10.9385C4.00346 12.4003 3.84504 14.0089 4.15372 15.5607C4.4624 17.1126 5.22433 18.538 6.34315 19.6569C7.46197 20.7757 8.88743 21.5376 10.4393 21.8463C11.9911 22.155 13.5997 21.9965 15.0615 21.391C16.5233 20.7855 17.7727 19.7602 18.6518 18.4446C19.5308 17.129 20 15.5822 20 14L12 14L12 6Z"/>
</mask>
<path d="M12 6C10.4177 6 8.87103 6.46919 7.55544 7.34824C6.23984 8.22729 5.21446 9.47672 4.60896 10.9385C4.00346 12.4003 3.84504 14.0089 4.15372 15.5607C4.4624 17.1126 5.22433 18.538 6.34315 19.6569C7.46197 20.7757 8.88743 21.5376 10.4393 21.8463C11.9911 22.155 13.5997 21.9965 15.0615 21.391C16.5233 20.7855 17.7727 19.7602 18.6518 18.4446C19.5308 17.129 20 15.5822 20 14L12 14L12 6Z" fill="white" stroke="#0DCA5B" stroke-width="0.8" mask="url(#path-3-inside-1_263_2030)"/>
</g>
<defs>
<clipPath id="clip0_263_2030">
<rect width="24" height="24" fill="white"/>
</clipPath>
</defs>
</svg>
