<svg width="25" height="24" viewBox="0 0 25 24" fill="none" xmlns="http://www.w3.org/2000/svg">
<path d="M12.5 22C10.5222 22 8.58879 21.4135 6.9443 20.3147C5.29981 19.2159 4.01809 17.6541 3.26121 15.8268C2.50433 13.9996 2.3063 11.9889 2.69215 10.0491C3.078 8.10929 4.03041 6.32746 5.42894 4.92894C6.82746 3.53041 8.60929 2.578 10.5491 2.19215C12.4889 1.8063 14.4996 2.00433 16.3268 2.76121C18.1541 3.51809 19.7159 4.79981 20.8147 6.4443C21.9135 8.08879 22.5 10.0222 22.5 12C22.4969 14.6512 21.4424 17.193 19.5677 19.0677C17.693 20.9424 15.1512 21.9969 12.5 22ZM12.5 3.53847C10.8265 3.53847 9.19052 4.03473 7.79902 4.96449C6.40753 5.89426 5.323 7.21577 4.68256 8.76191C4.04213 10.3081 3.87456 12.0094 4.20105 13.6508C4.52754 15.2921 5.33343 16.7998 6.51679 17.9832C7.70016 19.1666 9.20786 19.9725 10.8492 20.299C12.4906 20.6254 14.1919 20.4579 15.7381 19.8174C17.2842 19.177 18.6057 18.0925 19.5355 16.701C20.4653 15.3095 20.9615 13.6735 20.9615 12C20.9589 9.75668 20.0666 7.60599 18.4803 6.01972C16.894 4.43344 14.7433 3.54111 12.5 3.53847Z" fill="#EF4444"/>
<path d="M12.5 14.7692C12.2552 14.7692 12.0204 14.672 11.8473 14.4989C11.6742 14.3258 11.5769 14.091 11.5769 13.8462V7.38462C11.5769 7.1398 11.6742 6.90501 11.8473 6.7319C12.0204 6.55879 12.2552 6.46154 12.5 6.46154C12.7448 6.46154 12.9796 6.55879 13.1527 6.7319C13.3258 6.90501 13.4231 7.1398 13.4231 7.38462V13.8462C13.4231 14.091 13.3258 14.3258 13.1527 14.4989C12.9796 14.672 12.7448 14.7692 12.5 14.7692Z" fill="#EF4444"/>
<path d="M12.5 17.5385C13.0098 17.5385 13.4231 17.1252 13.4231 16.6154C13.4231 16.1056 13.0098 15.6923 12.5 15.6923C11.9902 15.6923 11.5769 16.1056 11.5769 16.6154C11.5769 17.1252 11.9902 17.5385 12.5 17.5385Z" fill="#EF4444"/>
</svg>
