<svg width="40" height="40" viewBox="0 0 40 40" fill="none" xmlns="http://www.w3.org/2000/svg">
<rect width="40" height="40" rx="8" fill="#D4E1F5"/>
<path d="M32 20C32 23.1826 30.7357 26.2348 28.4853 28.4853C26.2348 30.7357 23.1826 32 20 32C16.8174 32 13.7652 30.7357 11.5147 28.4853C9.26428 26.2348 8 23.1826 8 20C8 16.8174 9.26428 13.7652 11.5147 11.5147C13.7652 9.26428 16.8174 8 20 8C23.1826 8 26.2348 9.26428 28.4853 11.5147C30.7357 13.7652 32 16.8174 32 20Z" fill="#7584F2"/>
<path d="M13.4541 28.7272C15.2761 30.0363 17.547 30.909 19.9995 30.909C22.4519 30.909 24.7232 30.0363 26.545 28.7272H13.4541Z" fill="#4855B7"/>
<path d="M20 8C13.3726 8 8 13.3726 8 20C8 26.6272 13.3726 31.9999 20 31.9999V8Z" fill="#4855B7"/>
<path d="M26.545 21.0908C26.545 21.9504 26.3757 22.8015 26.0467 23.5957C25.7178 24.3898 25.2356 25.1114 24.6278 25.7192C24.0201 26.327 23.2985 26.8091 22.5044 27.138C21.7102 27.467 20.8591 27.6363 19.9995 27.6363C19.14 27.6363 18.2888 27.467 17.4947 27.138C16.7006 26.8091 15.979 26.327 15.3712 25.7192C14.7634 25.1114 14.2813 24.3898 13.9523 23.5957C13.6234 22.8015 13.4541 21.9504 13.4541 21.0908C13.4541 20.2313 13.6234 19.3801 13.9523 18.586C14.2813 17.7919 14.7634 17.0703 15.3712 16.4625C15.979 15.8547 16.7006 15.3726 17.4947 15.0437C18.2888 14.7147 19.14 14.5454 19.9995 14.5454C20.8591 14.5454 21.7102 14.7147 22.5044 15.0437C23.2985 15.3726 24.0201 15.8547 24.6278 16.4625C25.2356 17.0703 25.7178 17.7919 26.0467 18.586C26.3757 19.3801 26.545 20.2313 26.545 21.0908Z" fill="#4855B7"/>
<path d="M19.9995 14.5454C16.3846 14.5454 13.4541 17.3818 13.4541 21.0908C13.4541 24.6908 16.3846 27.6363 19.9995 27.6363V14.5454Z" fill="#7584F2"/>
<path d="M26.545 19.9999C26.545 20.8595 26.3757 21.7106 26.0467 22.5047C25.7178 23.2989 25.2356 24.0204 24.6278 24.6282C24.0201 25.236 23.2985 25.7181 22.5044 26.0471C21.7102 26.376 20.8591 26.5453 19.9995 26.5453C19.14 26.5453 18.2888 26.376 17.4947 26.0471C16.7006 25.7181 15.979 25.236 15.3712 24.6282C14.7634 24.0204 14.2813 23.2989 13.9523 22.5047C13.6234 21.7106 13.4541 20.8595 13.4541 19.9999C13.4541 19.1403 13.6234 18.2892 13.9523 17.4951C14.2813 16.7009 14.7634 15.9794 15.3712 15.3716C15.979 14.7638 16.7006 14.2816 17.4947 13.9527C18.2888 13.6238 19.14 13.4545 19.9995 13.4545C20.8591 13.4545 21.7102 13.6238 22.5044 13.9527C23.2985 14.2816 24.0201 14.7638 24.6278 15.3716C25.2356 15.9794 25.7178 16.7009 26.0467 17.4951C26.3757 18.2892 26.545 19.1403 26.545 19.9999Z" fill="#ECF0F1"/>
<path d="M24.3628 19.9852C24.3628 21.1426 23.903 22.2525 23.0847 23.0709C22.2664 23.8893 21.1565 24.349 19.9993 24.349C18.842 24.349 17.7321 23.8893 16.9138 23.0709C16.0955 22.2525 15.6357 21.1426 15.6357 19.9852C15.6357 18.8279 16.0955 17.718 16.9138 16.8996C17.7321 16.0812 18.842 15.6215 19.9993 15.6215C21.1565 15.6215 22.2664 16.0812 23.0847 16.8996C23.903 17.718 24.3628 18.8279 24.3628 19.9852Z" fill="#34495E"/>
<path d="M23.273 19.9062C23.273 20.7742 22.9282 21.6066 22.3144 22.2204C21.7007 22.8342 20.8682 23.179 20.0003 23.179C19.1323 23.179 18.2998 22.8342 17.6861 22.2204C17.0723 21.6066 16.7275 20.7742 16.7275 19.9062C16.7275 19.0383 17.0723 18.2058 17.6861 17.5921C18.2998 16.9783 19.1323 16.6335 20.0003 16.6335C20.8682 16.6335 21.7007 16.9783 22.3144 17.5921C22.9282 18.2058 23.273 19.0383 23.273 19.9062Z" fill="#2C3E50"/>
<path d="M22.182 19.9999C22.182 20.5786 21.9521 21.1335 21.5429 21.5427C21.1338 21.9519 20.5788 22.1817 20.0002 22.1817C19.4215 22.1817 18.8666 21.9519 18.4574 21.5427C18.0482 21.1335 17.8184 20.5786 17.8184 19.9999C17.8184 19.4213 18.0482 18.8663 18.4574 18.4572C18.8666 18.048 19.4215 17.8181 20.0002 17.8181C20.5788 17.8181 21.1338 18.048 21.5429 18.4572C21.9521 18.8663 22.182 19.4213 22.182 19.9999Z" fill="#34495E"/>
<path d="M21.091 20C21.091 20.2893 20.9761 20.5668 20.7715 20.7713C20.5669 20.9759 20.2894 21.0909 20.0001 21.0909C19.7108 21.0909 19.4333 20.9759 19.2287 20.7713C19.0241 20.5668 18.9092 20.2893 18.9092 20C18.9092 19.7106 19.0241 19.4332 19.2287 19.2286C19.4333 19.024 19.7108 18.9091 20.0001 18.9091C20.2894 18.9091 20.5669 19.024 20.7715 19.2286C20.9761 19.4332 21.091 19.7106 21.091 20Z" fill="#3498DB"/>
<path d="M20.0002 17.7452C20.0002 17.8884 19.972 18.0303 19.9171 18.1627C19.8623 18.295 19.782 18.4153 19.6807 18.5166C19.5794 18.6179 19.4591 18.6982 19.3267 18.753C19.1944 18.8079 19.0525 18.8361 18.9093 18.8361C18.766 18.8361 18.6242 18.8079 18.4918 18.753C18.3594 18.6982 18.2392 18.6179 18.1379 18.5166C18.0366 18.4153 17.9562 18.295 17.9014 18.1627C17.8466 18.0303 17.8184 17.8884 17.8184 17.7452C17.8184 17.6019 17.8466 17.4601 17.9014 17.3277C17.9562 17.1954 18.0366 17.0751 18.1379 16.9738C18.2392 16.8725 18.3594 16.7922 18.4918 16.7373C18.6242 16.6825 18.766 16.6543 18.9093 16.6543C19.0525 16.6543 19.1944 16.6825 19.3267 16.7373C19.4591 16.7922 19.5794 16.8725 19.6807 16.9738C19.782 17.0751 19.8623 17.1954 19.9171 17.3277C19.972 17.4601 20.0002 17.6019 20.0002 17.7452Z" fill="#ECF0F1"/>
<path d="M20.0003 9.09094H16.7275V10.1818H20.0003V9.09094Z" fill="#7584F2"/>
<path d="M20.0003 11.2727H16.7275V12.3636H20.0003V11.2727Z" fill="#7584F2"/>
<path d="M23.2727 9.09094H20V10.1818H23.2727V9.09094Z" fill="#4855B7"/>
<path d="M23.2727 11.2727H20V12.3636H23.2727V11.2727Z" fill="#4855B7"/>
<path d="M13.4541 28.7272C15.2761 30.093 17.547 30.909 19.9995 30.909V28.7272H13.4541Z" fill="#7584F2"/>
</svg>
