<svg width="136" height="120" viewBox="0 0 136 120" fill="none" xmlns="http://www.w3.org/2000/svg">
<path d="M44.9993 117.849C32.939 114.871 24.8773 107.617 20.2618 99.6166C8.42109 79.0942 -4.84926 35.3789 19.9573 12.2224C43.1211 -9.4004 81.1002 4.06552 83.5158 4.96114C105.916 13.267 131.646 35.9055 129.832 63.2707C128.447 84.1633 111.684 97.5988 101.998 105.362C96.4106 109.841 76.8171 125.706 44.9993 117.849Z" fill="#DBE6F7"/>
<path d="M57.8823 32L53.7647 40.2353H39.7647C36.5711 40.2353 34 42.8064 34 46V82.2353C34 85.4289 36.5711 88 39.7647 88H95.7646C98.9583 88 101.529 85.4289 101.529 82.2353V46C101.529 42.8064 98.9583 40.2353 95.7646 40.2353H81.7647L77.647 32H57.8823ZM67.7647 46.8235C77.2867 46.8235 85.0588 54.5957 85.0588 64.1176C85.0588 73.6397 77.2867 81.4118 67.7647 81.4118C58.2427 81.4118 50.4706 73.6397 50.4706 64.1176C50.4706 54.5957 58.2428 46.8235 67.7647 46.8235ZM67.7647 51.7647C60.9132 51.7647 55.4117 57.2661 55.4117 64.1176C55.4117 70.9692 60.9132 76.4706 67.7647 76.4706C74.6164 76.4706 80.1176 70.9692 80.1176 64.1176C80.1176 57.2661 74.6164 51.7647 67.7647 51.7647Z" fill="#163356"/>
</svg>
