<svg width="314" height="181" viewBox="0 0 314 181" fill="none" xmlns="http://www.w3.org/2000/svg">
<path d="M314 69.0366H0V180.285H314V69.0366Z" fill="#FFCE43"/>
<mask id="mask0_1480_1724" style="mask-type:alpha" maskUnits="userSpaceOnUse" x="0" y="69" width="314" height="112">
<path d="M314 69.0366H0V180.285H314V69.0366Z" fill="#FFCE43"/>
</mask>
<g mask="url(#mask0_1480_1724)">
<mask id="mask1_1480_1724" style="mask-type:luminance" maskUnits="userSpaceOnUse" x="0" y="1" width="501" height="501">
<path d="M500.285 1.61035H0.190918V501.337H500.285V1.61035Z" fill="white"/>
</mask>
<g mask="url(#mask1_1480_1724)">
<g opacity="0.37">
<path opacity="0.15" d="M14.9849 64.1655L17.7529 69.7755L23.9439 70.6755L19.4639 75.0415L20.5219 81.2075L14.9849 78.2965L9.44788 81.2075L10.5049 75.0415L6.02588 70.6755L12.2159 69.7755L14.9849 64.1655Z" fill="black"/>
<path opacity="0.15" d="M50.5069 64.1655L53.2749 69.7755L59.4659 70.6755L54.9859 75.0415L56.0438 81.2075L50.5069 78.2965L44.9699 81.2075L46.0269 75.0415L41.5479 70.6755L47.7379 69.7755L50.5069 64.1655Z" fill="black"/>
<path opacity="0.15" d="M86.0288 64.1655L88.7978 69.7755L94.9878 70.6755L90.5088 75.0415L91.5658 81.2075L86.0288 78.2965L80.4918 81.2075L81.5498 75.0415L77.0698 70.6755L83.2598 69.7755L86.0288 64.1655Z" fill="black"/>
<path opacity="0.15" d="M121.551 64.1655L124.32 69.7755L130.51 70.6755L126.031 75.0415L127.088 81.2075L121.551 78.2965L116.014 81.2075L117.072 75.0415L112.592 70.6755L118.783 69.7755L121.551 64.1655Z" fill="black"/>
<path opacity="0.15" d="M157.073 64.1655L159.842 69.7755L166.032 70.6755L161.553 75.0415L162.61 81.2075L157.073 78.2965L151.536 81.2075L152.594 75.0415L148.114 70.6755L154.305 69.7755L157.073 64.1655Z" fill="black"/>
<path opacity="0.15" d="M192.595 64.1655L195.364 69.7755L201.554 70.6755L197.075 75.0415L198.132 81.2075L192.595 78.2965L187.059 81.2075L188.116 75.0415L183.636 70.6755L189.827 69.7755L192.595 64.1655Z" fill="black"/>
<path opacity="0.15" d="M228.118 64.1655L230.886 69.7755L237.077 70.6755L232.597 75.0415L233.655 81.2075L228.118 78.2965L222.581 81.2075L223.638 75.0415L219.158 70.6755L225.349 69.7755L228.118 64.1655Z" fill="black"/>
<path opacity="0.15" d="M263.64 64.1655L266.408 69.7755L272.599 70.6755L268.119 75.0415L269.177 81.2075L263.64 78.2965L258.103 81.2075L259.16 75.0415L254.681 70.6755L260.871 69.7755L263.64 64.1655Z" fill="black"/>
<path opacity="0.15" d="M299.162 64.1655L301.931 69.7755L308.121 70.6755L303.642 75.0415L304.699 81.2075L299.162 78.2965L293.625 81.2075L294.682 75.0415L290.203 70.6755L296.393 69.7755L299.162 64.1655Z" fill="black"/>
<path opacity="0.15" d="M31.3179 92.2173L34.0869 97.8263L40.2769 98.7263L35.7979 103.093L36.8549 109.258L31.3179 106.347L25.7809 109.258L26.8389 103.093L22.3589 98.7263L28.5489 97.8263L31.3179 92.2173Z" fill="black"/>
<path opacity="0.15" d="M66.8399 92.2173L69.6089 97.8263L75.7989 98.7263L71.3199 103.093L72.3769 109.258L66.8399 106.347L61.3029 109.258L62.3609 103.093L57.8809 98.7263L64.0719 97.8263L66.8399 92.2173Z" fill="black"/>
<path opacity="0.15" d="M-4.20409 92.2173L-1.43609 97.8263L4.75491 98.7263L0.274914 103.093L1.33291 109.258L-4.20409 106.347L-9.74109 109.258L-8.68409 103.093L-13.1631 98.7263L-6.97309 97.8263L-4.20409 92.2173Z" fill="black"/>
<path opacity="0.15" d="M102.362 92.2173L105.131 97.8263L111.321 98.7263L106.842 103.093L107.899 109.258L102.362 106.347L96.8248 109.258L97.8828 103.093L93.4028 98.7263L99.5938 97.8263L102.362 92.2173Z" fill="black"/>
<path opacity="0.15" d="M137.884 92.2173L140.653 97.8263L146.843 98.7263L142.364 103.093L143.421 109.258L137.884 106.347L132.348 109.258L133.405 103.093L128.925 98.7263L135.116 97.8263L137.884 92.2173Z" fill="black"/>
<path opacity="0.15" d="M173.407 92.2173L176.175 97.8263L182.366 98.7263L177.886 103.093L178.944 109.258L173.407 106.347L167.87 109.258L168.927 103.093L164.448 98.7263L170.638 97.8263L173.407 92.2173Z" fill="black"/>
<path opacity="0.15" d="M208.929 92.2173L211.697 97.8263L217.888 98.7263L213.408 103.093L214.466 109.258L208.929 106.347L203.392 109.258L204.449 103.093L199.97 98.7263L206.16 97.8263L208.929 92.2173Z" fill="black"/>
<path opacity="0.15" d="M244.451 92.2173L247.22 97.8263L253.41 98.7263L248.931 103.093L249.988 109.258L244.451 106.347L238.914 109.258L239.971 103.093L235.492 98.7263L241.682 97.8263L244.451 92.2173Z" fill="black"/>
<path opacity="0.15" d="M279.973 92.2173L282.742 97.8263L288.932 98.7263L284.453 103.093L285.51 109.258L279.973 106.347L274.436 109.258L275.494 103.093L271.014 98.7263L277.205 97.8263L279.973 92.2173Z" fill="black"/>
<path opacity="0.15" d="M315.495 92.2173L318.264 97.8263L324.454 98.7263L319.975 103.093L321.032 109.258L315.495 106.347L309.958 109.258L311.016 103.093L306.536 98.7263L312.727 97.8263L315.495 92.2173Z" fill="black"/>
<path opacity="0.15" d="M14.9849 120.269L17.7529 125.878L23.9439 126.778L19.4639 131.145L20.5219 137.31L14.9849 134.399L9.44788 137.31L10.5049 131.145L6.02588 126.778L12.2159 125.878L14.9849 120.269Z" fill="black"/>
<path opacity="0.15" d="M50.5069 120.269L53.2749 125.878L59.4659 126.778L54.9859 131.145L56.0438 137.31L50.5069 134.399L44.9699 137.31L46.0269 131.145L41.5479 126.778L47.7379 125.878L50.5069 120.269Z" fill="black"/>
<path opacity="0.15" d="M86.0288 120.269L88.7978 125.878L94.9878 126.778L90.5088 131.145L91.5658 137.31L86.0288 134.399L80.4918 137.31L81.5498 131.145L77.0698 126.778L83.2598 125.878L86.0288 120.269Z" fill="black"/>
<path opacity="0.15" d="M121.551 120.269L124.32 125.878L130.51 126.778L126.031 131.145L127.088 137.31L121.551 134.399L116.014 137.31L117.072 131.145L112.592 126.778L118.783 125.878L121.551 120.269Z" fill="black"/>
<path opacity="0.15" d="M157.073 120.269L159.842 125.878L166.032 126.778L161.553 131.145L162.61 137.31L157.073 134.399L151.536 137.31L152.594 131.145L148.114 126.778L154.305 125.878L157.073 120.269Z" fill="black"/>
<path opacity="0.15" d="M192.595 120.269L195.364 125.878L201.554 126.778L197.075 131.145L198.132 137.31L192.595 134.399L187.059 137.31L188.116 131.145L183.636 126.778L189.827 125.878L192.595 120.269Z" fill="black"/>
<path opacity="0.15" d="M228.118 120.269L230.886 125.878L237.077 126.778L232.597 131.145L233.655 137.31L228.118 134.399L222.581 137.31L223.638 131.145L219.158 126.778L225.349 125.878L228.118 120.269Z" fill="black"/>
<path opacity="0.15" d="M263.64 120.269L266.408 125.878L272.599 126.778L268.119 131.145L269.177 137.31L263.64 134.399L258.103 137.31L259.16 131.145L254.681 126.778L260.871 125.878L263.64 120.269Z" fill="black"/>
<path opacity="0.15" d="M299.162 120.269L301.931 125.878L308.121 126.778L303.642 131.145L304.699 137.31L299.162 134.399L293.625 137.31L294.682 131.145L290.203 126.778L296.393 125.878L299.162 120.269Z" fill="black"/>
<path opacity="0.15" d="M31.3179 148.319L34.0869 153.929L40.2769 154.828L35.7979 159.195L36.8549 165.36L31.3179 162.449L25.7809 165.36L26.8389 159.195L22.3589 154.828L28.5489 153.929L31.3179 148.319Z" fill="black"/>
<path opacity="0.15" d="M66.8399 148.319L69.6089 153.929L75.7989 154.828L71.3199 159.195L72.3769 165.36L66.8399 162.449L61.3029 165.36L62.3609 159.195L57.8809 154.828L64.0719 153.929L66.8399 148.319Z" fill="black"/>
<path opacity="0.15" d="M-4.20409 148.319L-1.43609 153.929L4.75491 154.828L0.274914 159.195L1.33291 165.36L-4.20409 162.449L-9.74109 165.36L-8.68409 159.195L-13.1631 154.828L-6.97309 153.929L-4.20409 148.319Z" fill="black"/>
<path opacity="0.15" d="M102.362 148.319L105.131 153.929L111.321 154.828L106.842 159.195L107.899 165.36L102.362 162.449L96.8248 165.36L97.8828 159.195L93.4028 154.828L99.5938 153.929L102.362 148.319Z" fill="black"/>
<path opacity="0.15" d="M137.884 148.319L140.653 153.929L146.843 154.828L142.364 159.195L143.421 165.36L137.884 162.449L132.348 165.36L133.405 159.195L128.925 154.828L135.116 153.929L137.884 148.319Z" fill="black"/>
<path opacity="0.15" d="M173.407 148.319L176.175 153.929L182.366 154.828L177.886 159.195L178.944 165.36L173.407 162.449L167.87 165.36L168.927 159.195L164.448 154.828L170.638 153.929L173.407 148.319Z" fill="black"/>
<path opacity="0.15" d="M208.929 148.319L211.697 153.929L217.888 154.828L213.408 159.195L214.466 165.36L208.929 162.449L203.392 165.36L204.449 159.195L199.97 154.828L206.16 153.929L208.929 148.319Z" fill="black"/>
<path opacity="0.15" d="M244.451 148.319L247.22 153.929L253.41 154.828L248.931 159.195L249.988 165.36L244.451 162.449L238.914 165.36L239.971 159.195L235.492 154.828L241.682 153.929L244.451 148.319Z" fill="black"/>
<path opacity="0.15" d="M279.973 148.319L282.742 153.929L288.932 154.828L284.453 159.195L285.51 165.36L279.973 162.449L274.436 165.36L275.494 159.195L271.014 154.828L277.205 153.929L279.973 148.319Z" fill="black"/>
<path opacity="0.15" d="M315.495 148.319L318.264 153.929L324.454 154.828L319.975 159.195L321.032 165.36L315.495 162.449L309.958 165.36L311.016 159.195L306.536 154.828L312.727 153.929L315.495 148.319Z" fill="black"/>
<path opacity="0.15" d="M14.9849 176.371L17.7529 181.981L23.9439 182.88L19.4639 187.247L20.5219 193.412L14.9849 190.501L9.44788 193.412L10.5049 187.247L6.02588 182.88L12.2159 181.981L14.9849 176.371Z" fill="black"/>
<path opacity="0.15" d="M50.5069 176.371L53.2749 181.981L59.4659 182.88L54.9859 187.247L56.0438 193.412L50.5069 190.501L44.9699 193.412L46.0269 187.247L41.5479 182.88L47.7379 181.981L50.5069 176.371Z" fill="black"/>
<path opacity="0.15" d="M86.0288 176.371L88.7978 181.981L94.9878 182.88L90.5088 187.247L91.5658 193.412L86.0288 190.501L80.4918 193.412L81.5498 187.247L77.0698 182.88L83.2598 181.981L86.0288 176.371Z" fill="black"/>
<path opacity="0.15" d="M121.551 176.371L124.32 181.981L130.51 182.88L126.031 187.247L127.088 193.412L121.551 190.501L116.014 193.412L117.072 187.247L112.592 182.88L118.783 181.981L121.551 176.371Z" fill="black"/>
<path opacity="0.15" d="M157.073 176.371L159.842 181.981L166.032 182.88L161.553 187.247L162.61 193.412L157.073 190.501L151.536 193.412L152.594 187.247L148.114 182.88L154.305 181.981L157.073 176.371Z" fill="black"/>
<path opacity="0.15" d="M192.595 176.371L195.364 181.981L201.554 182.88L197.075 187.247L198.132 193.412L192.595 190.501L187.059 193.412L188.116 187.247L183.636 182.88L189.827 181.981L192.595 176.371Z" fill="black"/>
<path opacity="0.15" d="M228.118 176.371L230.886 181.981L237.077 182.88L232.597 187.247L233.655 193.412L228.118 190.501L222.581 193.412L223.638 187.247L219.158 182.88L225.349 181.981L228.118 176.371Z" fill="black"/>
<path opacity="0.15" d="M263.64 176.371L266.408 181.981L272.599 182.88L268.119 187.247L269.177 193.412L263.64 190.501L258.103 193.412L259.16 187.247L254.681 182.88L260.871 181.981L263.64 176.371Z" fill="black"/>
<path opacity="0.15" d="M299.162 176.371L301.931 181.981L308.121 182.88L303.642 187.247L304.699 193.412L299.162 190.501L293.625 193.412L294.682 187.247L290.203 182.88L296.393 181.981L299.162 176.371Z" fill="black"/>
</g>
</g>
</g>
<path d="M100.441 142.539L100.838 142.236C107.763 151.301 118.524 156.149 130.241 158.496C141.955 160.842 154.564 160.675 165.101 159.758C177.335 158.694 189.363 155.342 198.61 148.187C200.15 146.994 201.615 145.697 202.994 144.295C204.373 142.891 205.667 141.392 206.867 139.793C208.237 137.965 209.485 136.007 210.589 133.897C211.48 132.195 212.298 130.445 213.068 128.641L213.068 128.641C213.838 126.838 214.564 124.98 215.234 123.07L215.234 123.07C215.904 121.161 216.506 119.2 217.022 117.195C217.538 115.191 217.961 113.14 218.309 111.053C218.657 108.965 218.933 106.859 219.113 104.756C219.294 102.654 219.366 100.566 219.316 98.5098C219.273 96.768 219.133 95.1546 218.901 93.6415L219.395 93.5658L218.901 93.6415C218.669 92.1277 218.348 90.713 217.941 89.368C217.534 88.0226 217.043 86.7449 216.467 85.5072C215.89 84.27 215.228 83.0717 214.473 81.8872L214.473 81.8871C213.718 80.7022 212.868 79.5238 211.913 78.3208C210.959 77.1175 209.899 75.8895 208.736 74.6082C207.776 73.5517 206.807 72.4473 205.878 71.2969C204.948 70.1451 204.063 68.9439 203.274 67.6945L203.274 67.6944C202.486 66.4467 201.783 65.1563 201.196 63.8283L201.195 63.8269C200.612 62.4968 200.149 61.1258 199.855 59.7171C199.401 57.547 199.296 55.3947 199.194 53.2928C199.182 53.0511 199.17 52.81 199.158 52.5697C199.038 50.2242 198.871 47.9481 198.125 45.6739C196.342 40.2369 191.784 36.0106 186.61 33.3585C183.175 31.5982 179.388 30.3016 175.503 29.2483L175.634 28.7657L175.503 29.2483C173.56 28.7216 171.594 28.2527 169.632 27.8052C169.089 27.6812 168.545 27.5581 168.002 27.4353C166.588 27.1153 165.18 26.7967 163.794 26.4654L100.441 142.539ZM100.441 142.539L100.838 142.235C99.5785 140.587 98.4447 138.797 97.4546 136.856L97.454 136.855M100.441 142.539L97.454 136.855M97.454 136.855C96.2649 134.538 95.3508 132.269 94.6411 130.102C93.9314 127.933 93.4163 125.867 93.073 123.867C92.7301 121.87 92.5671 119.91 92.5082 117.938L92.5082 117.938M97.454 136.855L92.5082 117.938M92.5082 117.938C92.4488 115.961 92.4675 113.945 92.5606 111.865C92.6532 109.793 92.874 107.642 93.2501 105.388C93.6254 103.139 94.1976 100.769 94.9642 98.3013C95.7298 95.8368 96.708 93.3161 97.858 90.7951L97.858 90.7951M92.5082 117.938L97.858 90.7951M97.858 90.7951C98.4325 89.5352 99.0477 88.2852 99.6926 87.0498C100.337 85.8149 101.011 84.5961 101.703 83.3981C102.281 82.399 102.853 81.4227 103.415 80.4648C103.749 79.8956 104.079 79.3329 104.404 78.7758L104.404 78.7757M97.858 90.7951L104.404 78.7757M104.404 78.7757C105.274 77.2821 106.092 75.8397 106.838 74.4366C107.584 73.0331 108.258 71.6488 108.843 70.2645C109.43 68.8785 109.925 67.4806 110.319 66.0545L110.319 66.0543M104.404 78.7757L110.319 66.0543M110.319 66.0543C110.713 64.6275 111.003 63.1707 111.175 61.6764M110.319 66.0543L111.175 61.6764M158.64 24.8343L158.544 25.3249C156.641 24.9513 154.601 24.5967 152.474 24.2929L158.64 24.8343ZM158.64 24.8343L158.544 25.3249C160.448 25.6986 162.214 26.0882 163.794 26.4654L158.64 24.8343ZM111.175 61.6764C111.347 60.1808 111.393 58.6454 111.289 57.0568L111.175 61.6764ZM126.361 26.001C128.328 25.2771 130.409 24.7171 132.559 24.3122C134.709 23.9072 136.928 23.6591 139.169 23.5529C141.411 23.4466 143.675 23.4776 145.91 23.6148C148.145 23.752 150.35 23.9898 152.474 24.2929L126.361 26.001Z" fill="#FFB255" stroke="#FFB255"/>
<path d="M106.342 43.3283C107.711 41.3471 109.206 39.5346 110.808 37.869C112.209 36.4114 113.694 35.0667 115.251 33.8291C116.809 32.5916 118.439 31.4697 120.133 30.4635C130.298 24.4244 142.752 22.5621 155.078 23.0026C176.264 23.7595 205.431 28.514 217.132 48.492C218.196 50.3081 219.115 52.25 219.872 54.3263C220.779 56.7973 221.415 59.1869 221.86 61.4483C222.304 63.7098 222.565 65.8475 222.663 67.9002C222.761 69.9524 222.681 71.9424 222.498 73.9244C222.314 75.9064 222.047 77.9177 221.699 79.9824C221.35 82.0471 220.864 84.1744 220.21 86.3848C219.555 88.5953 218.69 90.8989 217.619 93.2728C216.548 95.6467 215.259 98.0478 213.8 100.425C213.071 101.614 212.303 102.787 211.508 103.94C210.712 105.094 209.89 106.227 209.053 107.337C207.945 108.805 206.852 110.223 205.807 111.596C204.763 112.969 203.78 114.295 202.873 115.59C201.967 116.882 201.138 118.161 200.396 119.448C199.654 120.735 199.003 122.042 198.446 123.388C197.891 124.733 197.433 126.12 197.086 127.555C196.74 128.99 196.511 130.478 196.422 132.037C196.286 134.42 196.33 136.863 196.213 139.29C196.097 141.717 195.82 144.123 195.092 146.459C194.428 148.588 193.5 150.463 192.353 152.112C191.205 153.761 189.838 155.185 188.296 156.409C186.753 157.633 185.036 158.656 183.186 159.496C181.336 160.337 179.354 160.992 177.284 161.477C175.213 161.962 173.051 162.267 170.843 162.408C168.634 162.549 166.379 162.524 164.12 162.354C161.862 162.184 159.601 161.874 157.384 161.462C155.167 161.05 152.994 160.542 150.912 159.978C148.829 159.414 146.84 158.81 144.989 158.205C143.138 157.599 141.426 156.994 139.898 156.425C138.053 155.736 136.167 155.068 134.272 154.383C132.377 153.698 130.475 152.99 128.603 152.226C124.857 150.699 121.222 148.934 117.989 146.741C113.11 143.431 108.994 138.579 107.855 132.793C107.378 130.373 107.496 128.034 107.664 125.691C107.832 123.347 108.048 121.004 107.846 118.589C107.729 117.194 107.444 115.811 107.037 114.447C106.624 113.084 106.093 111.74 105.472 110.425C104.851 109.11 104.131 107.826 103.356 106.582C102.581 105.338 101.76 104.132 100.94 102.97C99.9375 101.55 99.0296 100.192 98.2217 98.8694C97.4138 97.5467 96.7055 96.2578 96.0924 94.9713C95.4792 93.6847 94.9596 92.3946 94.5316 91.0736C94.104 89.7529 93.7667 88.4014 93.5229 86.9924C93.2792 85.5838 93.131 84.1166 93.0853 82.5634C93.0395 81.0103 93.0981 79.3704 93.2704 77.6173C93.4732 75.5502 93.8036 73.4679 94.2429 71.3887C94.6822 69.3092 95.2162 67.2389 95.8201 65.1979C96.424 63.1569 97.0994 61.1592 97.8623 59.2182C98.6252 57.2772 99.4673 55.3912 100.372 53.567C101.275 51.7428 102.229 49.9769 103.218 48.2732C104.209 46.5694 105.241 44.922 106.342 43.3283Z" fill="#FFB255" stroke="#FFB255" stroke-width="2" stroke-miterlimit="10"/>
<path d="M196.123 59.2769C193.341 57.1793 183.53 54.2051 180.142 53.3936C170.921 51.1856 162.845 50.6194 155.842 50.7704V135.907C164.074 135.998 172.217 135.791 180.33 135.374C181.526 135.313 184.415 134.983 185.513 134.505C186.538 134.059 186.712 133.493 187.695 132.152C189.277 129.993 190.623 129.055 192.664 127.187C195.133 124.926 197.668 122.574 199.03 119.516C200.383 116.476 200.441 113.042 200.477 109.716C200.691 89.845 201.165 63.0787 196.123 59.2769Z" fill="#A8B0E1"/>
<path d="M200.86 130.244C204.139 126.716 207.074 122.869 209.61 118.775C210.911 116.674 212.128 114.452 212.534 112.015C212.849 110.126 212.663 108.195 212.558 106.284C212.316 101.893 212.489 97.4884 212.161 93.1016C211.996 90.898 211.704 88.6972 211.156 86.5538C210.668 84.6405 210.316 82.6846 209.253 80.9701C209.135 80.7793 209.01 80.5914 208.922 80.385C208.836 80.1843 208.788 79.9706 208.74 79.7578C208.59 79.0985 208.429 78.4292 208.394 77.7518C208.357 77.0571 208.45 76.3625 208.377 75.665C207.874 70.8666 201.49 71.0373 197.951 71.4432C197.612 71.4822 197.274 71.5272 196.936 71.5778C195.728 71.7593 194.38 72.1588 193.848 73.2586C193.01 74.9924 194.422 77.1495 193.403 78.7833C190.837 82.8986 186.407 95.8236 185.667 102.872C185.424 105.176 185.322 107.495 185.367 109.811C185.506 116.884 187.041 123.927 189.674 129.921C192.1 130.576 194.593 130.985 197.101 131.14C198.056 131.199 199.051 131.214 199.922 130.819C201.177 130.249 201.917 128.959 200.86 130.244Z" fill="#A8B0E1"/>
<path d="M195.571 66.7047C195.639 66.6361 195.713 66.5686 195.789 66.5023C196.196 66.1522 196.68 65.882 197.204 65.7675C197.597 65.682 198.003 65.6844 198.404 65.7061C200.5 65.8189 202.595 66.465 204.264 67.7371C205.557 68.7228 205.999 68.1828 206.093 69.7861C206.201 71.6613 206.518 75.251 206.776 77.1133C205.341 78.4291 203.262 78.9021 201.333 78.6403C197.86 78.1685 195.354 75.73 195.114 75.2084C194.93 74.8089 194.944 74.2279 194.887 73.8002C194.76 72.8346 194.613 71.864 194.524 70.8943C194.381 69.3352 194.416 67.8559 195.571 66.7047Z" fill="#FFC6AD"/>
<path d="M199.466 78.3081C198.122 78.8558 197.453 80.2178 197.303 81.5963C197.212 82.4279 197.292 83.2655 197.364 84.095C197.439 84.9491 197.503 85.8044 197.556 86.66C197.774 90.1522 197.814 93.6552 197.675 97.1513C197.597 99.114 197.462 101.074 197.273 103.029C197.236 103.414 197.839 103.412 197.876 103.029C198.2 99.6774 198.363 96.3109 198.358 92.9437C198.356 91.2769 198.314 89.6101 198.231 87.9449C198.147 86.281 197.964 84.6234 197.88 82.9607C197.806 81.4863 198.048 79.5312 199.626 78.8883C199.98 78.7446 199.825 78.1615 199.466 78.3081Z" fill="#797FAB"/>
<path d="M201.055 83.6814C202.567 83.7533 204.096 83.5204 205.514 82.9871C206.772 82.5141 208.15 81.8331 208.827 80.6101C209.015 80.2708 208.495 79.9664 208.307 80.3061C207.683 81.4336 206.348 82.0528 205.185 82.4684C203.86 82.9418 202.46 83.1458 201.055 83.0791C200.667 83.0606 200.668 83.6629 201.055 83.6814Z" fill="#797FAB"/>
<path d="M207.313 75.0182C207.308 75.0937 207.303 75.1692 207.294 75.2442C207.292 75.2627 207.29 75.2808 207.288 75.2992C207.293 75.2647 207.292 75.2651 207.288 75.3005C207.282 75.3362 207.276 75.3715 207.27 75.4073C207.246 75.5398 207.213 75.6711 207.173 75.7996C207.154 75.8598 207.133 75.9192 207.111 75.9778C207.106 75.9903 207.065 76.0895 207.094 76.0208C207.081 76.0509 207.068 76.081 207.054 76.1108C206.999 76.228 206.936 76.3416 206.866 76.4513C206.782 76.5846 206.834 76.7889 206.974 76.8632C207.123 76.9415 207.296 76.8978 207.386 76.7552C207.716 76.2316 207.881 75.6333 207.916 75.0182C207.924 74.8608 207.771 74.7102 207.614 74.717C207.443 74.7246 207.323 74.8495 207.313 75.0182Z" fill="#797FAB"/>
<path d="M194.179 73.6188C194.161 74.0183 194.254 74.4106 194.426 74.7696C194.457 74.8342 194.539 74.8896 194.605 74.9081C194.678 74.9278 194.774 74.919 194.838 74.8776C194.984 74.7832 195.018 74.6182 194.946 74.4656C194.93 74.4331 194.915 74.4002 194.901 74.3668C194.911 74.3909 194.921 74.4146 194.932 74.4387C194.86 74.2657 194.811 74.085 194.785 73.8995C194.789 73.926 194.793 73.9529 194.796 73.9794C194.781 73.8597 194.776 73.7392 194.781 73.6188C194.788 73.461 194.638 73.3104 194.48 73.3176C194.31 73.3253 194.186 73.4497 194.179 73.6188Z" fill="#797FAB"/>
<path d="M194.092 72.1006C193.812 72.4809 193.558 72.882 193.412 73.3345C193.267 73.7831 193.23 74.2818 193.199 74.7499C193.133 75.7349 193.191 76.7235 193.234 77.7081C193.255 78.1867 193.298 78.6782 193.272 79.1572C193.261 79.3736 193.131 79.4865 192.981 79.6302C192.824 79.7816 192.668 79.9342 192.52 80.0944C191.941 80.718 191.575 81.4275 191.302 82.2293C190.619 84.233 190.546 86.3491 190.383 88.4399C190.217 90.5512 189.803 92.6311 189.308 94.6874C188.753 96.9857 188.058 99.2488 187.23 101.463C187.094 101.827 187.676 101.984 187.811 101.623C188.538 99.6784 189.163 97.6957 189.68 95.6844C190.199 93.6618 190.664 91.5935 190.887 89.5148C191.112 87.422 191.087 85.2902 191.626 83.242C191.85 82.39 192.127 81.5086 192.689 80.8139C192.942 80.5015 193.238 80.2341 193.519 79.9482C193.86 79.6017 193.879 79.2415 193.872 78.7785C193.854 77.6751 193.758 76.5741 193.773 75.4699C193.781 74.9355 193.808 74.397 193.902 73.8706C194.002 73.3141 194.282 72.8543 194.612 72.405C194.842 72.0922 194.32 71.791 194.092 72.1006Z" fill="#797FAB"/>
<path d="M187.949 73.7464C187.717 77.6505 187.481 81.5546 187.24 85.4588C187.001 89.326 186.826 93.206 186.454 97.0631C186.09 100.826 185.393 104.547 184.81 108.28C184.528 110.08 184.307 111.914 184.506 113.735C184.7 115.517 185.277 117.215 185.67 118.956C186.068 120.725 186.29 122.519 186.791 124.266C187.262 125.906 187.898 127.508 188.745 128.992C188.955 129.36 189.179 129.72 189.415 130.073C189.629 130.394 190.151 130.093 189.935 129.769C188.988 128.35 188.255 126.804 187.71 125.188C187.137 123.493 186.824 121.76 186.497 120.006C186.168 118.236 185.596 116.525 185.265 114.757C184.926 112.954 185.01 111.137 185.259 109.328C185.51 107.509 185.871 105.707 186.135 103.89C186.405 102.039 186.709 100.189 186.923 98.3292C187.362 94.5021 187.521 90.6402 187.759 86.7971C187.999 82.9307 188.235 79.0639 188.466 75.1967C188.495 74.7133 188.523 74.2298 188.552 73.7464C188.574 73.3593 187.972 73.3605 187.949 73.7464Z" fill="#797FAB"/>
<path d="M199.31 80.8531C199.334 81.6506 200.015 82.3545 200.821 82.3685C201.632 82.3826 202.323 81.6875 202.373 80.8957C202.384 80.7331 202.227 80.5945 202.072 80.5945C201.9 80.5945 201.781 80.7327 201.771 80.8957C201.756 81.1185 201.64 81.3394 201.459 81.5092C201.286 81.6718 201.053 81.7706 200.821 81.7662C200.356 81.7574 199.926 81.3161 199.913 80.8531C199.901 80.4664 199.299 80.4648 199.31 80.8531Z" fill="#797FAB"/>
<path d="M199.745 72.0685C195.208 71.2562 194.531 69.428 193.583 65.9748C192.635 62.5216 191.165 56.7286 191.518 55.0193C191.872 53.31 195.468 47.6511 195.468 47.6511C195.468 47.6511 195.588 43.6117 196.065 42.5291C196.541 41.4466 198.23 39.8011 198.663 39.6281C199.095 39.455 199.702 40.4942 199.702 41.1001C199.702 41.1001 200.524 38.8916 201.867 39.9742C203.209 41.0567 201.174 44.261 200.395 45.6467C199.615 47.0324 199.183 48.7208 199.183 48.7208L199.659 51.0156L201.217 50.3663C201.217 50.3663 202.213 49.0673 203.512 49.76C204.811 50.4526 204.855 51.6653 204.855 51.6653C204.855 51.6653 206.37 51.0156 207.323 52.7912C208.275 54.5664 208.882 59.243 208.752 60.4553C208.622 61.6675 208.059 65.7379 207.496 67.0368C206.933 68.3358 205.461 71.367 203.859 71.7998C202.256 72.2331 199.745 72.0685 199.745 72.0685Z" fill="#FFC6AD"/>
<path d="M199.466 41.4269C199.609 42.142 199.445 42.825 198.843 43.2715C198.617 43.4398 198.358 43.5687 198.096 43.6694C197.901 43.7441 197.7 43.7783 197.574 43.9569C196.978 44.8018 196.416 45.6719 195.839 46.5288C195.623 46.8492 195.407 47.1692 195.19 47.4897C194.959 47.8326 195.515 48.1538 195.744 47.8133C196.445 46.7741 197.146 45.7345 197.847 44.6954C197.947 44.5472 198.047 44.3986 198.148 44.2505C198.084 44.2995 198.02 44.3488 197.956 44.3978C198.526 44.2071 199.095 43.9602 199.524 43.5257C200.131 42.9109 200.249 42.0774 200.085 41.2562C200.004 40.8519 199.386 41.0233 199.466 41.4269Z" fill="#DE9A85"/>
<path d="M198.905 48.5591C198.512 49.4839 198.118 50.4082 197.725 51.3325C197.669 51.4642 197.613 51.5963 197.557 51.728C197.489 51.887 197.509 52.0713 197.672 52.1665C197.806 52.2452 198.043 52.2119 198.11 52.0517C198.504 51.1269 198.897 50.2026 199.29 49.2779C199.346 49.1462 199.402 49.0145 199.458 48.8824C199.526 48.7233 199.506 48.539 199.343 48.4439C199.209 48.3656 198.973 48.3989 198.905 48.5591Z" fill="#DE9A85"/>
<path d="M193.519 56.6584C194.593 55.5851 195.666 54.5118 196.739 53.4385C197.029 53.1486 197.319 52.8587 197.609 52.5688C197.705 52.4732 197.8 52.3777 197.896 52.2821C197.932 52.246 198.029 52.1813 198.046 52.1323C198.069 52.0665 197.953 52.2014 197.923 52.1986C197.942 52.2006 197.972 52.1813 197.99 52.1765C198.104 52.148 198.217 52.1042 198.329 52.0689C198.757 51.9348 199.187 51.8059 199.619 51.6846C200.131 51.5409 200.647 51.4048 201.168 51.2967C201.372 51.2546 201.604 51.2104 201.79 51.1895C201.876 51.1799 201.962 51.1723 202.048 51.1699C202.087 51.1691 202.29 51.1731 202.203 51.1707C202.223 51.1711 202.255 51.1771 202.273 51.1871C202.202 51.147 202.278 51.1867 202.321 51.2229C202.4 51.2887 202.463 51.3562 202.501 51.4529C202.587 51.6738 202.515 51.9356 202.419 52.1408C202.103 52.8218 201.455 53.1944 200.793 53.4779C200.298 53.6903 199.796 53.8184 199.28 53.9569C199.015 54.0284 198.909 54.403 198.806 54.6271C198.325 55.6723 197.778 56.9761 198.051 58.1457C198.2 58.7854 198.524 59.3825 198.828 59.9591C199.197 60.6601 199.576 61.3588 199.851 62.1033C200.388 63.5536 200.518 65.1654 200.342 66.6976C200.329 66.8145 200.333 66.7996 200.31 66.9321C200.238 67.3357 200.856 67.5087 200.928 67.1028C201.257 65.2501 201.017 63.2075 200.29 61.4809C199.885 60.518 199.322 59.633 198.908 58.6758C198.753 58.3184 198.624 57.9434 198.625 57.5503C198.626 57.117 198.728 56.6894 198.853 56.2766C199.043 55.6418 199.3 55.0174 199.614 54.4327C199.55 54.4817 199.486 54.5311 199.422 54.5801C200.154 54.4721 200.884 54.1585 201.542 53.8365C202.338 53.4474 203.128 52.6612 203.177 51.7264C203.212 51.059 202.712 50.5113 202.049 50.5282C201.413 50.5443 200.768 50.7185 200.156 50.8755C199.517 51.039 198.884 51.2241 198.255 51.42C198.015 51.4947 197.739 51.5413 197.554 51.7184C196.786 52.45 196.052 53.2197 195.303 53.9694C194.557 54.7146 193.812 55.4595 193.067 56.2047C192.774 56.4974 193.227 56.9508 193.519 56.6584Z" fill="#DE9A85"/>
<path d="M199.799 54.0553C199.639 54.5227 199.588 55.0463 199.568 55.5357C199.524 56.6295 199.764 57.6968 200.076 58.7388C200.192 59.1247 200.316 59.6619 200.696 59.8804C200.996 60.0522 201.372 60.0835 201.703 60.0048C202.547 59.8041 202.844 58.9315 202.892 58.157C202.917 57.745 202.276 57.7462 202.25 58.157C202.218 58.6834 202.048 59.2515 201.533 59.3865C201.469 59.4033 201.435 59.4057 201.327 59.4053C201.313 59.4053 201.208 59.3961 201.251 59.4021C201.291 59.4073 201.2 59.3921 201.183 59.3869C201.14 59.374 201.098 59.3563 201.055 59.3419C200.966 59.3122 201.097 59.3808 201.014 59.3234C200.962 59.2873 201.004 59.3198 201.016 59.3278C201.001 59.3178 200.978 59.2957 200.969 59.2805C201.012 59.3539 200.926 59.2042 200.906 59.1632C200.814 58.9833 200.736 58.7099 200.668 58.4782C200.398 57.5486 200.182 56.6139 200.206 55.6397C200.219 55.1695 200.264 54.6741 200.417 54.2255C200.551 53.8344 199.932 53.6662 199.799 54.0553Z" fill="#DE9A85"/>
<path d="M204.627 51.4391C203.438 52.4759 202.738 54.017 202.477 55.5516C202.352 56.2872 202.288 57.0353 202.275 57.7814C202.263 58.429 202.273 59.0996 202.414 59.7348C202.517 60.201 202.775 60.6214 203.229 60.8121C203.702 61.0113 204.229 60.8663 204.575 60.4945C205.098 59.9312 205.206 59.0659 205.359 58.3439C205.479 57.7757 205.545 57.1827 205.71 56.6253C205.716 56.6077 205.761 56.4832 205.73 56.5547C205.742 56.5278 205.756 56.5017 205.769 56.4764C205.815 56.3916 205.861 56.3069 205.907 56.223C206.046 55.9736 206.188 55.7263 206.33 55.4789C206.539 55.116 206.748 54.7534 206.96 54.3916C207.168 54.0346 206.614 53.7114 206.406 54.068C206.026 54.7201 205.641 55.3705 205.28 56.0331C205.11 56.3439 205.036 56.6619 204.969 57.0084C204.837 57.687 204.71 58.3656 204.542 59.0365C204.436 59.4618 204.276 60.2018 203.728 60.2653C203.45 60.2978 203.179 60.0589 203.082 59.7585C202.921 59.261 202.918 58.7005 202.913 58.1833C202.906 57.4882 202.946 56.7896 203.037 56.1005C203.245 54.5285 203.861 52.9541 205.08 51.892C205.392 51.6206 204.937 51.1689 204.627 51.4391Z" fill="#DE9A85"/>
<path d="M199.688 69.2801C199.564 69.5335 199.421 69.7772 199.261 70.0097C199.216 70.0751 199.208 70.1823 199.228 70.2566C199.249 70.3309 199.306 70.4116 199.376 70.4482C199.45 70.4875 199.54 70.5072 199.623 70.4807C199.705 70.4538 199.765 70.4052 199.814 70.3333C199.974 70.1008 200.117 69.8571 200.241 69.6037C200.28 69.5258 200.298 69.4427 200.274 69.3568C200.253 69.2825 200.196 69.2018 200.127 69.1653C200.052 69.1259 199.962 69.1062 199.88 69.1327C199.804 69.1572 199.725 69.2054 199.688 69.2801Z" fill="#DE9A85"/>
<path d="M206.958 56.277C206.636 56.1317 206.303 56.0189 205.955 55.9542C205.869 55.9381 205.786 55.941 205.708 55.9867C205.641 56.0257 205.578 56.102 205.561 56.1783C205.525 56.3361 205.608 56.5396 205.785 56.5726C206.07 56.626 206.349 56.7095 206.617 56.8223C206.591 56.8115 206.566 56.8006 206.54 56.7898C206.572 56.8031 206.603 56.8167 206.634 56.8308C206.715 56.8673 206.793 56.8878 206.881 56.8629C206.956 56.8424 207.036 56.785 207.073 56.7155C207.112 56.6412 207.132 56.5509 207.105 56.4686C207.081 56.3943 207.033 56.3108 206.958 56.277Z" fill="#DE9A85"/>
<path d="M196.137 53.2006C195.705 53.1717 195.274 53.1432 194.842 53.1143C194.675 53.1031 194.514 53.2697 194.522 53.4351C194.53 53.6182 194.663 53.7439 194.842 53.7556C195.274 53.7845 195.705 53.813 196.137 53.8415C196.305 53.8527 196.465 53.6861 196.457 53.5211C196.449 53.338 196.316 53.2123 196.137 53.2006Z" fill="#DE9A85"/>
<path d="M198.569 40.6238C198.646 40.9253 198.711 41.2301 198.763 41.5373C198.774 41.6011 198.835 41.6698 198.889 41.7011C198.948 41.7356 199.034 41.7501 199.1 41.7288C199.166 41.7075 199.231 41.6661 199.264 41.6027C199.301 41.5336 199.305 41.4678 199.292 41.3915C199.24 41.0843 199.175 40.7796 199.098 40.478C199.062 40.3391 198.9 40.2415 198.761 40.2865C198.617 40.3326 198.531 40.4748 198.569 40.6238Z" fill="#FCE8E1"/>
<path d="M201.641 51.5953C201.446 51.6536 201.246 51.6981 201.045 51.7291C200.981 51.7387 200.912 51.8021 200.881 51.8551C200.846 51.9138 200.832 52.0005 200.853 52.0663C200.874 52.1326 200.916 52.1968 200.979 52.2302C201.001 52.2394 201.023 52.2486 201.045 52.2579C201.093 52.2711 201.142 52.2711 201.19 52.2579C201.392 52.227 201.591 52.182 201.787 52.1238C201.854 52.1037 201.915 52.0583 201.951 51.9977C201.985 51.9391 202 51.8523 201.978 51.7865C201.957 51.7202 201.916 51.656 201.852 51.6227C201.788 51.5889 201.713 51.5741 201.641 51.5953Z" fill="#FCE8E1"/>
<path d="M203.507 60.2651C203.039 60.5534 202.686 60.971 202.343 61.3926C202.151 61.6283 201.993 61.858 201.88 62.141C201.849 62.2185 201.817 62.286 201.758 62.3414C201.651 62.4418 201.55 62.5466 201.519 62.696C201.483 62.8654 201.568 63.0425 201.743 63.0903C201.902 63.134 202.102 63.0369 202.137 62.8662C202.149 62.8076 202.139 62.8726 202.128 62.871C202.118 62.8839 202.119 62.8835 202.132 62.8694C202.142 62.8582 202.154 62.8473 202.165 62.8373C202.199 62.8052 202.235 62.7747 202.266 62.7393C202.363 62.6305 202.419 62.5097 202.472 62.3763C202.483 62.3498 202.493 62.3229 202.504 62.2964C202.513 62.276 202.513 62.2752 202.505 62.2936C202.51 62.2816 202.516 62.2695 202.521 62.2575C202.551 62.1985 202.583 62.1406 202.619 62.0848C202.683 61.9861 202.748 61.9049 202.821 61.8158C203.122 61.4476 203.436 61.0621 203.83 60.8192C203.977 60.7284 204.034 60.5325 203.945 60.3807C203.859 60.2329 203.655 60.1739 203.507 60.2651Z" fill="#DE9A85"/>
<path d="M207.118 64.8872C207.123 64.9711 207.121 65.055 207.112 65.1386C207.111 65.1498 207.11 65.1606 207.108 65.1719C207.114 65.1269 207.115 65.1189 207.111 65.149C207.107 65.1711 207.103 65.1932 207.099 65.2149C207.09 65.2558 207.08 65.2968 207.069 65.3369C207.057 65.3771 207.044 65.4172 207.029 65.4562C207.025 65.4666 207.021 65.4771 207.017 65.4875C207.033 65.4477 207.036 65.4413 207.025 65.4682C207.016 65.4859 207.008 65.504 207 65.5216C206.961 65.5995 206.917 65.6738 206.866 65.7445C206.827 65.7995 206.821 65.893 206.839 65.9557C206.856 66.0191 206.905 66.0882 206.965 66.1195C207.106 66.1942 207.251 66.146 207.34 66.0211C207.571 65.6971 207.688 65.2839 207.666 64.8868C207.658 64.7438 207.545 64.6057 207.392 64.6125C207.25 64.6194 207.109 64.7338 207.118 64.8872Z" fill="#FCE8E1"/>
<path d="M194.069 68.0986C194.17 68.4435 194.348 68.7571 194.587 69.0254C194.639 69.0848 194.736 69.1193 194.814 69.1193C194.892 69.1193 194.986 69.0844 195.04 69.0254C195.164 68.8913 195.16 68.7062 195.04 68.572C195.008 68.5355 194.977 68.4982 194.947 68.4596C194.964 68.4813 194.98 68.503 194.997 68.5243C194.891 68.3865 194.804 68.2368 194.735 68.0773C194.746 68.103 194.757 68.1283 194.768 68.154C194.737 68.0802 194.71 68.0051 194.687 67.9284C194.665 67.8501 194.611 67.7782 194.54 67.7368C194.471 67.6967 194.37 67.6794 194.293 67.7047C194.13 67.7569 194.018 67.926 194.069 68.0986Z" fill="#DE9A85"/>
<path d="M200.157 79.9214C200.21 79.8555 200.268 79.7941 200.334 79.7407C200.357 79.7226 200.315 79.7515 200.357 79.7254C200.373 79.715 200.39 79.7033 200.407 79.6929C200.445 79.6696 200.485 79.6487 200.525 79.6295C200.57 79.6082 200.489 79.6423 200.536 79.625C200.559 79.6162 200.582 79.6082 200.606 79.6005C200.644 79.5889 200.683 79.5789 200.722 79.5708C200.741 79.5668 200.761 79.5632 200.78 79.5604C200.728 79.5676 200.794 79.5608 200.804 79.5604C200.849 79.5576 200.893 79.5576 200.938 79.5604C200.957 79.5616 200.977 79.5632 200.996 79.5656C200.963 79.5616 200.979 79.5632 201.002 79.568C201.044 79.5773 201.087 79.5869 201.128 79.6001C201.147 79.6058 201.165 79.6122 201.183 79.619C201.232 79.6363 201.124 79.5885 201.205 79.6278C201.24 79.6447 201.275 79.6624 201.308 79.682C201.329 79.6945 201.35 79.7073 201.37 79.721C201.374 79.7238 201.419 79.7559 201.398 79.7403C201.377 79.7246 201.42 79.7591 201.424 79.7624C201.443 79.778 201.46 79.7945 201.478 79.8113C201.505 79.8386 201.531 79.8672 201.556 79.8965C201.53 79.8651 201.561 79.9025 201.571 79.9165C201.585 79.9366 201.597 79.9567 201.61 79.9776C201.696 80.1157 201.88 80.1691 202.022 80.0856C202.16 80.0049 202.216 79.8126 202.13 79.6736C201.876 79.2624 201.447 79.0031 200.967 78.9609C200.508 78.9203 200.018 79.138 199.731 79.4961C199.63 79.623 199.607 79.7981 199.731 79.9222C199.837 80.0262 200.055 80.0486 200.157 79.9214Z" fill="#D8DBED"/>
<path d="M188.923 68.3101C189.181 65.974 189.483 63.5021 190.933 61.5643C191.166 61.2539 190.643 60.9532 190.413 61.2603C188.899 63.2821 188.59 65.874 188.32 68.3101C188.278 68.6948 188.88 68.6915 188.923 68.3101Z" fill="#797FAB"/>
<path d="M199.644 103.947C200.519 103.982 201.395 103.761 202.152 103.323C202.488 103.128 202.185 102.608 201.848 102.803C201.178 103.191 200.417 103.376 199.644 103.344C199.481 103.338 199.342 103.487 199.342 103.646C199.342 103.814 199.48 103.94 199.644 103.947Z" fill="#797FAB"/>
<path d="M201.813 86.6068C202.046 88.6602 202.278 90.7133 202.511 92.7667C202.554 93.1474 203.157 93.1518 203.113 92.7667C202.881 90.7133 202.648 88.6602 202.415 86.6068C202.372 86.2257 201.769 86.2213 201.813 86.6068Z" fill="#797FAB"/>
<path d="M194.442 79.9438C194.221 79.6146 194.023 79.2713 193.848 78.9159C193.778 78.7742 193.566 78.724 193.436 78.8079C193.291 78.9014 193.253 79.0685 193.328 79.2199C193.503 79.5752 193.701 79.9185 193.922 80.2478C194.009 80.3787 194.191 80.4478 194.334 80.3558C194.464 80.2719 194.535 80.084 194.442 79.9438Z" fill="#797FAB"/>
<path d="M185.06 76.7193C185.779 80.2247 186.421 83.7458 186.984 87.2801C187.044 87.6619 187.625 87.4997 187.565 87.1199C187.002 83.586 186.36 80.0649 185.641 76.5595C185.563 76.18 184.982 76.3407 185.06 76.7193Z" fill="#797FAB"/>
<path d="M200.215 129.635C200.808 128.953 201.254 128.163 201.526 127.301C201.575 127.146 201.468 126.973 201.315 126.931C201.153 126.886 200.994 126.985 200.945 127.141C200.706 127.897 200.311 128.608 199.789 129.209C199.682 129.331 199.668 129.514 199.789 129.635C199.898 129.743 200.108 129.757 200.215 129.635Z" fill="#D8DBED"/>
<path d="M206.635 78.329C207.156 77.9681 207.653 77.5701 208.116 77.1377C208.232 77.0301 208.233 76.8193 208.116 76.7117C207.993 76.598 207.814 76.5968 207.69 76.7117C207.471 76.916 207.245 77.1132 207.011 77.3015C206.956 77.3457 206.901 77.3894 206.846 77.4332C206.801 77.4677 206.861 77.422 206.833 77.4428C206.819 77.4537 206.805 77.4641 206.791 77.475C206.763 77.4963 206.735 77.5175 206.707 77.5388C206.583 77.6312 206.458 77.7211 206.331 77.809C206.201 77.8986 206.13 78.0773 206.223 78.221C206.306 78.3495 206.497 78.425 206.635 78.329Z" fill="#D8DBED"/>
<path d="M197.536 82.3557C197.437 82.3308 197.341 82.2987 197.247 82.2593C197.271 82.2693 197.295 82.2794 197.319 82.2898C197.161 82.2228 197.013 82.1364 196.877 82.032C196.898 82.0477 196.918 82.0634 196.938 82.079C196.909 82.0561 196.881 82.0328 196.853 82.0087C196.792 81.9557 196.723 81.9204 196.64 81.9204C196.566 81.9204 196.478 81.9533 196.427 82.0087C196.375 82.0662 196.335 82.1417 196.339 82.2216C196.343 82.2979 196.367 82.3826 196.427 82.4344C196.702 82.6713 197.024 82.8476 197.376 82.9363C197.453 82.9556 197.539 82.9463 197.608 82.9058C197.671 82.8692 197.73 82.7978 197.747 82.7259C197.782 82.5697 197.699 82.3966 197.536 82.3557Z" fill="#797FAB"/>
<path d="M115.561 59.2769C118.343 57.1793 128.154 54.2051 131.542 53.3936C140.763 51.1856 148.839 50.6194 155.842 50.7704V135.907C147.61 135.998 139.467 135.791 131.354 135.374C130.158 135.313 127.269 134.983 126.171 134.505C125.146 134.059 124.972 133.493 123.989 132.152C122.407 129.993 121.061 129.055 119.02 127.187C116.551 124.926 114.016 122.574 112.654 119.516C111.301 116.476 111.243 113.042 111.207 109.716C110.993 89.845 110.519 63.0787 115.561 59.2769Z" fill="#A8B0E1"/>
<path d="M110.824 130.244C107.545 126.716 104.61 122.869 102.074 118.775C100.773 116.674 99.5564 114.452 99.1501 112.015C98.8353 110.126 99.0212 108.195 99.1268 106.284C99.3685 101.893 99.1951 97.4884 99.5235 93.1016C99.6886 90.898 99.9805 88.6972 100.528 86.5538C101.016 84.6405 101.368 82.6846 102.431 80.9701C102.549 80.7793 102.674 80.5914 102.762 80.385C102.848 80.1843 102.896 79.9706 102.945 79.7578C103.094 79.0985 103.255 78.4292 103.291 77.7518C103.327 77.0571 103.234 76.3625 103.307 75.665C103.81 70.8666 110.194 71.0373 113.733 71.4432C114.072 71.4822 114.41 71.5272 114.748 71.5778C115.956 71.7593 117.304 72.1588 117.836 73.2586C118.674 74.9924 117.262 77.1495 118.281 78.7833C120.847 82.8986 125.277 95.8236 126.018 102.872C126.26 105.176 126.362 107.495 126.317 109.811C126.178 116.884 124.644 123.927 122.01 129.921C119.584 130.576 117.091 130.985 114.583 131.14C113.628 131.199 112.633 131.214 111.762 130.819C110.507 130.249 109.768 128.959 110.824 130.244Z" fill="#A8B0E1"/>
<path d="M116.113 66.7047C116.045 66.6361 115.972 66.5686 115.895 66.5023C115.488 66.1522 115.004 65.882 114.48 65.7675C114.087 65.682 113.681 65.6844 113.28 65.7061C111.184 65.8189 109.089 66.465 107.42 67.7371C106.127 68.7228 105.685 68.1828 105.591 69.7861C105.483 71.6613 105.166 75.251 104.908 77.1133C106.343 78.4291 108.422 78.9021 110.351 78.6403C113.825 78.1685 116.33 75.73 116.57 75.2084C116.754 74.8089 116.741 74.2279 116.797 73.8002C116.924 72.8346 117.071 71.864 117.16 70.8943C117.304 69.3352 117.268 67.8559 116.113 66.7047Z" fill="#FFC6AD"/>
<path d="M112.058 78.8887C113.404 79.4372 113.812 81.0377 113.819 82.3467C113.823 83.1611 113.725 83.9734 113.66 84.7837C113.592 85.6225 113.535 86.4625 113.487 87.3029C113.3 90.6481 113.275 94.0021 113.415 97.3497C113.493 99.2462 113.626 101.14 113.808 103.029C113.845 103.411 114.448 103.415 114.411 103.029C114.075 99.5626 113.913 96.0801 113.929 92.5975C113.937 90.8481 113.99 89.099 114.087 87.3523C114.135 86.4789 114.195 85.606 114.266 84.7343C114.334 83.8935 114.437 83.0502 114.419 82.2054C114.385 80.6286 113.782 78.9454 112.218 78.3081C111.859 78.1616 111.703 78.7442 112.058 78.8887Z" fill="#797FAB"/>
<path d="M110.629 83.079C109.225 83.1457 107.824 82.9417 106.499 82.4683C105.336 82.0527 104.001 81.4335 103.377 80.306C103.189 79.9667 102.668 80.2703 102.857 80.61C103.534 81.833 104.912 82.5136 106.17 82.987C107.588 83.5203 109.117 83.7532 110.629 83.6813C111.015 83.6628 111.017 83.0605 110.629 83.079Z" fill="#797FAB"/>
<path d="M103.769 75.0182C103.804 75.6334 103.968 76.2317 104.298 76.7553C104.382 76.8886 104.57 76.9536 104.71 76.8633C104.843 76.7773 104.908 76.5938 104.818 76.4513C104.749 76.3417 104.686 76.2281 104.631 76.1108C104.617 76.0811 104.603 76.051 104.59 76.0209C104.62 76.0891 104.578 75.9899 104.574 75.9779C104.551 75.9193 104.53 75.8594 104.511 75.7996C104.471 75.6711 104.439 75.5398 104.415 75.4073C104.408 75.372 104.403 75.3362 104.397 75.3005C104.392 75.2648 104.392 75.2644 104.396 75.2993C104.394 75.2808 104.392 75.2628 104.39 75.2443C104.381 75.1692 104.375 75.0937 104.371 75.0182C104.362 74.8612 104.239 74.7094 104.07 74.7171C103.915 74.7239 103.759 74.85 103.769 75.0182Z" fill="#797FAB"/>
<path d="M116.904 73.6188C116.909 73.7393 116.904 73.8597 116.889 73.9794C116.892 73.9529 116.896 73.926 116.9 73.8995C116.874 74.0854 116.825 74.2657 116.754 74.4387C116.764 74.4147 116.774 74.3906 116.784 74.3669C116.77 74.4002 116.755 74.4331 116.739 74.4657C116.704 74.5399 116.686 74.6158 116.709 74.6977C116.728 74.7676 116.782 74.8431 116.848 74.8776C116.982 74.9487 117.187 74.9214 117.259 74.7696C117.431 74.4102 117.524 74.0179 117.506 73.6188C117.5 73.4618 117.373 73.31 117.205 73.3177C117.047 73.3245 116.896 73.4502 116.904 73.6188Z" fill="#797FAB"/>
<path d="M117.072 72.4045C117.354 72.7871 117.624 73.1919 117.739 73.6589C117.855 74.1287 117.884 74.6262 117.902 75.1076C117.939 76.0801 117.874 77.0523 117.835 78.0236C117.818 78.4661 117.736 78.9873 117.841 79.4221C117.939 79.8293 118.335 80.1007 118.612 80.3862C119.215 81.0066 119.578 81.7036 119.847 82.5224C120.506 84.5321 120.548 86.6441 120.724 88.7325C120.899 90.8117 121.318 92.8675 121.808 94.8933C122.361 97.1756 123.052 99.423 123.874 101.623C124.009 101.982 124.591 101.827 124.455 101.462C123.722 99.5021 123.093 97.504 122.574 95.4767C122.054 93.4433 121.582 91.361 121.375 89.2698C121.168 87.1725 121.17 85.038 120.616 82.9906C120.381 82.1232 120.084 81.2459 119.531 80.5263C119.282 80.2027 118.997 79.9124 118.704 79.6293C118.57 79.5008 118.431 79.3888 118.414 79.194C118.394 78.9563 118.415 78.7082 118.422 78.4697C118.454 77.3494 118.547 76.2291 118.505 75.1076C118.485 74.5872 118.448 74.0492 118.33 73.5404C118.207 73.0068 117.913 72.5362 117.592 72.1005C117.365 71.7913 116.842 72.0917 117.072 72.4045Z" fill="#797FAB"/>
<path d="M123.133 73.7465C123.363 77.6136 123.597 81.4804 123.836 85.3472C124.073 89.1967 124.25 93.0575 124.613 96.8978C124.964 100.608 125.613 104.291 126.218 107.966C126.515 109.767 126.761 111.604 126.606 113.431C126.453 115.231 125.858 116.947 125.456 118.698C125.054 120.449 124.839 122.229 124.353 123.962C123.891 125.605 123.266 127.203 122.419 128.687C122.209 129.056 121.985 129.416 121.749 129.769C121.534 130.092 122.055 130.394 122.269 130.073C123.217 128.652 123.951 127.101 124.508 125.488C125.095 123.784 125.431 122.039 125.749 120.27C126.067 118.496 126.64 116.785 126.982 115.017C127.328 113.227 127.296 111.438 127.068 109.634C126.836 107.796 126.467 105.978 126.192 104.145C125.909 102.265 125.606 100.382 125.384 98.4939C124.932 94.65 124.774 90.7695 124.534 86.9084C124.292 83.0046 124.054 79.1005 123.821 75.1964C123.792 74.7129 123.763 74.2295 123.735 73.746C123.712 73.3614 123.11 73.3586 123.133 73.7465Z" fill="#797FAB"/>
<path d="M111.772 80.853C111.765 81.0807 111.661 81.3071 111.489 81.4798C111.317 81.6525 111.092 81.7625 110.863 81.7661C110.638 81.7697 110.408 81.6762 110.238 81.5208C110.049 81.3481 109.928 81.124 109.913 80.8952C109.903 80.733 109.782 80.594 109.612 80.594C109.457 80.594 109.301 80.7321 109.311 80.8952C109.362 81.687 110.052 82.3821 110.863 82.368C111.67 82.3539 112.35 81.6501 112.374 80.8526C112.386 80.4655 111.784 80.4659 111.772 80.853Z" fill="#797FAB"/>
<path d="M111.94 72.0685C116.476 71.2562 117.153 69.428 118.101 65.9748C119.049 62.5216 120.52 56.7286 120.166 55.0193C119.812 53.31 116.217 47.6511 116.217 47.6511C116.217 47.6511 116.097 43.6117 115.62 42.5291C115.144 41.4466 113.455 39.8011 113.022 39.6281C112.59 39.455 111.983 40.4942 111.983 41.1001C111.983 41.1001 111.16 38.8916 109.818 39.9742C108.476 41.0567 110.511 44.261 111.291 45.6467C112.07 47.0324 112.503 48.7208 112.503 48.7208L112.027 51.0156L110.468 50.3663C110.468 50.3663 109.472 49.0673 108.173 49.76C106.874 50.4526 106.831 51.6653 106.831 51.6653C106.831 51.6653 105.315 51.0156 104.362 52.7912C103.41 54.5664 102.804 59.243 102.933 60.4553C103.064 61.6675 103.626 65.7379 104.189 67.0368C104.752 68.3358 106.224 71.367 107.826 71.7998C109.428 72.2331 111.94 72.0685 111.94 72.0685Z" fill="#FFC6AD"/>
<path d="M111.6 41.2563C111.435 42.0778 111.554 42.9098 112.16 43.5258C112.588 43.9606 113.159 44.2072 113.728 44.3979C113.664 44.3489 113.6 44.2995 113.537 44.2505C114.238 45.2897 114.939 46.3289 115.64 47.3684C115.74 47.5166 115.84 47.6652 115.94 47.8133C116.17 48.1534 116.726 47.833 116.494 47.4897C115.97 46.7123 115.445 45.9346 114.92 45.1572C114.663 44.7761 114.406 44.3947 114.149 44.0136C114.046 43.8614 113.927 43.7912 113.751 43.7289C113.503 43.6414 113.262 43.5374 113.037 43.4013C112.314 42.964 112.055 42.2477 112.218 41.4269C112.298 41.0238 111.68 40.8515 111.6 41.2563Z" fill="#DE9A85"/>
<path d="M112.226 48.8828C112.619 49.8071 113.012 50.7319 113.405 51.6562C113.461 51.7879 113.517 51.92 113.573 52.0517C113.641 52.2111 113.876 52.2461 114.012 52.1666C114.177 52.0702 114.195 51.8879 114.127 51.7281C113.734 50.8034 113.34 49.879 112.947 48.9547C112.891 48.823 112.835 48.6909 112.779 48.5592C112.711 48.3998 112.476 48.3648 112.34 48.4443C112.176 48.5407 112.158 48.723 112.226 48.8828Z" fill="#DE9A85"/>
<path d="M118.618 56.2053C117.164 54.7514 115.71 53.2974 114.257 51.8435C114.198 51.7852 114.142 51.717 114.078 51.6652C113.978 51.5841 113.858 51.556 113.738 51.5174C113.182 51.3399 112.624 51.1725 112.062 51.0179C111.382 50.8304 110.692 50.6493 109.991 50.5601C109.763 50.5312 109.517 50.5019 109.29 50.5565C108.97 50.6328 108.707 50.9199 108.591 51.2167C108.221 52.1567 109.057 53.1593 109.789 53.6391C110.307 53.9784 110.932 54.2073 111.52 54.3932C111.762 54.4695 112.011 54.5434 112.263 54.5803C112.199 54.5313 112.135 54.4819 112.071 54.433C112.331 54.9168 112.548 55.4284 112.726 55.9471C112.869 56.3615 112.996 56.7928 113.042 57.23C113.087 57.648 113.027 58.0199 112.882 58.413C112.538 59.353 111.97 60.2034 111.556 61.1129C111.035 62.2565 110.741 63.4486 110.659 64.703C110.607 65.496 110.617 66.3172 110.757 67.1026C110.829 67.5081 111.447 67.3363 111.375 66.9319C111.351 66.797 111.356 66.8191 111.343 66.6974C111.312 66.4328 111.294 66.167 111.284 65.9008C111.251 65.0435 111.31 64.1802 111.481 63.3386C111.651 62.4994 111.964 61.7084 112.345 60.9438C112.664 60.303 113.029 59.6834 113.319 59.0277C113.57 58.4575 113.746 57.889 113.686 57.259C113.625 56.6109 113.433 55.9825 113.198 55.3782C113.04 54.9718 112.871 54.5574 112.66 54.1752C112.512 53.9073 112.178 53.9158 111.908 53.8395C111.204 53.6403 110.402 53.3713 109.844 52.8822C109.492 52.5726 108.966 51.9467 109.191 51.4303C109.229 51.3452 109.292 51.2797 109.363 51.2223C109.394 51.1974 109.494 51.1516 109.403 51.1894C109.418 51.1829 109.506 51.1649 109.461 51.1725C109.416 51.1801 109.502 51.1697 109.519 51.1697C109.558 51.1697 109.597 51.1685 109.636 51.1693C109.728 51.1717 109.821 51.1801 109.913 51.191C110.348 51.2424 110.836 51.3616 111.282 51.4744C111.785 51.6017 112.285 51.7439 112.783 51.8928C113.086 51.9836 113.391 52.1073 113.7 52.1779C113.858 52.2141 113.622 52.0944 113.64 52.1342C113.664 52.186 113.748 52.2418 113.788 52.2819C114.015 52.5092 114.242 52.7365 114.469 52.9637C115.673 54.1671 116.877 55.3709 118.08 56.5743C118.108 56.6025 118.136 56.6306 118.164 56.6583C118.457 56.951 118.911 56.4976 118.618 56.2053Z" fill="#DE9A85"/>
<path d="M111.267 54.2255C111.697 55.4795 111.446 56.8973 111.112 58.1353C111.029 58.4448 110.945 58.758 110.826 59.0568C110.812 59.0929 110.771 59.176 110.736 59.2435C110.73 59.2551 110.674 59.333 110.708 59.2909C110.74 59.2499 110.687 59.3146 110.675 59.3226C110.73 59.2856 110.686 59.3234 110.629 59.3443C110.736 59.3057 110.616 59.3487 110.576 59.3619C110.526 59.3788 110.479 59.3925 110.427 59.4021C110.45 59.3977 110.448 59.4045 110.386 59.4037C110.337 59.4033 110.289 59.4049 110.241 59.4013C110.106 59.3909 109.905 59.3146 109.765 59.1632C109.519 58.8966 109.456 58.5043 109.435 58.1561C109.409 57.7462 108.768 57.7433 108.793 58.1561C108.838 58.8825 109.081 59.6651 109.818 59.9514C110.172 60.0883 110.552 60.0686 110.896 59.9213C111.27 59.7615 111.406 59.3591 111.526 59.0002C111.859 58.0031 112.111 56.9479 112.122 55.8935C112.128 55.2896 112.084 54.6315 111.886 54.0549C111.753 53.667 111.133 53.8336 111.267 54.2255Z" fill="#DE9A85"/>
<path d="M106.603 51.8925C107.691 52.8402 108.319 54.2202 108.571 55.6212C108.693 56.2962 108.748 56.9844 108.766 57.6698C108.781 58.2569 108.783 58.864 108.677 59.4438C108.614 59.7835 108.491 60.1537 108.136 60.2489C107.753 60.3513 107.447 59.9658 107.307 59.6112C107.036 58.9258 106.931 58.142 106.794 57.4201C106.717 57.0173 106.674 56.576 106.494 56.2022C106.14 55.469 105.689 54.7719 105.279 54.0689C105.071 53.7127 104.517 54.0351 104.725 54.3925C105.131 55.0896 105.556 55.7814 105.926 56.4985C105.932 56.5086 105.964 56.5797 105.948 56.5411C105.935 56.509 105.964 56.5925 105.97 56.611C105.999 56.7102 106.022 56.8105 106.044 56.9113C106.104 57.1916 106.153 57.4743 106.207 57.7554C106.283 58.1501 106.365 58.5436 106.458 58.9351C106.554 59.3422 106.642 59.7614 106.847 60.1308C107.096 60.5806 107.549 60.9467 108.087 60.9034C108.589 60.8632 108.995 60.5119 109.177 60.0529C109.383 59.5317 109.396 58.9146 109.409 58.3621C109.427 57.6056 109.384 56.8455 109.288 56.095C109.064 54.3616 108.406 52.6145 107.058 51.44C106.747 51.169 106.292 51.6207 106.603 51.8925Z" fill="#DE9A85"/>
<path d="M111.442 69.6034C111.567 69.8568 111.71 70.1005 111.87 70.333C111.917 70.4025 111.978 70.4575 112.061 70.4804C112.138 70.5017 112.24 70.492 112.308 70.4479C112.377 70.4037 112.437 70.3378 112.455 70.2563C112.474 70.1756 112.472 70.08 112.423 70.0094C112.264 69.7769 112.121 69.5332 111.996 69.2798C111.962 69.2107 111.876 69.1525 111.805 69.1324C111.728 69.1111 111.625 69.1208 111.558 69.1649C111.489 69.2091 111.429 69.275 111.41 69.3565C111.39 69.4436 111.403 69.5227 111.442 69.6034Z" fill="#DE9A85"/>
<path d="M105.05 56.8306C105.081 56.8166 105.112 56.8029 105.144 56.7897C105.118 56.8005 105.093 56.8113 105.067 56.8222C105.335 56.7097 105.614 56.6258 105.899 56.5724C105.974 56.5584 106.054 56.4889 106.091 56.4251C106.131 56.3564 106.148 56.2552 106.123 56.1781C106.098 56.1006 106.05 56.0255 105.976 55.9866C105.896 55.9444 105.818 55.9376 105.729 55.9541C105.381 56.0191 105.049 56.1319 104.726 56.2769C104.657 56.3078 104.598 56.399 104.579 56.4684C104.557 56.5451 104.567 56.6475 104.611 56.7154C104.655 56.784 104.721 56.8443 104.802 56.8627C104.892 56.8832 104.967 56.868 105.05 56.8306Z" fill="#DE9A85"/>
<path d="M115.548 53.842C115.979 53.8135 116.41 53.7846 116.842 53.7561C117.009 53.7448 117.171 53.6163 117.163 53.4357C117.155 53.2714 117.021 53.1032 116.842 53.1148C116.41 53.1437 115.979 53.1722 115.548 53.2012C115.381 53.2124 115.219 53.3409 115.227 53.522C115.234 53.6854 115.368 53.8537 115.548 53.842Z" fill="#DE9A85"/>
<path d="M112.587 40.4777C112.509 40.7792 112.445 41.084 112.393 41.3912C112.38 41.4659 112.381 41.5349 112.42 41.6024C112.454 41.6594 112.519 41.7136 112.584 41.7285C112.717 41.7586 112.896 41.6883 112.922 41.5369C112.973 41.2297 113.038 40.925 113.115 40.6234C113.151 40.4845 113.07 40.3195 112.924 40.2861C112.781 40.254 112.625 40.3291 112.587 40.4777Z" fill="#FCE8E1"/>
<path d="M109.898 52.124C110.093 52.1822 110.293 52.2267 110.494 52.2581C110.531 52.2693 110.567 52.2713 110.603 52.2629C110.64 52.2613 110.674 52.2504 110.705 52.2304C110.762 52.197 110.817 52.132 110.832 52.0665C110.848 51.9963 110.844 51.9176 110.804 51.8553C110.768 51.7995 110.709 51.7401 110.64 51.7292C110.438 51.6983 110.239 51.6534 110.043 51.5955C109.976 51.5755 109.892 51.5879 109.832 51.6232C109.775 51.6566 109.721 51.7216 109.706 51.7871C109.672 51.934 109.75 52.0802 109.898 52.124Z" fill="#FCE8E1"/>
<path d="M107.854 60.8187C108.249 61.0617 108.562 61.4467 108.863 61.8153C108.936 61.9041 109.002 61.986 109.065 62.0844C109.097 62.1346 109.128 62.186 109.154 62.239C109.16 62.2498 109.191 62.3193 109.174 62.2795C109.185 62.306 109.195 62.3329 109.205 62.3598C109.259 62.4931 109.313 62.6156 109.407 62.726C109.442 62.7666 109.48 62.8007 109.519 62.8368C109.523 62.8405 109.562 62.8806 109.563 62.8798C109.55 62.887 109.53 62.7834 109.547 62.8662C109.582 63.0356 109.782 63.134 109.941 63.0902C110.117 63.042 110.201 62.8657 110.165 62.6959C110.136 62.5534 110.041 62.4474 109.938 62.3522C109.865 62.2851 109.839 62.2281 109.805 62.1414C109.692 61.8583 109.533 61.6286 109.342 61.3929C108.999 60.9713 108.646 60.5537 108.178 60.2654C108.031 60.1747 107.825 60.2333 107.739 60.3802C107.65 60.5328 107.706 60.7276 107.854 60.8187Z" fill="#DE9A85"/>
<path d="M104.018 64.8869C103.996 65.2841 104.113 65.6972 104.344 66.0213C104.387 66.0807 104.435 66.1273 104.508 66.1474C104.574 66.1654 104.661 66.1574 104.719 66.1197C104.835 66.045 104.907 65.8695 104.817 65.7446C104.769 65.6764 104.725 65.6045 104.688 65.5294C104.678 65.5093 104.669 65.4888 104.659 65.4688C104.648 65.4419 104.65 65.4483 104.667 65.488C104.663 65.4776 104.659 65.4672 104.655 65.4567C104.64 65.4174 104.627 65.3776 104.616 65.3375C104.604 65.2973 104.594 65.2564 104.585 65.2154C104.581 65.1933 104.577 65.1712 104.573 65.1495C104.563 65.0945 104.581 65.2174 104.573 65.1475C104.563 65.0612 104.562 64.9745 104.566 64.8878C104.574 64.7444 104.434 64.6071 104.292 64.6135C104.137 64.6199 104.027 64.7332 104.018 64.8869Z" fill="#FCE8E1"/>
<path d="M116.997 67.9281C116.975 68.0048 116.948 68.0799 116.917 68.1537C116.928 68.128 116.939 68.1027 116.949 68.077C116.881 68.2364 116.793 68.3866 116.688 68.5239C116.705 68.5023 116.721 68.4806 116.738 68.4593C116.708 68.4978 116.677 68.5352 116.644 68.5717C116.588 68.6356 116.551 68.7111 116.551 68.7986C116.551 68.8773 116.585 68.9713 116.644 69.0255C116.706 69.0817 116.786 69.123 116.871 69.1194C116.953 69.1158 117.041 69.0889 117.098 69.0255C117.337 68.7572 117.515 68.4436 117.616 68.0987C117.663 67.9377 117.559 67.7422 117.392 67.7044C117.22 67.6651 117.048 67.7558 116.997 67.9281Z" fill="#DE9A85"/>
<path d="M111.953 79.4955C111.666 79.1365 111.177 78.9205 110.718 78.9603C110.238 79.0016 109.808 79.2626 109.554 79.673C109.472 79.8071 109.521 80.0103 109.662 80.085C109.81 80.1629 109.986 80.1203 110.074 79.9769C110.084 79.9605 110.095 79.944 110.106 79.928C110.105 79.9288 110.152 79.8665 110.134 79.8882C110.117 79.9087 110.153 79.8669 110.157 79.8629C110.17 79.8485 110.183 79.8344 110.197 79.8207C110.228 79.7898 110.26 79.7605 110.294 79.7332C110.269 79.7529 110.289 79.738 110.303 79.728C110.323 79.7143 110.343 79.7011 110.364 79.6886C110.402 79.6662 110.44 79.6457 110.479 79.6268C110.497 79.6184 110.518 79.6123 110.488 79.6232C110.506 79.6164 110.524 79.6099 110.543 79.6039C110.584 79.5903 110.626 79.5794 110.669 79.5706C110.674 79.5694 110.731 79.5589 110.7 79.5638C110.666 79.569 110.748 79.5601 110.747 79.5601C110.787 79.5577 110.826 79.5573 110.866 79.5593C110.873 79.5597 110.95 79.5658 110.915 79.5622C110.886 79.5589 110.943 79.567 110.949 79.5682C110.993 79.5766 111.036 79.5875 111.079 79.6007C111.098 79.6067 111.117 79.6132 111.136 79.62C111.151 79.6256 111.176 79.6364 111.146 79.6236C111.187 79.6417 111.227 79.6629 111.265 79.6858C111.283 79.6959 111.299 79.7063 111.316 79.7175C111.328 79.726 111.372 79.7565 111.339 79.7316C111.41 79.7858 111.472 79.8521 111.527 79.9215C111.629 80.0488 111.847 80.0275 111.954 79.9215C112.079 79.7958 112.055 79.6228 111.953 79.4955Z" fill="#D8DBED"/>
<path d="M123.364 68.3105C123.095 65.8744 122.785 63.2828 121.272 61.2607C121.042 60.9539 120.519 61.2539 120.752 61.5647C122.202 63.5025 122.503 65.9739 122.762 68.3105C122.804 68.6915 123.407 68.6955 123.364 68.3105Z" fill="#797FAB"/>
<path d="M112.041 103.344C111.268 103.375 110.506 103.191 109.836 102.803C109.5 102.608 109.197 103.128 109.532 103.323C110.29 103.762 111.166 103.982 112.041 103.947C112.204 103.94 112.342 103.813 112.342 103.645C112.342 103.487 112.204 103.338 112.041 103.344Z" fill="#797FAB"/>
<path d="M109.269 86.6066C109.037 88.6601 108.804 90.7131 108.571 92.7666C108.528 93.1513 109.13 93.148 109.174 92.7666C109.406 90.7131 109.639 88.6601 109.871 86.6066C109.915 86.222 109.312 86.2252 109.269 86.6066Z" fill="#797FAB"/>
<path d="M117.763 80.2484C117.983 79.9192 118.182 79.5759 118.357 79.2205C118.393 79.147 118.409 79.0691 118.387 78.9884C118.368 78.9185 118.314 78.8431 118.249 78.8085C118.113 78.7367 117.911 78.7656 117.837 78.9165C117.662 79.2719 117.463 79.6152 117.243 79.9445C117.155 80.0758 117.213 80.2838 117.351 80.3564C117.502 80.4363 117.669 80.3886 117.763 80.2484Z" fill="#797FAB"/>
<path d="M126.044 76.5597C125.325 80.0651 124.683 83.5862 124.12 87.1201C124.06 87.4991 124.64 87.6626 124.701 87.2803C125.264 83.7464 125.905 80.2253 126.624 76.7195C126.702 76.3413 126.122 76.1795 126.044 76.5597Z" fill="#797FAB"/>
<path d="M111.896 129.208C111.374 128.608 110.979 127.897 110.74 127.141C110.691 126.986 110.53 126.886 110.369 126.93C110.217 126.973 110.11 127.145 110.159 127.301C110.431 128.162 110.877 128.953 111.47 129.634C111.576 129.757 111.786 129.744 111.896 129.634C112.017 129.512 112.002 129.331 111.896 129.208Z" fill="#D8DBED"/>
<path d="M105.353 77.809C105.23 77.7239 105.108 77.6363 104.988 77.5468C104.96 77.5259 104.931 77.5046 104.903 77.4834C104.889 77.4725 104.875 77.4621 104.861 77.4512C104.793 77.3998 104.887 77.4721 104.848 77.4416C104.789 77.3954 104.73 77.3492 104.672 77.3019C104.439 77.1135 104.212 76.9164 103.993 76.712C103.878 76.6044 103.68 76.5891 103.567 76.712C103.46 76.8289 103.444 77.0232 103.567 77.138C104.031 77.5705 104.527 77.9684 105.048 78.3294C105.178 78.4193 105.388 78.3575 105.46 78.2214C105.542 78.0676 105.492 77.905 105.353 77.809Z" fill="#D8DBED"/>
<path d="M114.309 82.936C114.662 82.8473 114.984 82.671 115.258 82.4341C115.314 82.3859 115.346 82.2928 115.346 82.2213C115.346 82.1474 115.313 82.0591 115.258 82.0085C115.2 81.9559 115.125 81.9165 115.045 81.9202C114.962 81.9238 114.895 81.9539 114.832 82.0085C114.804 82.0326 114.776 82.0563 114.747 82.0788C114.767 82.0631 114.787 82.0474 114.808 82.0318C114.672 82.1362 114.524 82.2225 114.366 82.2896C114.391 82.2795 114.414 82.2695 114.438 82.259C114.344 82.2984 114.248 82.3305 114.15 82.3554C113.997 82.394 113.89 82.5734 113.939 82.726C113.989 82.8838 114.145 82.9774 114.309 82.936Z" fill="#797FAB"/>
<path d="M149.358 45.3672C147.717 45.8816 145.722 45.3062 144.368 46.3674C143.918 46.7204 143.604 47.2151 143.311 47.7057C142.715 48.6995 142.163 49.7194 141.655 50.761C141.49 51.0999 141.327 51.4496 141.291 51.8251C141.244 52.3073 141.41 52.7831 141.593 53.2317C143.435 57.7397 147.225 61.3109 148.679 65.9587C149.634 63.1548 151.053 60.5099 152.861 58.1637C153.114 57.8361 153.387 57.5032 153.761 57.3257C154.164 57.1342 154.63 57.1482 155.075 57.1659C156.338 57.2161 157.601 57.2663 159.003 57.2651C160.676 59.9674 161.919 62.9355 162.669 66.0241C165.236 61.7281 168.706 57.9802 170.868 53.4669C171.061 53.0634 171.247 52.641 171.259 52.1937C171.272 51.7211 171.091 51.2665 170.903 50.8325C170.37 49.6006 169.762 48.4012 169.082 47.2436C168.718 46.6236 168.281 45.9723 167.599 45.745C167.237 45.6246 166.846 45.639 166.465 45.6547C164.805 45.7238 163.145 45.7924 161.732 46.0145C157.544 45.6587 153.339 45.4957 149.358 45.3672Z" fill="#A8B0E1"/>
<path d="M145.557 48.9239C145.573 49.6913 146.014 50.4265 146.45 51.03C147.083 51.9093 147.878 52.6739 148.724 53.3468C149.894 54.2768 151.203 55.0497 152.6 55.5854C153.252 55.8356 153.958 56.0713 154.643 56.1965C155.294 56.3154 156.082 56.7041 156.407 57.3116C156.644 56.725 157.258 56.3833 157.797 56.1174C159.005 55.522 160.334 55.2569 161.547 54.6767C163.01 53.9769 164.237 52.7751 165.216 51.5002C165.42 51.2348 165.615 50.9621 165.801 50.6835C166.16 50.1466 166.615 49.4889 166.709 48.8316C166.763 48.4574 166.683 40.6499 166.683 40.6499L145.614 40.7447C145.615 40.7455 145.477 45.125 145.557 48.9239Z" fill="#FFC6AD"/>
<path d="M175.16 23.5911C174.448 23.2915 173.857 23.9649 173.141 23.6935C172.814 21.7468 172.609 19.7797 172.526 17.8074C172.457 16.145 172.434 14.353 171.442 13.0171C170.652 11.9522 169.361 11.3643 168.065 11.0837C166.769 10.803 165.432 10.7869 164.116 10.6223C162.085 10.3685 160.107 9.76142 158.069 9.57029C155.778 9.35547 153.472 9.67148 151.208 10.0863C148.478 10.5866 145.72 11.2531 143.358 12.7119C140.997 14.1707 139.061 16.5474 138.75 19.3055C138.625 20.4153 138.762 21.5356 138.874 22.6467C138.895 22.8631 138.913 23.0948 138.809 23.2855C138.534 23.7919 137.365 23.2526 136.862 23.463C135.924 23.8573 135.945 24.984 136.124 25.9874C136.337 27.1728 136.997 28.4862 137.21 29.6743C137.374 30.5782 137.548 31.5126 138.063 32.2759C138.577 33.0364 139.343 33.7098 140.226 33.456C140.229 35.7704 141.107 37.6139 142.433 39.3859C143.882 41.3265 145.401 43.2189 146.983 45.0547C148.181 46.4449 149.461 47.8406 151.113 48.6469C153.268 49.6997 155.855 49.5973 156.782 49.5355C156.964 49.523 160.053 49.476 161.357 48.8392C163.014 48.0301 164.297 46.6296 165.5 45.2314C166.913 43.5875 168.242 41.8746 169.525 40.1287C170.738 38.4772 171.75 36.8181 172.177 33.5202C173.063 33.7736 173.89 33.2283 174.408 32.4678C174.922 31.7049 175.096 30.7701 175.258 29.8663C175.473 28.6781 175.685 27.4928 175.898 26.3071C176.077 25.304 176.097 23.9854 175.16 23.5911Z" fill="#FFC6AD"/>
<path d="M174.413 24.7466C174.532 24.6671 174.651 24.5876 174.77 24.5085C174.83 24.4687 174.889 24.429 174.949 24.3892C175.006 24.3511 175.062 24.3065 175.124 24.2764C175.1 24.2864 175.076 24.2965 175.052 24.3069C175.066 24.3017 175.077 24.2985 175.091 24.2965C175.064 24.3001 175.038 24.3037 175.011 24.3073C175.015 24.3073 175.02 24.3073 175.024 24.3073C174.997 24.3037 174.97 24.3001 174.944 24.2965C174.95 24.2977 174.956 24.2981 174.962 24.3001C174.938 24.2901 174.914 24.28 174.89 24.2696C174.891 24.2704 174.893 24.2712 174.895 24.2724C174.874 24.2567 174.854 24.2411 174.834 24.2254C174.834 24.2262 174.835 24.227 174.836 24.2278C174.82 24.2073 174.805 24.1873 174.789 24.1668C174.789 24.1676 174.79 24.1684 174.791 24.1692C174.781 24.1451 174.77 24.1214 174.76 24.0973C174.76 24.0985 174.761 24.0993 174.761 24.1005C174.757 24.074 174.754 24.0471 174.75 24.0206C174.75 24.0218 174.75 24.023 174.75 24.0242C174.754 23.9977 174.757 23.9708 174.761 23.9443C174.76 23.9467 174.76 23.9488 174.759 23.9512C174.769 23.9271 174.779 23.9034 174.789 23.8793C174.787 23.8833 174.785 23.8873 174.782 23.8909C174.798 23.8705 174.813 23.8504 174.829 23.8299C174.817 23.846 174.801 23.8588 174.785 23.8713C174.805 23.8556 174.825 23.8399 174.846 23.8243C174.774 23.8797 174.694 23.9243 174.615 23.968C174.449 24.06 174.279 24.1443 174.109 24.2266C174.044 24.2579 173.989 24.3394 173.97 24.4065C173.951 24.4788 173.959 24.5747 174.001 24.6386C174.042 24.7028 174.104 24.7595 174.181 24.7771C174.263 24.796 174.336 24.7835 174.413 24.7466C174.586 24.6631 174.758 24.5776 174.926 24.484C175.027 24.4278 175.123 24.368 175.213 24.2953C175.295 24.2286 175.352 24.131 175.352 24.023C175.352 23.9122 175.292 23.8086 175.198 23.7524C175.078 23.6809 174.927 23.6982 174.808 23.7628C174.751 23.7938 174.698 23.8339 174.645 23.8697C174.585 23.9094 174.526 23.9492 174.466 23.9889C174.347 24.0684 174.228 24.1475 174.109 24.2266C174.043 24.2704 173.992 24.329 173.97 24.4065C173.951 24.4788 173.959 24.5747 174.001 24.6386C174.042 24.7028 174.104 24.7595 174.181 24.7771C174.257 24.794 174.345 24.7916 174.413 24.7466Z" fill="#FCE8E1"/>
<path d="M137.373 24.4529C137.392 24.4473 137.411 24.442 137.43 24.438C137.442 24.4356 137.482 24.4348 137.489 24.4272C137.485 24.4316 137.444 24.432 137.475 24.4296C137.483 24.4288 137.492 24.428 137.501 24.4276C137.52 24.4264 137.54 24.4256 137.56 24.4256C137.58 24.4256 137.6 24.4264 137.619 24.4276C137.628 24.4284 137.637 24.4292 137.646 24.43C137.69 24.4336 137.612 24.424 137.638 24.4288C137.677 24.436 137.716 24.4432 137.754 24.4545C137.771 24.4593 137.788 24.4649 137.804 24.4709C137.807 24.4718 137.835 24.4798 137.835 24.4826C137.835 24.4814 137.794 24.4641 137.824 24.4778C137.859 24.4946 137.895 24.5127 137.928 24.5336C137.945 24.544 137.961 24.5561 137.977 24.5665C137.999 24.581 137.948 24.542 137.968 24.5589C137.975 24.5645 137.982 24.5701 137.989 24.5758C138.02 24.6031 138.05 24.6324 138.077 24.6641C138.147 24.7436 138.291 24.7404 138.361 24.6641C138.439 24.5794 138.435 24.4649 138.361 24.3802C138.097 24.0774 137.65 23.9534 137.267 24.0658C137.166 24.0951 137.093 24.2083 137.126 24.3127C137.159 24.4147 137.265 24.4842 137.373 24.4529Z" fill="#FCE8E1"/>
<path d="M137.78 23.4243C137.232 20.5272 136.809 17.9032 137.089 14.9679C137.622 9.38459 141.232 5.11507 146.407 2.97289C163.431 -4.07325 165.724 3.60611 165.805 3.68963H165.805C165.917 3.64626 172.889 1.68155 174.523 12.7796C175.04 16.2894 174.655 19.859 174.443 23.1785C174.441 23.3391 174.44 23.3717 174.438 23.5319C174.006 23.5877 173.715 23.8868 173.478 24.196C172.986 24.8373 172.684 25.603 172.594 26.4061C172.442 27.7488 172.253 29.0875 172.025 30.4198C171.988 30.6394 171.668 30.6455 171.626 30.4266C171.357 29.0245 171.787 27.744 171.408 26.4526C171.257 25.9419 171.014 25.4524 170.963 24.9224C170.849 23.7415 171.574 22.5353 171.624 21.3499C171.657 20.5786 169.975 16.8295 168.396 15.9164C166.621 14.89 159.519 16.3444 155.182 16.7873C152.385 16.4018 149.589 16.0167 146.793 15.6313C146.007 15.5229 145.189 15.4173 144.436 15.6686C143.659 15.928 143.05 16.5379 142.53 17.1679C141.731 18.1377 141.08 19.2226 140.601 20.3842C140.343 21.0078 140.319 21.6916 140.456 22.3542C140.594 23.0231 140.899 23.576 141.082 24.2277C141.18 24.5795 141.39 25.193 141.179 25.8889C140.145 29.3084 140.8 31.5256 140.237 30.8924C139.937 30.5547 139.722 29.0686 139.553 26.8887C139.501 26.2262 139.311 25.4175 139.115 24.7823C138.919 24.1458 138.464 23.472 137.78 23.4243Z" fill="#46413D"/>
<path d="M146.55 45.2343C147.565 46.4674 148.568 47.7893 149.878 48.7273C150.762 49.3597 151.768 49.6022 152.827 49.7745C154.308 50.0154 155.818 50.1086 157.317 50.0712C158.118 50.0511 158.917 49.9893 159.709 49.8737C160.42 49.7701 161.162 49.642 161.82 49.3476C162.665 48.9706 163.384 48.3169 164.02 47.658C164.722 46.9304 165.348 46.1338 165.959 45.3291C166.193 45.0203 165.67 44.72 165.439 45.0251C164.918 45.7118 164.381 46.3875 163.795 47.0196C163.236 47.6215 162.629 48.2073 161.915 48.6225C161.319 48.969 160.634 49.1087 159.962 49.2268C159.234 49.3545 158.497 49.4211 157.759 49.4537C156.291 49.5187 154.805 49.4569 153.35 49.2489C152.38 49.1099 151.345 48.9493 150.521 48.4342C149.09 47.5391 148.033 46.0928 146.977 44.8083C146.73 44.5088 146.306 44.9372 146.55 45.2343Z" fill="#DE9A85"/>
<path d="M150.551 40.2416C153.32 41.5643 156.667 41.9393 159.632 41.0909C160.381 40.8765 161.115 40.5753 161.765 40.1425C162.086 39.9288 161.785 39.4069 161.461 39.6225C159.978 40.6103 158.077 40.9339 156.323 40.9315C154.45 40.9291 152.549 40.5303 150.855 39.7213C150.507 39.5554 150.201 40.0746 150.551 40.2416Z" fill="#DE9A85"/>
<path d="M157.346 25.4192C157.152 26.0395 157.127 26.7302 157.49 27.2959C157.629 27.5128 157.976 27.3116 157.836 27.0932C157.529 26.6145 157.57 26.048 157.733 25.526C157.811 25.279 157.423 25.173 157.346 25.4192Z" fill="#DE9A85"/>
<path d="M154.501 25.2034C154.736 25.6427 154.729 26.157 154.576 26.6212C154.541 26.724 154.615 26.8404 154.716 26.8681C154.825 26.8983 154.929 26.8312 154.963 26.728C155.149 26.1622 155.132 25.5314 154.847 25.0006C154.725 24.7729 154.378 24.9757 154.501 25.2034Z" fill="#DE9A85"/>
<path d="M157.739 28.7134C157.668 29.6594 157.763 30.6135 158.014 31.5286C158.082 31.7775 158.469 31.6719 158.401 31.4217C158.159 30.5388 158.072 29.6265 158.141 28.7134C158.159 28.4556 157.758 28.4568 157.739 28.7134Z" fill="#DE9A85"/>
<path d="M160.261 25.3792C162.643 24.4729 165.343 24.2497 167.695 25.2362C167.777 25.2708 167.866 25.3145 167.899 25.4001C167.947 25.5229 167.852 25.6558 167.75 25.7349C167.236 26.1349 166.52 25.9534 165.884 25.8695C164.031 25.6241 162.208 26.3698 160.448 27.0243C160.03 27.1797 159.452 27.2728 159.242 26.8645C159.123 26.6336 159.064 26.4192 159.18 26.1867C159.376 25.7944 159.97 25.4904 160.261 25.3792Z" fill="#47403A"/>
<path d="M160.776 30.7605C162.422 31.3644 164.278 31.4812 165.841 30.5798C166.177 30.3863 165.874 29.8655 165.537 30.0598C164.109 30.883 162.431 30.728 160.936 30.1795C160.572 30.0457 160.415 30.6276 160.776 30.7605Z" fill="#CF7C65"/>
<path d="M152.334 25.3792C149.952 24.4729 147.252 24.2497 144.9 25.2362C144.818 25.2708 144.728 25.3145 144.695 25.4001C144.647 25.5229 144.742 25.6558 144.844 25.7349C145.358 26.1349 146.074 25.9534 146.71 25.8695C148.563 25.6241 150.386 26.3698 152.146 27.0243C152.564 27.1797 153.142 27.2728 153.352 26.8645C153.471 26.6336 153.531 26.4192 153.415 26.1867C153.218 25.7944 152.625 25.4904 152.334 25.3792Z" fill="#47403A"/>
<path d="M151.658 30.1793C150.164 30.7278 148.485 30.8828 147.058 30.0597C146.721 29.8657 146.418 30.3861 146.754 30.5797C148.317 31.4807 150.173 31.3639 151.819 30.7603C152.18 30.6278 152.023 30.0456 151.658 30.1793Z" fill="#CF7C65"/>
<path d="M174.806 25.5779C174.165 25.5024 173.553 25.8425 173.158 26.3308C172.704 26.8913 172.558 27.6088 172.48 28.3079C172.447 28.6046 172.365 28.9721 172.593 29.2142C172.688 29.3142 172.816 29.3672 172.944 29.4077C173.058 29.4435 173.184 29.4467 173.259 29.5511C173.389 29.7338 173.312 30.0064 173.182 30.1642C172.97 30.4208 172.627 30.5537 172.33 30.6814C171.975 30.834 172.282 31.3532 172.634 31.2014C173.158 30.9761 173.753 30.6685 173.892 30.0618C174.018 29.5105 173.752 29.0026 173.203 28.8532C173.026 28.8054 173.034 28.8323 173.05 28.6504C173.064 28.4782 173.08 28.3059 173.104 28.1349C173.151 27.7968 173.223 27.4506 173.364 27.1382C173.621 26.5685 174.151 26.1031 174.806 26.1806C175.19 26.2256 175.187 25.6228 174.806 25.5779Z" fill="#DE9A85"/>
<path d="M137.837 26.674C138.414 26.5568 138.755 27.1763 138.873 27.6405C139.017 28.1987 139.014 28.807 138.765 29.3346C138.543 29.8024 138.419 30.2172 138.656 30.7107C138.867 31.1471 139.277 31.4242 139.754 31.4724C140.14 31.5113 140.137 30.909 139.754 30.8701C139.347 30.8287 139.041 30.3645 139.137 29.975C139.205 29.7004 139.386 29.4587 139.464 29.1832C139.546 28.8949 139.578 28.5877 139.569 28.2886C139.538 27.2494 138.959 25.832 137.677 26.093C137.297 26.1705 137.458 26.7511 137.837 26.674Z" fill="#DE9A85"/>
<path d="M153.767 37.7222C155.209 39.0259 157.406 39.0123 158.828 37.6824C159.111 37.417 158.685 36.9918 158.402 37.2564C157.227 38.3558 155.388 38.3763 154.193 37.2961C153.906 37.0367 153.479 37.4616 153.767 37.7222Z" fill="#DE9A85"/>
<path d="M150.859 39.4861C150.556 39.7058 150.308 39.9949 150.155 40.337C150.132 40.388 150.119 40.4358 150.135 40.4916C150.148 40.5381 150.184 40.5887 150.227 40.6116C150.315 40.6578 150.456 40.6417 150.502 40.5398C150.535 40.4643 150.574 40.3912 150.617 40.3209C150.637 40.2868 150.66 40.2531 150.682 40.2201C150.694 40.2029 150.707 40.186 150.72 40.1687C150.741 40.1394 150.7 40.1936 150.715 40.1739C150.722 40.1659 150.729 40.1575 150.735 40.1491C150.786 40.0868 150.84 40.0274 150.898 39.972C150.929 39.9427 150.96 39.9146 150.992 39.8873C151.007 39.8748 151.022 39.8632 151.037 39.8511C151.056 39.8355 151.002 39.8768 151.031 39.8555C151.041 39.8479 151.051 39.8403 151.061 39.833C151.105 39.8013 151.139 39.7668 151.154 39.713C151.167 39.6648 151.161 39.601 151.134 39.5584C151.079 39.4741 150.949 39.4199 150.859 39.4861Z" fill="#DE9A85"/>
<path d="M161.303 39.7048C161.513 39.9084 161.733 40.1007 161.963 40.2814C162.007 40.3155 162.047 40.34 162.106 40.34C162.155 40.34 162.214 40.3179 162.248 40.2814C162.283 40.2432 162.309 40.193 162.306 40.1392C162.304 40.0899 162.288 40.0292 162.248 39.9971C162.018 39.8168 161.798 39.6241 161.588 39.4205C161.512 39.3474 161.378 39.3398 161.304 39.4205C161.231 39.5 161.223 39.6265 161.303 39.7048Z" fill="#DE9A85"/>
<path d="M158.042 43.2791C156.99 43.4939 155.904 43.473 154.846 43.3088C154.685 43.2839 154.521 43.3497 154.475 43.5192C154.436 43.6621 154.523 43.8645 154.685 43.8898C155.857 44.0713 157.036 44.0978 158.202 43.8601C158.581 43.7822 158.42 43.2016 158.042 43.2791Z" fill="#DE9A85"/>
<path d="M163.932 14.7926C164.619 14.2393 165.02 13.3945 165.076 12.5191C165.136 11.5928 164.758 10.7311 164.111 10.079C163.41 9.37352 162.488 8.91778 161.585 8.52949C160.544 8.08178 159.458 7.73445 158.337 7.55738C157.092 7.36062 155.825 7.37428 154.597 7.67382C154.346 7.73526 154.453 8.12234 154.704 8.0609C156.729 7.56661 158.841 7.9031 160.767 8.62907C162.326 9.21612 164.497 10.1557 164.67 12.069C164.753 12.9962 164.373 13.9245 163.648 14.5087C163.446 14.671 163.732 14.9532 163.932 14.7926Z" fill="#595450"/>
<path d="M165.833 10.8605C165.879 8.49184 164.393 6.35969 162.168 5.56345C161.924 5.47631 161.819 5.8642 162.061 5.95053C164.12 6.68735 165.474 8.67896 165.432 10.8605C165.427 11.1191 165.828 11.1191 165.833 10.8605Z" fill="#595450"/>
<path d="M160.328 15.8214C161.327 13.205 159.753 10.4548 157.415 9.21049C154.723 7.77781 151.565 8.13358 148.701 8.75435C147.028 9.11694 145.327 9.50281 143.804 10.3115C143.576 10.4328 143.778 10.7797 144.007 10.6584C145.301 9.9714 146.726 9.61404 148.145 9.2896C149.605 8.95592 151.083 8.65798 152.584 8.6118C155.159 8.5327 157.995 9.29843 159.454 11.5916C160.245 12.8347 160.472 14.3232 159.941 15.7146C159.849 15.9563 160.237 16.0611 160.328 15.8214Z" fill="#595450"/>
<path d="M156.271 16.4481C156.405 15.0515 155.695 13.6859 154.618 12.825C153.448 11.8899 151.952 11.5048 150.479 11.4297C149.493 11.3795 148.506 11.4618 147.526 11.5634C147.272 11.5899 147.269 11.9914 147.526 11.9649C149.428 11.7678 151.458 11.6361 153.245 12.4528C154.797 13.1619 156.041 14.6641 155.87 16.4485C155.845 16.7051 156.247 16.7035 156.271 16.4481Z" fill="#595450"/>
<path d="M147.349 15.2887C145.95 14.1335 143.929 13.9102 142.316 14.7434C142.086 14.8619 142.289 15.2088 142.518 15.0903C143.96 14.3459 145.812 14.5378 147.065 15.5726C147.263 15.736 147.548 15.4537 147.349 15.2887Z" fill="#595450"/>
<path d="M166.604 6.29299C168.538 5.76898 170.683 6.19461 172.259 7.43897C172.46 7.59757 172.746 7.31529 172.543 7.15508C170.851 5.81958 168.581 5.34135 166.497 5.90591C166.247 5.97337 166.353 6.36085 166.604 6.29299Z" fill="#595450"/>
<path d="M167.219 10.0259C168.721 9.68778 170.102 10.2142 171.34 11.0466C172.453 11.795 173.41 12.7651 174.154 13.8798C174.297 14.0938 174.645 13.8931 174.501 13.677C173.701 12.4801 172.675 11.4477 171.473 10.6535C170.842 10.2367 170.16 9.86847 169.426 9.67212C168.668 9.46934 167.876 9.46693 167.112 9.63879C166.86 9.69541 166.967 10.0829 167.219 10.0259Z" fill="#595450"/>
<path d="M167.26 11.3758C167.59 11.3441 167.919 11.3481 168.249 11.3669C168.573 11.3854 168.904 11.3991 169.223 11.4637C169.818 11.5846 170.352 11.8769 170.837 12.2331C171.046 12.386 171.247 12.0379 171.04 11.8865C170.53 11.5119 169.955 11.2039 169.33 11.0766C169.01 11.0116 168.68 10.9931 168.355 10.9722C167.99 10.9485 167.625 10.9393 167.26 10.9742C167.005 10.9987 167.003 11.4003 167.26 11.3758Z" fill="#595450"/>
<path d="M167.313 13.9586C167.778 13.8414 168.244 13.8679 168.693 14.0377C169.131 14.2036 169.517 14.4911 169.869 14.7942C170.063 14.9621 170.349 14.6794 170.152 14.5103C169.745 14.159 169.306 13.8426 168.799 13.6507C168.287 13.4563 167.736 13.4378 167.206 13.5716C166.956 13.6346 167.062 14.0221 167.313 13.9586Z" fill="#595450"/>
<path d="M165.815 5.3741C163.015 2.96289 158.934 2.74325 155.416 2.96971C154.229 3.04601 153.048 3.19899 151.88 3.42144C151.626 3.46963 151.734 3.85671 151.987 3.80852C153.983 3.42827 156.018 3.26524 158.05 3.32628C159.751 3.37767 161.472 3.59531 163.07 4.20845C163.964 4.55136 164.805 5.0324 165.531 5.65759C165.726 5.82583 166.011 5.54315 165.815 5.3741Z" fill="#595450"/>
<path d="M138.165 22.8148C138.955 22.151 139.679 21.4126 140.328 20.6103C140.397 20.526 140.411 20.4088 140.328 20.3265C140.258 20.2558 140.113 20.2417 140.044 20.3265C139.396 21.1287 138.671 21.8671 137.881 22.5309C137.798 22.6008 137.809 22.7429 137.881 22.8148C137.964 22.8971 138.082 22.8846 138.165 22.8148Z" fill="#595450"/>
<path d="M139.254 23.8265C139.642 23.7101 139.998 23.5065 140.297 23.233C140.375 23.162 140.375 23.0202 140.297 22.9492C140.214 22.8729 140.096 22.8733 140.013 22.9492C139.98 22.9797 139.945 23.0098 139.911 23.0387C139.902 23.0455 139.894 23.0524 139.886 23.0588C139.882 23.0616 139.855 23.0833 139.874 23.0676C139.894 23.0524 139.866 23.0736 139.863 23.076C139.854 23.0825 139.845 23.0889 139.837 23.0949C139.764 23.1483 139.687 23.1977 139.608 23.2427C139.57 23.264 139.533 23.284 139.495 23.3029C139.456 23.3222 139.413 23.3499 139.371 23.3603C139.386 23.3563 139.396 23.3503 139.374 23.3587C139.364 23.3627 139.355 23.3668 139.345 23.3708C139.325 23.3788 139.305 23.386 139.285 23.3933C139.239 23.4097 139.193 23.4246 139.148 23.4386C139.047 23.4687 138.973 23.5808 139.007 23.6856C139.04 23.7876 139.146 23.8586 139.254 23.8265Z" fill="#595450"/>
<path d="M172.091 22.0979C172.675 22.6047 173.311 23.0488 173.99 23.4182C174.218 23.5415 174.42 23.1949 174.193 23.0713C173.543 22.7183 172.933 22.2983 172.375 21.8137C172.293 21.7426 172.171 21.7333 172.091 21.8137C172.018 21.8867 172.009 22.0265 172.091 22.0979Z" fill="#595450"/>
<path d="M171.575 23.5999C171.869 23.8244 172.203 23.9922 172.556 24.1015C172.656 24.1324 172.779 24.0645 172.803 23.9613C172.827 23.8525 172.77 23.7477 172.662 23.7144C172.58 23.6887 172.499 23.659 172.418 23.6272C172.397 23.6184 172.398 23.6192 172.421 23.6289C172.411 23.6244 172.401 23.6204 172.391 23.616C172.372 23.6072 172.352 23.5983 172.332 23.5891C172.293 23.571 172.254 23.5518 172.216 23.5317C172.062 23.4518 171.916 23.3582 171.778 23.253C171.74 23.2237 171.668 23.2205 171.624 23.2329C171.577 23.2458 171.527 23.2819 171.504 23.3253C171.447 23.4313 171.486 23.5317 171.575 23.5999Z" fill="#595450"/>
<path d="M161.961 15.8036C162.478 15.3013 163.012 14.7777 163.313 14.1112C163.591 13.494 163.671 12.8074 163.554 12.1412C163.33 10.8716 162.313 9.85209 161.069 9.55696C160.818 9.49754 160.71 9.88462 160.962 9.94404C162.08 10.2091 162.968 11.1073 163.166 12.248C163.272 12.8568 163.178 13.5077 162.894 14.057C162.599 14.6263 162.132 15.0777 161.677 15.5198C161.492 15.7 161.776 15.9839 161.961 15.8036Z" fill="#595450"/>
<path d="M171.718 33.4791C171.716 33.6976 171.7 33.9156 171.671 34.132C171.674 34.1055 171.678 34.0786 171.681 34.0521C171.667 34.1573 171.649 34.2617 171.629 34.3657C171.613 34.446 171.617 34.5255 171.659 34.5978C171.696 34.6604 171.767 34.7199 171.839 34.7363C171.989 34.7705 172.177 34.6914 172.21 34.5259C172.278 34.1814 172.317 33.8305 172.321 33.4791C172.323 33.3213 172.181 33.1708 172.02 33.178C171.855 33.1856 171.721 33.3105 171.718 33.4791Z" fill="#DE9A85"/>
<path d="M139.851 32.6505C139.869 33.0151 139.901 33.3785 139.947 33.7403C139.958 33.8234 139.974 33.8917 140.036 33.9531C140.088 34.0053 140.174 34.0447 140.248 34.0415C140.326 34.0378 140.407 34.0126 140.461 33.9531C140.511 33.8985 140.559 33.8174 140.55 33.7403C140.503 33.3785 140.471 33.0151 140.453 32.6505C140.446 32.4935 140.32 32.3418 140.152 32.3494C139.995 32.3562 139.842 32.4819 139.851 32.6505Z" fill="#DE9A85"/>
<path d="M138.843 12.4255C140.693 9.71519 143.337 7.56657 146.373 6.31659C146.608 6.21942 146.505 5.83074 146.266 5.92951C143.126 7.22246 140.411 9.41805 138.496 12.2228C138.35 12.4368 138.698 12.638 138.843 12.4255Z" fill="#595450"/>
<path d="M139.305 9.99599C139.861 9.5025 140.417 9.00861 140.973 8.51513C141.054 8.44325 141.046 8.30472 140.973 8.23124C140.892 8.15053 140.77 8.15896 140.689 8.23124C140.133 8.72473 139.577 9.21861 139.021 9.7121C138.94 9.78398 138.947 9.9225 139.021 9.99599C139.101 10.0763 139.223 10.0679 139.305 9.99599Z" fill="#595450"/>
<path d="M141.765 14.2479C144.147 13.2786 146.736 12.9116 149.293 13.1819C149.55 13.2088 149.548 12.8072 149.293 12.7803C146.706 12.5073 144.069 12.8799 141.659 13.8608C141.422 13.9568 141.525 14.3455 141.765 14.2479Z" fill="#595450"/>
<path d="M166.953 47.4395C166.883 47.7278 166.802 48.0125 166.707 48.2931C166.612 48.5746 166.51 48.8356 166.402 49.0785C166.338 49.2219 166.355 49.409 166.51 49.4905C166.641 49.56 166.853 49.5359 166.922 49.3825C167.178 48.8067 167.386 48.2124 167.534 47.5993C167.57 47.4463 167.485 47.2656 167.323 47.2287C167.168 47.1937 166.992 47.2756 166.953 47.4395Z" fill="#797FAB"/>
<path d="M144.516 48.1165C144.626 48.7682 144.877 49.399 145.243 49.9499C145.329 50.0812 145.513 50.1495 145.655 50.0579C145.786 49.9736 145.856 49.7865 145.763 49.6459C145.411 49.1151 145.204 48.5935 145.096 47.9567C145.07 47.8009 144.87 47.6997 144.726 47.7463C144.558 47.8005 144.487 47.9498 144.516 48.1165Z" fill="#797FAB"/>
<path d="M191.716 180H155.413C155.196 178.647 154.907 177.35 154.478 176.225C154.43 176.101 153.486 176.354 153.45 176.225C153.269 177.402 153.096 178.683 152.928 180H117.316C118.307 172.021 119.09 163.898 121.17 156.153C122.564 150.965 125.535 145.909 125.957 140.513C126.089 138.798 125.905 135.767 126.27 134.084C138.111 135.184 148.672 135.486 161.814 135.462C165.62 135.454 180.598 135.245 185.657 133.875C185.625 135.59 185.34 137.55 185.621 139.228C186.014 141.553 187.034 143.858 187.584 146.162C188.231 148.881 188.496 151.539 189.178 154.273C191.23 162.493 191.736 171.423 191.716 180Z" fill="#484D6D"/>
<path d="M152.755 144.616C152.708 146.475 152.745 148.338 152.774 150.197C152.811 152.522 152.863 154.847 152.959 157.171C152.996 158.064 153.033 158.959 153.114 159.85C153.15 160.232 153.753 160.236 153.717 159.85C153.546 158 153.515 156.132 153.464 154.276C153.4 151.951 153.357 149.625 153.345 147.299C153.34 146.405 153.335 145.51 153.357 144.615C153.367 144.228 152.765 144.228 152.755 144.616Z" fill="#46413D"/>
<path d="M158.295 145.095C158.282 147.032 158.34 148.969 158.47 150.903C158.496 151.287 159.098 151.29 159.072 150.903C158.942 148.97 158.884 147.032 158.898 145.095C158.901 144.707 158.298 144.706 158.295 145.095Z" fill="#46413D"/>
<path d="M126.011 140.61C125.651 140.478 125.714 139.916 125.714 139.532C125.717 138.581 125.739 137.631 125.78 136.682C125.816 135.856 125.872 135.006 126.275 134.239C135.184 135.199 144.151 135.728 152.975 135.863C163.582 135.773 171.398 136.188 182.071 135.035C182.774 134.959 185.192 134.553 185.688 134.177C185.69 134.196 186.512 138.544 186.088 140.879C181.9 142.14 177.473 142.322 173.102 142.494C168.487 142.676 163.873 142.858 159.204 143.123C150.987 143.641 142.751 142.818 134.559 141.996C131.677 141.706 129.407 141.848 126.011 140.61Z" fill="#46413D"/>
<path d="M160.123 135.406C156.829 135.329 153.567 135.287 150.264 135.339C149.742 135.348 149.296 135.634 149.225 136.016C148.8 138.297 148.812 140.659 149.115 143.023C149.166 143.42 149.614 143.724 150.154 143.735C153.624 143.807 157.643 143.797 160.994 143.607C161.44 143.581 161.981 143.474 162.011 142.672C162.082 140.755 162.1 138.879 162.148 136.979C162.17 136.133 161.266 135.433 160.123 135.406ZM160.206 142.474C160.205 142.501 155.085 142.474 151.139 142.478C150.709 140.563 150.939 138.43 151.055 136.534C153.798 136.34 157.351 136.251 160.07 136.563C160.123 137.849 160.123 138.796 160.249 139.78C160.277 139.998 160.219 142.153 160.206 142.474Z" fill="#86807B"/>
<path d="M157.898 138.999C158.704 138.915 159.514 138.86 160.324 138.835C160.497 138.83 160.676 138.827 160.836 138.892C161.048 138.978 161.206 139.19 161.217 139.419C161.227 139.647 161.083 139.878 160.868 139.958C160.769 139.995 160.663 140 160.557 140.006C159.873 140.042 159.189 140.078 158.505 140.114C158.277 140.126 158.016 140.126 157.863 139.956C157.771 139.854 157.74 139.711 157.713 139.575C157.684 139.428 157.658 139.261 157.746 139.138C157.837 139.01 158.014 138.984 158.171 138.969C158.503 138.937 158.833 138.905 157.898 138.999Z" fill="#86807B"/>
<path d="M163.938 123.833C163.92 123.254 163.902 122.653 163.882 122.033C163.818 120.057 163.741 117.88 163.659 115.63C163.636 115.02 163.613 114.406 163.59 113.786C163.523 112.055 163.452 110.302 163.377 108.581C163.352 107.984 163.323 107.391 163.298 106.804C163.19 104.454 163.075 102.206 162.955 100.201C162.937 99.9401 162.922 99.6839 162.906 99.4305C162.886 99.0952 162.865 98.7624 162.845 98.4267C162.73 96.6061 162.617 94.8012 162.494 93.0088C162.451 92.3944 162.407 91.7825 162.361 91.1706C162.212 89.1838 162.048 87.2146 161.849 85.2535C161.787 84.6392 161.723 84.0268 161.651 83.4153C161.423 81.3876 161.155 79.3698 160.827 77.3573C160.738 76.8044 160.645 76.2487 160.546 75.6958C160.202 73.7728 159.8 71.8551 159.327 69.9322C159.191 69.3792 159.05 68.8235 158.899 68.2706C158.671 67.4137 158.429 66.5609 158.171 65.7124C158.042 65.2848 157.918 64.8531 157.77 64.4311C157.653 64.0951 157.455 63.8329 157.581 63.4562C157.763 62.9182 158.609 62.5014 159.035 62.1681C159.629 61.7035 160.224 61.2389 160.817 60.774C160.397 60.0444 159.957 59.3248 159.496 58.6205C159.404 58.4772 159.312 58.3338 159.217 58.1929C159.002 57.8729 158.754 57.5348 158.444 57.3171C158.272 57.1943 158.085 57.1099 157.87 57.0814C157.215 57.0023 156.613 57.5219 155.952 57.5167C155.558 57.5143 155.187 57.3248 154.792 57.2939C153.983 57.2348 153.295 57.8492 152.772 58.4691C152.145 59.2116 151.605 60.0235 151.159 60.8864C151.379 61.0759 151.607 61.2654 151.84 61.4497C152.317 61.8312 152.824 62.1974 153.349 62.5303C153.451 62.5941 153.553 62.6584 153.656 62.7198C153.887 62.8587 154.16 62.9788 154.286 63.2301C154.576 63.8027 154.299 64.4131 154.145 64.9828C153.983 65.5827 153.826 66.1842 153.674 66.7869C153.303 68.2554 152.965 69.7322 152.657 71.2155C152.535 71.8069 152.412 72.4241 152.289 73.069C151.83 75.4986 151.387 78.2869 151.009 81.4594C150.922 82.1866 150.84 82.9319 150.76 83.7C150.632 84.9468 150.514 86.2477 150.409 87.6021C150.345 88.4469 150.284 89.2175 150.23 89.927C150.166 90.7256 150.11 91.4452 150.059 92.1085C149.884 94.3696 149.767 95.9593 149.69 97.6236C149.657 98.2817 149.631 98.9523 149.608 99.6823C149.56 101.265 149.526 103.121 149.498 105.725C149.496 105.863 149.496 106.004 149.493 106.147C149.488 106.638 149.48 107.138 149.47 107.642C149.427 109.821 149.342 112.11 149.234 114.366C149.203 115.032 149.171 115.692 149.134 116.348C149.03 118.304 148.914 120.196 148.796 121.934C148.748 122.672 148.696 123.376 148.65 124.051C148.443 126.942 148.256 129.185 148.169 130.196C148.135 130.58 148.117 130.788 148.117 130.788L148.929 131.658L153.612 136.679L154.7 137.847L155.504 138.709L159.634 135.089C159.637 135.086 163.72 131.504 163.72 131.504L164.155 131.123C164.155 131.123 164.076 128.145 163.938 123.833Z" fill="#484D6D"/>
<path d="M134.261 134.961C135.104 134.786 135.331 134.895 136.149 135.108C135.791 135.861 135.755 140.187 136.04 142.869C135.429 143.114 135.108 143.146 134.314 142.886C134.006 140.815 134.071 136.535 134.261 134.961Z" fill="#484D6D"/>
<path d="M178.772 135.221C178.705 135.192 178.63 135.192 178.558 135.194C178.184 135.205 177.52 135.219 177.204 135.45C177.039 135.57 177.056 135.817 177.099 136.016C177.193 136.45 177.234 136.849 177.252 137.297C177.278 137.929 177.285 138.563 177.281 139.197C177.274 140.505 177.227 141.818 177.092 143.12C177.704 143.372 178.024 143.405 178.819 143.137C178.962 143.088 178.963 141.588 178.972 141.413C179.009 140.725 179.025 140.035 179.03 139.346C179.036 138.656 179.029 137.966 179.009 137.276C178.993 136.712 179.068 136.009 178.948 135.462C178.927 135.365 178.872 135.27 178.783 135.226C178.779 135.224 178.775 135.223 178.772 135.221Z" fill="#484D6D"/>
<path d="M159.496 58.6199C159.462 58.6327 159.426 58.6456 159.393 58.6584C158.53 59.0375 157.708 59.5008 156.917 60.0104C155.952 60.6404 155.773 60.8552 155.332 61.1728C154.674 61.6338 154.006 62.0743 153.348 62.53C152.823 62.1972 152.316 61.831 151.84 61.4495C152.027 61.3114 152.234 61.1933 152.4 61.0447C153.783 59.9542 155.301 59.068 156.82 58.1822C157.35 57.875 157.895 57.5907 158.443 57.3169C158.753 57.5345 159.001 57.8726 159.216 58.1926C159.311 58.3332 159.403 58.4765 159.496 58.6199Z" fill="#555C8A"/>
<path d="M159.326 69.932C159.298 69.942 159.27 69.95 159.245 69.9601C158.612 70.2006 157.987 70.4491 157.365 70.713C156.566 71.033 153.978 72.2235 152.288 73.0684C152.411 72.4231 152.534 71.8059 152.657 71.2145C152.692 71.1964 152.731 71.1759 152.767 71.1583C154.339 70.3492 155.903 69.5196 157.537 68.8358C157.995 68.6667 158.435 68.4234 158.899 68.27C159.05 68.8229 159.191 69.3787 159.326 69.932Z" fill="#555C8A"/>
<path d="M160.827 77.3569C157.14 79.1541 153.589 81.3818 150.759 83.6991C150.839 82.931 150.921 82.1861 151.008 81.4589C153.97 79.2059 157.184 77.2934 160.546 75.6953C160.645 76.2482 160.737 76.804 160.827 77.3569Z" fill="#555C8A"/>
<path d="M161.849 85.2533C158.582 86.7586 153.666 89.4959 150.058 92.1075C150.109 91.4445 150.165 90.725 150.229 89.9259C153.758 87.4986 157.549 85.4657 161.375 83.5508C161.464 83.5046 161.557 83.456 161.651 83.415C161.723 84.0266 161.787 84.6385 161.849 85.2533Z" fill="#555C8A"/>
<path d="M162.494 93.0086C158.059 94.9572 153.699 97.0845 149.607 99.6809C149.63 98.9513 149.656 98.2803 149.689 97.6222C153.694 95.1026 158.052 93.1186 162.36 91.1699C162.407 91.7823 162.45 92.3942 162.494 93.0086Z" fill="#555C8A"/>
<path d="M162.954 100.201C158.274 102.331 153.701 104.722 149.469 107.641C149.479 107.137 149.487 106.637 149.492 106.146C149.494 106.002 149.494 105.861 149.497 105.723C153.721 102.907 158.241 100.556 162.844 98.4263C162.865 98.7616 162.885 99.0944 162.906 99.4301C162.921 99.6835 162.937 99.9393 162.954 100.201Z" fill="#555C8A"/>
<path d="M163.377 108.581C163.338 108.596 163.3 108.612 163.262 108.627C159.019 110.424 153.757 113.272 149.133 116.347C149.169 115.691 149.202 115.031 149.233 114.368V114.365C153.711 111.485 158.364 108.824 163.297 106.804C163.323 107.39 163.352 107.984 163.377 108.581Z" fill="#555C8A"/>
<path d="M163.659 115.63C158.848 117.675 153.012 120.994 148.65 124.051C148.696 123.374 148.747 122.67 148.796 121.933C150.611 120.691 152.485 119.539 154.38 118.425C157.34 116.664 160.42 115.128 163.59 113.786C163.612 114.406 163.636 115.02 163.659 115.63Z" fill="#555C8A"/>
<path d="M163.938 123.833C163.628 123.979 163.308 124.128 162.988 124.281C158.443 126.455 153.071 128.98 148.929 131.658L148.117 130.788C148.117 130.788 148.135 130.58 148.169 130.196C148.606 129.914 149.049 129.638 149.495 129.364C152.421 127.554 155.512 126.043 158.605 124.545C160.361 123.708 162.107 122.835 163.882 122.034C163.902 122.653 163.92 123.255 163.938 123.833Z" fill="#555C8A"/>
<path d="M163.72 131.504L159.636 135.086C159.636 135.086 159.636 135.086 159.634 135.088C158.602 135.613 157.565 136.169 156.564 136.719C155.929 137.07 155.314 137.459 154.7 137.846L153.612 136.678C154.431 136.169 155.245 135.647 156.095 135.194C158.571 133.834 161.124 132.62 163.72 131.504Z" fill="#555C8A"/>
<path d="M167.807 46.9732C167.807 47.1965 167.807 47.4201 167.807 47.6434C167.807 47.7205 167.841 47.8016 167.895 47.8562C167.948 47.9084 168.033 47.9477 168.108 47.9445C168.186 47.9409 168.267 47.9156 168.321 47.8562C168.375 47.7972 168.409 47.7249 168.409 47.6434C168.409 47.4201 168.409 47.1965 168.409 46.9732C168.409 46.8961 168.376 46.815 168.321 46.7604C168.269 46.7082 168.183 46.6688 168.108 46.6721C168.03 46.6757 167.95 46.701 167.895 46.7604C167.841 46.819 167.807 46.8917 167.807 46.9732Z" fill="#D8DBED"/>
<path d="M168.131 84.5092C171.84 84.5976 175.553 84.4723 179.248 84.1286C180.304 84.0302 181.358 83.9138 182.409 83.7809C182.789 83.7331 182.794 83.13 182.409 83.1786C178.728 83.6439 175.021 83.8969 171.311 83.931C170.251 83.9407 169.191 83.9322 168.131 83.9069C167.743 83.8981 167.743 84.5004 168.131 84.5092Z" fill="#797FAB"/>
<path d="M167.61 84.1254C167.542 84.8373 167.587 85.554 167.731 86.2543C167.764 86.4137 167.952 86.5057 168.101 86.4647C168.267 86.4193 168.345 86.2539 168.312 86.0941C168.179 85.4484 168.15 84.7851 168.213 84.1254C168.228 83.9631 168.063 83.8242 167.911 83.8242C167.736 83.8242 167.626 83.9627 167.61 84.1254Z" fill="#797FAB"/>
<path d="M168.751 88.7263C170.409 88.7199 172.066 88.6432 173.718 88.4958C174.101 88.4617 174.104 87.859 173.718 87.8935C172.066 88.0409 170.409 88.1176 168.751 88.124C168.364 88.1252 168.363 88.7275 168.751 88.7263Z" fill="#797FAB"/>
<path d="M180.814 87.7792C181.228 87.7515 181.643 87.7238 182.057 87.6961C182.214 87.6857 182.365 87.5652 182.358 87.395C182.351 87.2408 182.225 87.0826 182.057 87.0938C181.643 87.1215 181.228 87.1492 180.814 87.1769C180.657 87.1874 180.506 87.3078 180.513 87.4781C180.52 87.6323 180.646 87.7905 180.814 87.7792Z" fill="#797FAB"/>
<path d="M181.046 134.591C181.79 134.104 182.535 133.616 183.246 133.08C183.957 132.544 184.616 131.954 185.252 131.331C185.53 131.059 185.103 130.633 184.826 130.905C184.209 131.51 183.572 132.089 182.88 132.606C182.188 133.124 181.464 133.598 180.741 134.071C180.419 134.283 180.72 134.805 181.046 134.591Z" fill="#797FAB"/>
<path d="M138.205 134.427C137.505 133.779 137.025 132.963 136.514 132.168C135.963 131.311 135.319 130.52 134.706 129.707C134.476 129.402 133.953 129.701 134.186 130.011C134.816 130.846 135.475 131.659 136.038 132.542C136.558 133.356 137.064 134.191 137.779 134.853C138.063 135.116 138.49 134.691 138.205 134.427Z" fill="#797FAB"/>
<path d="M169.662 85.5823C170.624 85.555 171.585 85.5277 172.547 85.5004C172.934 85.4896 172.935 84.8873 172.547 84.8981C171.585 84.9254 170.624 84.9527 169.662 84.98C169.275 84.9909 169.274 85.5932 169.662 85.5823Z" fill="#D8DBED"/>
<path d="M157.755 57.3827C159.193 58.228 159.847 59.9441 160.568 61.364C160.978 62.1722 161.388 62.9809 161.798 63.7892C161.958 64.1048 162.111 64.4253 162.275 64.7393C162.398 64.9758 162.556 65.2259 162.792 65.3636C163.099 65.5431 163.427 65.45 163.68 65.2247C163.988 64.9497 164.275 64.6296 164.559 64.3289C165.181 63.6704 165.751 62.9492 166.313 62.2393C167.405 60.8588 168.359 59.3864 169.149 57.8128C169.595 56.9254 169.994 56.0155 170.384 55.1028C170.772 54.1933 171.145 53.2742 171.446 52.3314C171.564 51.9612 170.982 51.803 170.865 52.1712C170.353 53.7758 169.666 55.3385 168.946 56.8591C168.23 58.3697 167.387 59.8092 166.392 61.1532C165.877 61.8486 165.324 62.5152 164.766 63.1757C164.489 63.5033 164.211 63.8282 163.909 64.1333C163.78 64.2642 163.649 64.3931 163.521 64.5248C163.44 64.6076 163.263 64.8722 163.127 64.8581C162.954 64.84 162.809 64.4638 162.744 64.3325C162.583 64.0057 162.418 63.6804 162.253 63.3556C161.865 62.5903 161.476 61.8249 161.088 61.06C160.314 59.5334 159.604 57.7706 158.06 56.8628C157.724 56.6656 157.42 57.186 157.755 57.3827Z" fill="#797FAB"/>
<path d="M163.407 64.2637C163.533 64.1167 163.659 63.9697 163.785 63.8228C163.814 63.7955 163.835 63.7634 163.847 63.726C163.866 63.6903 163.875 63.6513 163.873 63.61C163.873 63.5361 163.84 63.4478 163.785 63.3972C163.727 63.3446 163.652 63.3052 163.572 63.3088C163.496 63.312 163.411 63.3369 163.359 63.3972C163.234 63.5441 163.108 63.6911 162.982 63.838C162.952 63.8653 162.932 63.8975 162.92 63.9348C162.901 63.9706 162.892 64.0095 162.893 64.0509C162.893 64.1247 162.926 64.2131 162.982 64.2637C163.039 64.3163 163.115 64.3556 163.195 64.352C163.271 64.3484 163.356 64.3239 163.407 64.2637Z" fill="#D8DBED"/>
<path d="M141.035 52.2238C142.397 55.5127 144.063 58.67 146.019 61.6446C146.506 62.3854 147.011 63.115 147.533 63.8325C147.798 64.1971 148.067 64.5589 148.341 64.9175C148.538 65.1757 148.718 65.5451 149.047 65.6543C149.874 65.9294 150.109 64.7079 150.228 64.1686C150.418 63.3085 150.767 62.4774 151.119 61.6719C151.892 59.9011 152.947 58.1275 154.791 57.3201C155.145 57.1651 154.838 56.6459 154.487 56.8001C152.971 57.4638 151.901 58.7941 151.144 60.226C150.741 60.9893 150.403 61.7895 150.096 62.5958C149.952 62.9753 149.801 63.3567 149.705 63.7518C149.623 64.0927 149.569 64.4457 149.445 64.7753C149.416 64.8536 149.336 65.0938 149.226 65.0773C149.135 65.0637 149.023 64.8284 148.971 64.7569C148.712 64.4063 148.443 64.0626 148.185 63.7109C147.688 63.0319 147.205 62.342 146.738 61.6418C145.796 60.2288 144.917 58.7736 144.107 57.2811C143.186 55.587 142.353 53.8452 141.615 52.064C141.469 51.7106 140.886 51.8652 141.035 52.2238Z" fill="#797FAB"/>
<path d="M136.134 142.724C136.063 146.71 135.607 150.682 134.77 154.58C134.689 154.958 135.269 155.119 135.351 154.74C136.199 150.791 136.664 146.763 136.736 142.724C136.743 142.336 136.141 142.336 136.134 142.724Z" fill="#46413D"/>
<path d="M130.053 143.396C128.283 147.284 126.262 151.056 124 154.68C123.362 155.701 122.705 156.711 122.03 157.709C121.812 158.031 122.334 158.333 122.55 158.013C124.943 154.475 127.106 150.782 129.017 146.961C129.556 145.884 130.074 144.796 130.573 143.7C130.732 143.35 130.213 143.043 130.053 143.396Z" fill="#46413D"/>
<path d="M182.546 144.893C183.348 148.312 185.46 151.181 187.352 154.068C187.9 154.904 188.433 155.75 188.921 156.622C189.111 156.96 189.631 156.657 189.441 156.318C187.758 153.311 185.511 150.632 184.076 147.485C183.672 146.6 183.349 145.68 183.126 144.732C183.038 144.355 182.457 144.515 182.546 144.893Z" fill="#46413D"/>
<path d="M155.522 175.728C154.536 175.728 153.551 175.728 152.565 175.728C152.426 175.728 152.286 175.728 152.147 175.728C151.76 175.728 151.759 176.33 152.147 176.33C153.132 176.33 154.118 176.33 155.104 176.33C155.243 176.33 155.383 176.33 155.522 176.33C155.909 176.33 155.91 175.728 155.522 175.728Z" fill="#46413D"/>
</svg>
