<svg width="287" height="244" viewBox="0 0 287 244" fill="none" xmlns="http://www.w3.org/2000/svg">
<path d="M82.5491 210.768H229.363C229.363 210.768 279.074 211.762 277.086 180.61C275.098 149.458 247.259 146.806 256.208 130.236C265.155 113.665 285.04 112.395 283.384 88.3401C281.726 64.2849 259.357 69.2561 243.366 56.6625C227.375 44.0689 220.581 10.9279 183.381 3.96813C146.18 -2.99165 94.1487 -1.33438 82.5497 13.2478C70.9507 27.83 69.9561 38.4761 48.4148 41.1068C26.8734 43.7376 2.34888 59.7195 12.9539 79.8983C23.5589 100.077 38.4724 98.5438 30.5187 122.012C22.5649 145.48 10.4022 167.022 25.5475 187.238C41.1776 208.103 54.3793 210.768 82.5491 210.768Z" fill="#9FC3FF"/>
<mask id="mask0_1469_2186" style="mask-type:luminance" maskUnits="userSpaceOnUse" x="10" y="0" width="274" height="211">
<path d="M82.5491 210.768H229.363C229.363 210.768 279.074 211.762 277.086 180.61C275.098 149.458 247.259 146.806 256.208 130.236C265.155 113.665 285.04 112.395 283.384 88.3401C281.726 64.2849 259.357 69.2561 243.366 56.6625C227.375 44.0689 220.581 10.9279 183.381 3.96813C146.18 -2.99165 94.1487 -1.33438 82.5497 13.2478C70.9507 27.83 69.9561 38.4761 48.4148 41.1068C26.8734 43.7376 2.34888 59.7195 12.9539 79.8983C23.5589 100.077 38.4724 98.5438 30.5187 122.012C22.5649 145.48 10.4022 167.022 25.5475 187.238C41.1776 208.103 54.3793 210.768 82.5491 210.768Z" fill="white"/>
</mask>
<g mask="url(#mask0_1469_2186)">
<path d="M16.3496 87.6499H39.9624V96.8468H73.766V88.396H88.6795V104.552H98.1249V87.6499L102.972 82.8033H106.327V110.517H113.784V97.3437H120.246V106.789H136.9V74.9741H142.865V88.893H150.819V78.7021C150.819 78.7021 151.813 66.7712 162.502 64.0371V106.789H175.675V101.072L179.403 97.3444H208.236V66.0263H216.189V106.79H227.872V66.7718H237.317V97.5929H254.716V110.766H260.681V102.813H283.052L269.878 130.651H18.8352L16.3496 87.6499Z" fill="#6DA4FF"/>
<path d="M165.732 -8.29297H162.418V130.899H165.732V-8.29297Z" fill="#76A2EC"/>
<path d="M275.097 -8.29297H271.783V130.899H275.097V-8.29297Z" fill="#76A2EC"/>
<path d="M31.5121 -8.29297H28.1982V130.899H31.5121V-8.29297Z" fill="#76A2EC"/>
<path d="M290.508 130.899H-5.27441V216.9H290.508V130.899Z" fill="#628CD2"/>
<path d="M270.789 128.91H22.2324V133.55H270.789V128.91Z" fill="#76A2EC"/>
<path opacity="0.25" d="M82.5487 210.768H229.363C229.363 210.768 279.074 211.762 277.086 180.61C276.524 171.794 273.89 165.262 270.607 160.05C239.155 165.341 183.558 184.401 133.917 174.645C88.7348 165.765 38.004 168.205 18.5264 169.638C19.1389 175.622 21.2354 181.484 25.5465 187.238C41.1773 208.103 54.3789 210.768 82.5487 210.768Z" fill="url(#paint0_linear_1469_2186)"/>
<path opacity="0.25" d="M276.872 186.111C264.259 183.638 236.082 186.387 213.124 191.546C183.629 198.175 132.923 187.238 86.5257 176.633C54.6657 169.351 30.9322 171.6 19.1875 173.725C20.2136 178.298 22.2214 182.799 25.5463 187.238C41.177 208.102 54.3787 210.768 82.5485 210.768H229.363C229.363 210.768 273.02 211.641 276.872 186.111Z" fill="url(#paint1_linear_1469_2186)"/>
<path d="M218.054 192.375H195.974V197.761H218.054V192.375Z" stroke="#696299" stroke-width="0.5" stroke-miterlimit="10"/>
<path d="M84.5781 154.098H62.498V159.483H84.5781V154.098Z" stroke="#696299" stroke-width="0.5" stroke-miterlimit="10"/>
<path d="M84.5781 185.167H62.498V190.553H84.5781V185.167Z" stroke="#696299" stroke-width="0.5" stroke-miterlimit="10"/>
<path d="M39.5898 154.098H17.5098V159.483H39.5898V154.098Z" stroke="#696299" stroke-width="0.5" stroke-miterlimit="10"/>
<path d="M231.89 185.747H209.81V191.132H231.89V185.747Z" stroke="#696299" stroke-width="0.5" stroke-miterlimit="10"/>
</g>
<mask id="mask1_1469_2186" style="mask-type:luminance" maskUnits="userSpaceOnUse" x="10" y="0" width="274" height="211">
<path d="M82.5491 210.768H229.363C229.363 210.768 279.074 211.762 277.086 180.61C275.098 149.458 247.259 146.806 256.208 130.236C265.155 113.665 285.04 112.395 283.384 88.3401C281.726 64.2849 259.357 69.2561 243.366 56.6625C227.375 44.0689 220.581 10.9279 183.381 3.96813C146.18 -2.99165 94.1487 -1.33438 82.5497 13.2478C70.9507 27.83 69.9561 38.4761 48.4148 41.1068C26.8734 43.7376 2.34888 59.7195 12.9539 79.8983C23.5589 100.077 38.4724 98.5438 30.5187 122.012C22.5649 145.48 10.4022 167.022 25.5475 187.238C41.1776 208.103 54.3793 210.768 82.5491 210.768Z" fill="white"/>
</mask>
<g mask="url(#mask1_1469_2186)">
<path d="M70.463 180.611L70.0906 185.292L67.9781 211.599H37.7799L35.6673 185.292L35.2949 180.611H70.463Z" fill="#6295CA"/>
</g>
<mask id="mask2_1469_2186" style="mask-type:luminance" maskUnits="userSpaceOnUse" x="10" y="0" width="274" height="211">
<path d="M82.5491 210.768H229.363C229.363 210.768 279.074 211.762 277.086 180.61C275.098 149.458 247.259 146.806 256.208 130.236C265.155 113.665 285.04 112.395 283.384 88.3401C281.726 64.2849 259.357 69.2561 243.366 56.6625C227.375 44.0689 220.581 10.9279 183.381 3.96813C146.18 -2.99165 94.1487 -1.33438 82.5497 13.2478C70.9507 27.83 69.9561 38.4761 48.4148 41.1068C26.8734 43.7376 2.34888 59.7195 12.9539 79.8983C23.5589 100.077 38.4724 98.5438 30.5187 122.012C22.5649 145.48 10.4022 167.022 25.5475 187.238C41.1776 208.103 54.3793 210.768 82.5491 210.768Z" fill="white"/>
</mask>
<g mask="url(#mask2_1469_2186)">
<path d="M70.463 180.611L70.0906 185.292H35.6673L35.2949 180.611H70.463Z" fill="#7AA8D9"/>
</g>
<mask id="mask3_1469_2186" style="mask-type:luminance" maskUnits="userSpaceOnUse" x="10" y="0" width="274" height="211">
<path d="M82.5491 210.768H229.363C229.363 210.768 279.074 211.762 277.086 180.61C275.098 149.458 247.259 146.806 256.208 130.236C265.155 113.665 285.04 112.395 283.384 88.3401C281.726 64.2849 259.357 69.2561 243.366 56.6625C227.375 44.0689 220.581 10.9279 183.381 3.96813C146.18 -2.99165 94.1487 -1.33438 82.5497 13.2478C70.9507 27.83 69.9561 38.4761 48.4148 41.1068C26.8734 43.7376 2.34888 59.7195 12.9539 79.8983C23.5589 100.077 38.4724 98.5438 30.5187 122.012C22.5649 145.48 10.4022 167.022 25.5475 187.238C41.1776 208.103 54.3793 210.768 82.5491 210.768Z" fill="white"/>
</mask>
<g mask="url(#mask3_1469_2186)">
<path opacity="0.27" d="M47.9868 180.611H35.2949L35.6673 185.292L37.7799 211.599H56.0253C54.0283 203.964 49.985 188.476 47.9868 180.611Z" fill="url(#paint2_linear_1469_2186)"/>
</g>
<mask id="mask4_1469_2186" style="mask-type:luminance" maskUnits="userSpaceOnUse" x="10" y="0" width="274" height="211">
<path d="M82.5491 210.768H229.363C229.363 210.768 279.074 211.762 277.086 180.61C275.098 149.458 247.259 146.806 256.208 130.236C265.155 113.665 285.04 112.395 283.384 88.3401C281.726 64.2849 259.357 69.2561 243.366 56.6625C227.375 44.0689 220.581 10.9279 183.381 3.96813C146.18 -2.99165 94.1487 -1.33438 82.5497 13.2478C70.9507 27.83 69.9561 38.4761 48.4148 41.1068C26.8734 43.7376 2.34888 59.7195 12.9539 79.8983C23.5589 100.077 38.4724 98.5438 30.5187 122.012C22.5649 145.48 10.4022 167.022 25.5475 187.238C41.1776 208.103 54.3793 210.768 82.5491 210.768Z" fill="white"/>
</mask>
<g mask="url(#mask4_1469_2186)">
<path d="M267.806 191.216L267.46 195.897L265.498 222.204H237.443L235.481 195.897L235.135 191.216H267.806Z" fill="#6295CA"/>
<path d="M267.806 191.216L267.46 195.897H235.481L235.135 191.216H267.806Z" fill="#7AA8D9"/>
<path opacity="0.27" d="M246.926 191.216H235.135L235.481 195.897L237.443 222.204H254.393C252.538 214.569 248.782 199.081 246.926 191.216Z" fill="url(#paint3_linear_1469_2186)"/>
</g>
<path d="M86.0062 153.98C85.5247 155.58 84.6469 157.487 83.0725 158.406C81.1686 159.516 80.3846 157.197 80.2395 155.301C77.4778 156.24 74.5845 157.625 72.1124 159.376C72.2498 161.432 72.1182 164.66 70.2304 166.277C68.6206 167.657 67.2362 166.892 66.3225 165.937C63.8003 171.097 63.7676 177.077 63.7676 177.077C69.2743 177.929 75.4873 175.566 80.5259 172.438C79.869 171.415 79.3406 169.725 81.3324 168.099C83.1617 166.607 85.2941 167.046 86.7633 167.675C87.4375 167.036 88.0366 166.411 88.5406 165.821C92.8903 160.725 97.2771 152.916 97.2771 152.916C97.2771 152.916 91.5039 153.375 86.0062 153.98Z" fill="url(#paint4_linear_1469_2186)"/>
<path d="M85.1874 160.276C73.0259 165.432 64.5309 176.322 61.5387 180.611H60.7617C63.542 176.553 72.2682 165.053 84.937 159.685C85.0975 159.614 85.2901 159.691 85.3544 159.852C85.425 160.019 85.3479 160.205 85.1874 160.276Z" fill="#328F6D"/>
<path d="M34.7987 146.466C33.4188 147.087 31.4135 147.015 29.2753 145.398C26.7891 143.518 30.2487 140.93 32.2836 139.676C30.7624 136.268 28.7276 132.713 26.1714 130.119C24.6451 131.452 22.2963 133.123 21.073 132.059C19.871 131.014 20.5478 128.487 21.2117 126.762C13.6818 123.617 0.5 123.318 0.5 123.318C3.04274 124.56 5.04097 130.899 6.15951 140.178C6.19933 140.506 6.25519 140.838 6.32068 141.172C7.57536 140.159 9.5723 139.169 11.6315 140.675C14.0247 142.426 10.8674 145.738 8.79214 147.544C10.2716 150.213 12.2171 152.825 14.277 155.102C15.348 153.432 17.2904 151.757 20.411 153.27C24.1487 155.08 22.616 159.064 21.3864 161.257C22.4356 161.891 23.3885 162.312 24.1795 162.466C29.2753 163.46 35.295 161.784 35.295 161.784C36.4682 159.859 36.4829 152.896 35.295 148.246C35.1634 147.729 34.9965 147.126 34.7987 146.466Z" fill="url(#paint5_linear_1469_2186)"/>
<path d="M42.6931 180.612H42.051C41.0365 174.203 35.9254 155.338 10.1898 132.3C10.0549 132.178 10.0421 131.979 10.1641 131.844C10.2797 131.715 10.4851 131.702 10.6136 131.818C36.5803 155.062 41.6915 174.152 42.6931 180.612Z" fill="#328F6D"/>
<path d="M60.0198 148.298C60.9817 146.94 63.7196 147.63 65.5182 148.257C66.4787 145.333 66.7908 141.548 66.8544 137.79C64.2821 137.281 61.1929 136.292 61.0966 134.462C60.9862 132.362 64.4124 132.032 66.8062 132.02C66.7542 129.987 66.6894 128.119 66.6894 126.598C66.6894 120.308 70.2935 114.495 70.2935 114.495C70.2935 114.495 59.3572 117.229 56.3656 120.584C56.0555 120.932 55.71 121.361 55.3434 121.852C56.2205 122.574 57.0051 123.72 57.5297 125.017C58.602 127.668 54.4688 130.402 54.4688 130.402L50.97 129.19C49.5561 132.092 48.2834 135.364 47.5546 138.599C49.1811 139.937 51.5132 142.446 50.9058 145.481L47.082 146.055C48.1165 153.658 53.6951 160.606 53.6951 160.606C53.6951 160.606 57.653 158.276 61.0928 154.837C61.0851 154.821 58.6136 150.283 60.0198 148.298Z" fill="url(#paint6_linear_1469_2186)"/>
<path d="M62.4562 121.454C53.9997 137.545 53.2549 171.423 53.2163 180.611H52.5742C52.6127 171.397 53.364 137.372 61.8912 121.159C61.9746 120.998 62.1673 120.94 62.3214 121.024C62.4819 121.107 62.5397 121.3 62.4562 121.454Z" fill="#328F6D"/>
<path d="M256.854 144.801L260.206 141.848C260.193 145.097 259.968 149.302 259.615 153.906C258.549 167.878 256.347 185.511 255.615 191.219H244.853C244.218 184.67 242.368 164.79 242.298 152.5C242.285 150.439 242.317 148.59 242.42 147.055C242.721 142.522 243.98 136.101 245.47 129.731L249.714 131.279L245.97 127.644C248.545 116.998 251.557 107.084 251.557 107.084C251.557 107.084 258.549 126.983 259.988 137.244C260.122 138.233 260.193 139.562 260.206 141.141C258.665 142.811 257.053 144.583 256.854 144.801Z" fill="url(#paint7_linear_1469_2186)"/>
<path d="M284.946 133.327L278.544 136.447H284.593C284.137 140.21 283.578 143.941 282.891 147.318L269.028 148.346C269.028 148.346 277.363 149.636 282.269 150.137C282.037 151.107 281.787 152.038 281.53 152.917C280.021 157.984 277.414 164.347 274.666 170.479L271.751 170.55L274.204 171.506C273.356 173.375 272.496 175.218 271.661 176.983L265.786 175.519L270.454 179.507C267.885 184.836 265.638 189.209 264.585 191.219H251.936C253.04 184.958 256.392 166.504 259.615 153.906C260.79 149.334 261.94 145.533 262.967 143.369C267.442 133.93 286.5 109.742 286.5 109.742C286.5 109.742 286.23 121.223 284.946 133.327Z" fill="url(#paint8_linear_1469_2186)"/>
<path d="M248.237 191.219H237.623C237.007 188.586 234.734 178.993 232.152 169.618L242.298 164.417L231.253 166.427C230.881 165.111 230.502 163.814 230.123 162.561L234.567 159.678L229.841 161.637C228.961 158.754 228.081 156.121 227.266 154.021C222.868 142.708 210.828 123.143 210.828 123.143C210.828 123.143 225.353 125.974 231.985 130.944C235.581 133.641 239.37 142.964 242.298 152.5C244.763 160.539 246.625 168.726 247.229 173.201C248.333 181.349 248.282 188.926 248.237 191.219Z" fill="url(#paint9_linear_1469_2186)"/>
<path d="M208.319 187.097H205.378V228.937H208.319V187.097Z" fill="#CFCFCF"/>
<path d="M208.319 207.482V187.097H205.378V212.553C206.322 210.927 207.315 209.216 208.319 207.482Z" fill="url(#paint10_linear_1469_2186)"/>
<path d="M220.202 227.332H193.495V229.368H220.202V227.332Z" fill="#344F6B"/>
<path d="M233.196 178.895H180.502V182.996H233.196V178.895Z" fill="#6295CA"/>
<path d="M184.358 182.996H221.707C222.827 181.664 224.171 180.069 225.174 178.895H186.478L184.358 182.996Z" fill="url(#paint11_linear_1469_2186)"/>
<path d="M198.069 182.996L200.058 187.097H213.639L215.628 182.996H198.069Z" fill="#344F6B"/>
<path d="M148.088 234.59C148.088 234.59 146.73 238.976 146.737 239.646C146.744 240.316 144.644 242.361 144.644 242.361C144.644 242.361 126.524 226.281 125.384 224.895L125.501 223.684C125.501 223.684 126.664 222.309 127.514 221.951C128.364 221.593 138.541 226.204 138.541 226.204L148.088 234.59Z" fill="url(#paint12_linear_1469_2186)"/>
<path d="M138.541 226.205C138.315 226.678 144.767 233.367 148.089 234.59L169.681 187.873L205.812 175.829L206.249 152.965L191.56 152.833C191.56 152.833 162.778 168.142 161.671 169.015C160.563 169.889 146.29 209.957 138.541 226.205Z" fill="url(#paint13_linear_1469_2186)"/>
<path d="M152 134.669L171.636 129.635L180.771 109.441L184.623 116.399L185.617 124.042L177.974 135.725L156.474 140.095L152 134.669Z" fill="url(#paint14_linear_1469_2186)"/>
<path d="M226.753 154.797C226.753 154.797 199.078 154.136 191.559 152.833C191.559 152.833 190.223 143.691 189.722 140.095C189.665 139.729 189.626 139.485 189.594 139.389C189.459 138.926 188.335 135.581 187.006 131.696C185.298 126.682 183.263 120.761 182.634 119.008C181.516 115.901 180.771 109.441 180.771 109.441C180.771 109.441 183.751 105.71 184.438 105.274C184.958 104.946 187.526 104.612 188.727 104.478C189.106 104.433 189.344 104.407 189.344 104.407L201.345 102.172C201.345 102.172 201.98 102.185 202.911 102.211C204.504 102.243 206.969 102.301 208.562 102.352C209.416 102.378 210.019 102.404 210.103 102.416C210.411 102.481 213.705 102.667 216.627 107.328C216.916 107.791 217.23 108.478 217.558 109.332C220.518 117.05 224.666 138.772 224.891 139.947C225.141 141.257 226.753 154.797 226.753 154.797Z" fill="url(#paint15_linear_1469_2186)"/>
<path d="M187.006 131.696C188.335 135.581 189.459 138.926 189.594 139.388C189.626 139.485 189.665 139.729 189.722 140.095C190.223 143.691 191.559 152.832 191.559 152.832C194.88 153.408 202.133 153.858 209.197 154.182L216.564 131.188L217.558 109.332L207.615 118.761L190.216 129.2L180.771 109.441C180.771 109.441 181.516 115.9 182.634 119.008C183.263 120.761 185.298 126.681 187.006 131.696Z" fill="#DAD7F6"/>
<path d="M202.911 102.211C202.146 104.118 200.272 108.548 198.358 110.995C195.873 114.16 191.706 115.034 191.706 115.034C191.706 115.034 188.354 112.607 188.104 110.372C187.93 108.818 188.418 106.031 188.726 104.478C189.105 104.433 189.343 104.407 189.343 104.407L201.344 102.172C201.344 102.172 201.98 102.185 202.911 102.211Z" fill="#FFD7CB"/>
<path d="M201.344 102.172C201.344 102.172 196.753 107.399 194.917 108.458C193.08 109.518 190.653 108.754 190.653 108.754L189.85 103.912L189.594 102.358L187.988 99.3469L197.973 93.5166L198.127 93.8377L199.013 95.6741C199.013 95.6741 200.073 100.406 201.344 102.172Z" fill="url(#paint16_linear_1469_2186)"/>
<path d="M198.127 93.8377C197.549 95.7768 196.271 99.6487 194.917 100.901C193.883 101.851 191.635 103.052 189.85 103.912L189.594 102.358L187.988 99.3469L197.973 93.5166L198.127 93.8377Z" fill="url(#paint17_linear_1469_2186)"/>
<path d="M197.739 69.679C197.739 69.679 199.081 69.2552 200.07 69.3965C201.059 69.5378 202.189 71.8686 202.683 72.6462C203.178 73.4231 204.308 79.9932 204.308 82.2534C204.308 84.5142 202.825 90.236 202.26 91.8606C201.695 93.4851 199.01 95.6753 199.01 95.6753L197.032 91.578L197.739 69.679Z" fill="#1A1F57"/>
<path d="M181.916 84.1605C181.916 84.1605 178.596 79.0037 178.525 77.3792C178.455 75.7547 181.987 75.4722 181.987 75.4722L185.519 79.7813L181.916 84.1605Z" fill="#1A1F57"/>
<path d="M198.104 85.8719C198.104 85.8719 199.952 83.7607 201.106 83.839C202.261 83.9174 202.184 86.889 201.645 87.8272C201.106 88.7653 197.95 90.7988 197.95 90.7988L198.104 85.8719Z" fill="url(#paint18_linear_1469_2186)"/>
<path d="M197.652 94.3194C196.529 96.5668 192.946 99.7965 191.636 100.567H191.629C191.449 100.683 191.308 100.74 191.231 100.74H187.379C186.736 100.74 182.884 96.8878 182.242 94.9615C181.6 93.0352 181.6 80.8352 181.6 80.8352C181.889 75.5956 188.438 73.8105 192.246 73.8105C196.06 73.8105 198.211 76.4624 198.872 79.7757C198.962 80.238 199.033 80.8031 199.078 81.4452C199.36 85.3941 198.757 92.1105 197.652 94.3194Z" fill="url(#paint19_linear_1469_2186)"/>
<path d="M185.68 81.6635C189.968 80.5449 195.621 76.178 195.621 76.178L193.769 73.9711C193.294 73.8696 192.788 73.8105 192.246 73.8105C188.438 73.8105 181.889 75.5956 181.6 80.8352C181.6 80.8352 181.6 81.2628 181.604 81.9704C182.744 82.0963 184.129 82.068 185.68 81.6635Z" fill="url(#paint20_linear_1469_2186)"/>
<path d="M197.652 94.3195C196.529 96.5669 192.946 99.7967 191.636 100.567C192.271 99.5848 195.418 94.6663 196.368 92.1043C197.428 89.2469 197.672 81.6636 197.672 81.6636L199.078 81.4453C199.36 85.3943 198.757 92.1107 197.652 94.3195Z" fill="url(#paint21_linear_1469_2186)"/>
<path d="M182.693 80.2752C182.693 80.2752 179.514 79.2863 178.667 77.6618C177.819 76.0373 179.867 70.0323 185.448 68.4078C191.028 66.7833 193.219 66.7833 194.914 67.3483C196.609 67.9134 197.74 69.6798 197.74 69.6798C197.74 69.6798 198.799 74.3421 199.364 77.945C199.929 81.5478 199.647 84.4437 199.294 85.6451C198.94 86.8458 198.234 88.0472 198.234 88.0472L197.175 88.2591C197.175 88.2591 197.952 81.831 197.175 79.4995C196.398 77.1687 195.621 76.1792 195.621 76.1792C195.621 76.1792 192.088 78.4394 190.111 79.1463C188.132 79.8514 184.812 80.699 182.693 80.2752Z" fill="#36336A"/>
<path d="M174.8 138.272H155.979L157.906 136.846C157.906 136.846 163.871 134.791 165.052 134.547C166.227 134.297 172.032 134.624 172.032 134.624L172.552 135.106L172.796 135.344C173.881 136.454 174.479 137.469 174.8 138.272Z" fill="url(#paint22_linear_1469_2186)"/>
<path d="M174.8 138.272C174.586 137.737 174.245 137.106 173.723 136.417C172.838 136.515 172.01 136.657 172.01 136.657C172.01 136.657 169.338 136.657 167.598 136.657C165.858 136.657 162.503 137.091 162.503 137.091L164.492 135.662C164.492 135.662 163 135.848 161.944 136.284C160.887 136.718 159.955 136.968 159.147 137.34C158.625 137.581 157.148 138.002 156.164 138.271H174.8V138.272Z" fill="url(#paint23_linear_1469_2186)"/>
<path d="M217.557 109.332C217.127 111.785 213.275 118.803 211.714 121.622C210.058 124.601 199.039 140.095 199.039 140.095H175.179C175.179 140.095 175.249 139.389 174.8 138.271C174.479 137.469 173.881 136.454 172.796 135.343L172.552 135.106C172.392 134.945 172.218 134.785 172.032 134.624C172.032 134.624 180.425 132.846 187.006 131.696C190.063 131.163 192.727 130.759 193.986 130.733C193.986 130.733 203.097 107.039 204.677 105.383C205.698 104.31 206.751 103.026 208.562 102.352C209.416 102.378 210.019 102.403 210.103 102.416C210.411 102.48 213.705 102.667 216.626 107.328C216.915 107.791 217.23 108.478 217.557 109.332Z" fill="url(#paint24_linear_1469_2186)"/>
<path d="M200.432 233.635C200.432 233.635 201.738 237.757 202.069 238.28C202.4 238.804 201.738 242.046 201.738 242.046C201.738 242.046 179.616 243.406 178.042 243.197L177.545 242.151C177.545 242.151 177.793 240.164 178.29 239.222C178.787 238.281 188.532 234.335 188.532 234.335L200.432 233.635Z" fill="url(#paint25_linear_1469_2186)"/>
<path d="M188.532 234.334C188.532 234.334 169.112 184.564 169.681 177.576C169.681 177.576 174.263 166.395 175.508 165.347C176.753 164.299 204.31 154.227 204.31 154.227L226.753 155.313C226.753 155.313 227.614 168.092 227.753 171.935C227.892 175.779 221.977 178.522 218.102 180.094C214.228 181.667 186.613 181.836 186.613 181.836L200.432 233.635C200.432 233.635 192.702 235.189 188.532 234.334Z" fill="#394984"/>
<path d="M223.151 168.499C223.151 168.499 212.711 172.265 208.734 173.206C204.757 174.147 186.612 181.836 186.612 181.836C186.612 181.836 215.05 181.425 218.925 179.853C222.799 178.28 227.401 175.537 227.263 171.694C227.125 167.85 226.753 155.313 226.753 155.313L204.309 154.227L221.783 160.81L223.151 168.499Z" fill="url(#paint26_linear_1469_2186)"/>
<path d="M178.161 196.742L175.179 182.568L169.727 177.463C169.698 177.535 169.68 177.577 169.68 177.577C169.385 181.201 174.466 196.331 179.427 210.057L178.161 196.742Z" fill="url(#paint27_linear_1469_2186)"/>
<path d="M183.381 138.271H155.979V140.095H183.381V138.271Z" fill="#CFCFCF"/>
<path d="M150.842 112.94H111.623L118.21 140.095H157.428L150.842 112.94Z" fill="#A3A3A3"/>
<path d="M149.888 112.94H110.67L117.257 140.095H156.474L149.888 112.94Z" fill="url(#paint28_linear_1469_2186)"/>
<path opacity="0.53" d="M116.078 135.236L137.646 128.081L146.385 112.94H110.67L116.078 135.236Z" fill="url(#paint29_linear_1469_2186)"/>
<path d="M252.894 140.099H56.0371V144.739H252.894V140.099Z" fill="#2A4A80"/>
<path d="M146.977 140.099H56.0371V144.739H152.04C150.312 143.15 148.618 141.598 146.977 140.099Z" fill="#475F87"/>
<path d="M243.365 144.739H65.5645V146.976H243.365V144.739Z" fill="#3F64A4"/>
<path d="M235.613 149.544L235.177 146.976H232.454H75.8447H73.1222L72.6856 149.544L60.0811 242.618H62.9063L75.4145 149.544H232.884L245.393 242.618H248.218L235.613 149.544Z" fill="#CFCFCF"/>
<path d="M97.8752 126.597H86.0283V140.178H97.8752V126.597Z" fill="white"/>
<path d="M101.117 129.45C100.345 128.863 99.1682 128.621 97.875 128.791V129.906C97.9058 129.9 97.9424 129.895 97.9732 129.889C98.2121 129.851 98.4452 129.834 98.6719 129.834C99.3518 129.834 99.9406 129.993 100.327 130.285C100.682 130.554 100.854 130.933 100.854 131.438C100.854 132.954 99.3152 134.948 97.875 135.365V136.492C97.9238 136.492 97.9732 136.481 98.022 136.47C100.069 136.025 102.079 133.531 102.079 131.439C102.079 130.614 101.749 129.928 101.117 129.45Z" fill="url(#paint30_linear_1469_2186)"/>
<path d="M93.8181 124.871C93.8181 124.871 91.4982 123.463 92.4093 121.143C93.3205 118.823 94.5636 117.083 93.8181 115.384C93.8181 115.384 95.4754 116.337 95.0195 118.243C94.5636 120.149 92.8241 122.096 93.8181 124.871Z" fill="url(#paint31_linear_1469_2186)"/>
<path d="M90.584 122.199C90.584 122.199 87.8518 120.335 89.4526 117.353C90.8215 114.803 91.4142 111.594 88.8047 109.15C88.8047 109.15 93.8844 110.792 92.2432 114.535C90.2552 119.071 89.6336 119.838 90.584 122.199Z" fill="url(#paint32_linear_1469_2186)"/>
<path d="M148.679 52.3673C151.132 52.3673 153.121 49.5726 153.121 46.1253C153.121 42.6779 151.132 39.8833 148.679 39.8833C146.226 39.8833 144.237 42.6779 144.237 46.1253C144.237 49.5726 146.226 52.3673 148.679 52.3673Z" fill="#D8DEE8"/>
<path d="M135.103 31H126.744C118.172 31 111.223 37.9489 111.223 46.5209V46.521C111.223 51.0951 114.931 54.8031 119.505 54.8031H142.342C146.916 54.8031 150.624 51.0951 150.624 46.521C150.624 37.949 143.675 31 135.103 31Z" fill="white"/>
<path d="M133.635 71.7748H128.211C122.65 71.7748 118.142 67.2665 118.142 61.7053V61.7052C118.142 58.7377 120.547 56.332 123.515 56.332H138.331C141.299 56.332 143.704 58.7377 143.704 61.7052C143.704 67.2665 139.196 71.7748 133.635 71.7748Z" fill="white"/>
<path d="M142.691 51.4554H126.8C124.647 51.4554 122.88 49.8047 122.88 47.7685V44.646C122.88 42.6098 124.647 41.0155 126.8 41.0842L142.691 41.5911C144.615 41.6525 146.156 43.2356 146.156 45.1278V48.0294C146.156 49.9215 144.615 51.4554 142.691 51.4554Z" fill="url(#paint33_linear_1469_2186)"/>
<path d="M131.891 46.0415C131.891 47.4014 130.734 48.4892 129.294 48.471C127.841 48.4526 126.654 47.3172 126.654 45.9351C126.654 44.5529 127.841 43.4658 129.294 43.5065C130.734 43.5468 131.891 44.6817 131.891 46.0415Z" fill="white"/>
<path d="M142.631 46.2601C142.631 47.5743 141.55 48.626 140.206 48.609C138.85 48.5919 137.742 47.4957 137.742 46.1607C137.742 44.8257 138.85 43.7745 140.206 43.8125C141.55 43.8502 142.631 44.9459 142.631 46.2601Z" fill="white"/>
<path opacity="0.3" d="M136.69 52.6262C134.327 49.8494 135.377 47.6286 132.287 43.8656C128.036 38.6878 123.077 39.2737 121.941 35.762C121.626 34.7889 121.59 33.4532 122.434 31.6069C115.959 33.4747 111.223 39.4445 111.223 46.5211V46.5212C111.223 51.0952 114.931 54.8032 119.505 54.8032H139.407C138.215 54.1534 137.344 53.3943 136.69 52.6262Z" fill="white"/>
<path d="M113.456 52.3237C115.909 52.3237 117.898 49.5291 117.898 46.0818C117.898 42.6345 115.909 39.8398 113.456 39.8398C111.003 39.8398 109.015 42.6345 109.015 46.0818C109.015 49.5291 111.003 52.3237 113.456 52.3237Z" fill="#D8DEE8"/>
<path d="M109.942 48.8116C111.015 48.8116 111.885 47.5895 111.885 46.0821C111.885 44.5746 111.015 43.3525 109.942 43.3525C108.87 43.3525 108 44.5746 108 46.0821C108 47.5895 108.87 48.8116 109.942 48.8116Z" fill="#BFC8D6"/>
<path opacity="0.4" d="M134.97 66.2313C134.226 62.7367 125.996 62.821 125.772 60.5369C125.599 58.776 130.325 57.0327 130.919 56.8136C131.427 56.6263 131.931 56.4677 132.43 56.332H123.515C120.547 56.332 118.142 58.7377 118.142 61.7052V61.7053C118.142 67.2665 122.65 71.7748 128.211 71.7748H133.635C134.156 71.7748 134.668 71.7352 135.168 71.6588C134.696 71.0738 134.388 70.434 134.313 69.7356C134.148 68.1875 135.259 67.5855 134.97 66.2313Z" fill="#D8DEE8"/>
<path d="M131.057 57.6684C135.788 57.6684 139.623 57.2041 139.623 56.6313C139.623 56.0586 135.788 55.5942 131.057 55.5942C126.326 55.5942 122.491 56.0586 122.491 56.6313C122.491 57.2041 126.326 57.6684 131.057 57.6684Z" fill="#D8DEE8"/>
<path d="M129.779 113.632C128.398 113.632 126.343 113.393 126.343 112.734C126.343 112.076 128.398 111.837 129.779 111.837C131.161 111.837 133.216 112.076 133.216 112.734C133.216 113.393 131.161 113.632 129.779 113.632ZM129.779 112.099C127.695 112.099 126.605 112.513 126.605 112.734C126.605 112.956 127.695 113.37 129.779 113.37C131.863 113.37 132.953 112.956 132.953 112.734C132.953 112.513 131.863 112.099 129.779 112.099Z" fill="white"/>
<path opacity="0.6" d="M129.779 113.083C130.609 113.083 131.281 112.927 131.281 112.735C131.281 112.542 130.609 112.386 129.779 112.386C128.949 112.386 128.276 112.542 128.276 112.735C128.276 112.927 128.949 113.083 129.779 113.083Z" fill="white"/>
<path opacity="0.56" d="M150.99 81.9843L133.213 111.05L133.051 111.315L132.835 111.668L132.457 112.286L132.183 112.734C132.183 113.033 131.172 113.276 129.903 113.291C129.862 113.292 129.821 113.292 129.779 113.292C128.451 113.292 127.375 113.043 127.375 112.734L127.124 112.278L126.62 111.364L126.448 111.053L126.233 110.662L125.175 108.742L123.352 105.437L121.299 101.713L121.095 101.34L118.826 97.2242L117.384 94.6083L111 83.0285C112.477 81.8966 115.925 79.4461 120.951 77.7603C121.698 77.5094 122.479 77.2759 123.295 77.066C123.483 77.0172 123.674 76.9698 123.866 76.9238C124.011 76.8893 124.156 76.8555 124.302 76.8232C124.417 76.7966 124.533 76.7714 124.65 76.7463C124.65 76.7463 124.65 76.7463 124.651 76.7463C126.389 76.374 128.265 76.116 130.266 76.0312C130.507 76.0205 130.75 76.0126 130.995 76.0075C134.817 75.9271 138.221 76.4991 141.115 77.337C141.212 77.3643 141.309 77.393 141.405 77.4218C141.433 77.4304 141.461 77.4383 141.488 77.4469C141.797 77.5396 142.099 77.636 142.395 77.7344C143.205 78.0032 143.969 78.2899 144.685 78.5845C147.704 79.827 149.867 81.2125 150.99 81.9843Z" fill="white"/>
<defs>
<linearGradient id="paint0_linear_1469_2186" x1="145.324" y1="192.678" x2="153.941" y2="138.99" gradientUnits="userSpaceOnUse">
<stop stop-color="#CFCFCF" stop-opacity="0"/>
<stop offset="1" stop-color="white"/>
</linearGradient>
<linearGradient id="paint1_linear_1469_2186" x1="133.37" y1="225.556" x2="149.94" y2="174.519" gradientUnits="userSpaceOnUse">
<stop stop-color="#CFCFCF" stop-opacity="0"/>
<stop offset="1" stop-color="white"/>
</linearGradient>
<linearGradient id="paint2_linear_1469_2186" x1="45.6383" y1="205.616" x2="38.6787" y2="181.589" gradientUnits="userSpaceOnUse">
<stop stop-color="#6295CA" stop-opacity="0"/>
<stop offset="1" stop-color="#336496"/>
</linearGradient>
<linearGradient id="paint3_linear_1469_2186" x1="244.895" y1="216.067" x2="238.015" y2="192.317" gradientUnits="userSpaceOnUse">
<stop stop-color="#6295CA" stop-opacity="0"/>
<stop offset="1" stop-color="#336496"/>
</linearGradient>
<linearGradient id="paint4_linear_1469_2186" x1="73.188" y1="168.624" x2="93.4454" y2="152.095" gradientUnits="userSpaceOnUse">
<stop stop-color="#89E2B4"/>
<stop offset="1" stop-color="#1EA695"/>
</linearGradient>
<linearGradient id="paint5_linear_1469_2186" x1="29.9161" y1="154.821" x2="6.17883" y2="124.869" gradientUnits="userSpaceOnUse">
<stop stop-color="#89E2B4"/>
<stop offset="1" stop-color="#1EA695"/>
</linearGradient>
<linearGradient id="paint6_linear_1469_2186" x1="54.7305" y1="149.355" x2="65.667" y2="112.693" gradientUnits="userSpaceOnUse">
<stop stop-color="#89E2B4"/>
<stop offset="1" stop-color="#1EA695"/>
</linearGradient>
<linearGradient id="paint7_linear_1469_2186" x1="249.301" y1="187.276" x2="253.323" y2="103.537" gradientUnits="userSpaceOnUse">
<stop stop-color="#89E2B4"/>
<stop offset="1" stop-color="#1EA695"/>
</linearGradient>
<linearGradient id="paint8_linear_1469_2186" x1="259.426" y1="197.171" x2="274.099" y2="139.661" gradientUnits="userSpaceOnUse">
<stop stop-color="#89E2B4"/>
<stop offset="1" stop-color="#1EA695"/>
</linearGradient>
<linearGradient id="paint9_linear_1469_2186" x1="250.818" y1="196.39" x2="232.051" y2="152.357" gradientUnits="userSpaceOnUse">
<stop stop-color="#89E2B4"/>
<stop offset="1" stop-color="#1EA695"/>
</linearGradient>
<linearGradient id="paint10_linear_1469_2186" x1="205.335" y1="212.223" x2="207.904" y2="186.871" gradientUnits="userSpaceOnUse">
<stop stop-color="#CFCFCF"/>
<stop offset="1" stop-color="#8F8F8F"/>
</linearGradient>
<linearGradient id="paint11_linear_1469_2186" x1="209.9" y1="169.065" x2="204.1" y2="182.487" gradientUnits="userSpaceOnUse">
<stop stop-color="#6295CA"/>
<stop offset="1" stop-color="#336496"/>
</linearGradient>
<linearGradient id="paint12_linear_1469_2186" x1="125.384" y1="232.146" x2="148.088" y2="232.146" gradientUnits="userSpaceOnUse">
<stop stop-color="#FFB5BB"/>
<stop offset="1" stop-color="#F94E89"/>
</linearGradient>
<linearGradient id="paint13_linear_1469_2186" x1="151.267" y1="205.473" x2="198.663" y2="157.3" gradientUnits="userSpaceOnUse">
<stop stop-color="#394984"/>
<stop offset="1" stop-color="#263157"/>
</linearGradient>
<linearGradient id="paint14_linear_1469_2186" x1="164.064" y1="136.062" x2="184.073" y2="117.296" gradientUnits="userSpaceOnUse">
<stop stop-color="#F5F3FE"/>
<stop offset="1" stop-color="#D4D2FA"/>
</linearGradient>
<linearGradient id="paint15_linear_1469_2186" x1="197.721" y1="104.257" x2="210.315" y2="153.802" gradientUnits="userSpaceOnUse">
<stop stop-color="#F5F3FE"/>
<stop offset="1" stop-color="#D4D2FA"/>
</linearGradient>
<linearGradient id="paint16_linear_1469_2186" x1="195.646" y1="105.853" x2="193.796" y2="96.2332" gradientUnits="userSpaceOnUse">
<stop stop-color="#FFD6CA"/>
<stop offset="1" stop-color="#F9BDB5"/>
</linearGradient>
<linearGradient id="paint17_linear_1469_2186" x1="189.491" y1="104.522" x2="194.644" y2="93.9257" gradientUnits="userSpaceOnUse">
<stop stop-color="#FFD6CA" stop-opacity="0"/>
<stop offset="1" stop-color="#F9BDB5"/>
</linearGradient>
<linearGradient id="paint18_linear_1469_2186" x1="199.344" y1="84.5333" x2="199.903" y2="87.6402" gradientUnits="userSpaceOnUse">
<stop stop-color="#FFD6CA"/>
<stop offset="1" stop-color="#F9BDB5"/>
</linearGradient>
<linearGradient id="paint19_linear_1469_2186" x1="190.516" y1="77.8798" x2="189.646" y2="106.277" gradientUnits="userSpaceOnUse">
<stop stop-color="#FFD6CA"/>
<stop offset="1" stop-color="#F9BDB5"/>
</linearGradient>
<linearGradient id="paint20_linear_1469_2186" x1="191.737" y1="75.0597" x2="182.914" y2="80.8386" gradientUnits="userSpaceOnUse">
<stop stop-color="#FFD6CA"/>
<stop offset="1" stop-color="#F9BDB5"/>
</linearGradient>
<linearGradient id="paint21_linear_1469_2186" x1="196.169" y1="80.4078" x2="195.423" y2="92.2764" gradientUnits="userSpaceOnUse">
<stop stop-color="#FFD6CA"/>
<stop offset="1" stop-color="#F9BDB5"/>
</linearGradient>
<linearGradient id="paint22_linear_1469_2186" x1="161.616" y1="136.723" x2="173.92" y2="136.226" gradientUnits="userSpaceOnUse">
<stop stop-color="#FFD6CA"/>
<stop offset="1" stop-color="#F9BDB5"/>
</linearGradient>
<linearGradient id="paint23_linear_1469_2186" x1="166.37" y1="139.098" x2="163.387" y2="135.432" gradientUnits="userSpaceOnUse">
<stop stop-color="#FFD6CA"/>
<stop offset="1" stop-color="#F9BDB5"/>
</linearGradient>
<linearGradient id="paint24_linear_1469_2186" x1="185.296" y1="137.597" x2="221.958" y2="101.308" gradientUnits="userSpaceOnUse">
<stop stop-color="#F5F3FE"/>
<stop offset="1" stop-color="#D4D2FA"/>
</linearGradient>
<linearGradient id="paint25_linear_1469_2186" x1="177.544" y1="238.427" x2="202.162" y2="238.427" gradientUnits="userSpaceOnUse">
<stop stop-color="#FFB5BB"/>
<stop offset="1" stop-color="#F94E89"/>
</linearGradient>
<linearGradient id="paint26_linear_1469_2186" x1="206.583" y1="174.482" x2="230.191" y2="147.599" gradientUnits="userSpaceOnUse">
<stop stop-color="#394984"/>
<stop offset="1" stop-color="#263157"/>
</linearGradient>
<linearGradient id="paint27_linear_1469_2186" x1="174.804" y1="190.187" x2="175.75" y2="176.461" gradientUnits="userSpaceOnUse">
<stop stop-color="#394984"/>
<stop offset="1" stop-color="#263157"/>
</linearGradient>
<linearGradient id="paint28_linear_1469_2186" x1="140.573" y1="137.589" x2="124.541" y2="112.237" gradientUnits="userSpaceOnUse">
<stop stop-color="#CFCFCF"/>
<stop offset="1" stop-color="#E8E8E8"/>
</linearGradient>
<linearGradient id="paint29_linear_1469_2186" x1="125.296" y1="117.286" x2="136.357" y2="129.962" gradientUnits="userSpaceOnUse">
<stop stop-color="#CFCFCF" stop-opacity="0"/>
<stop offset="1" stop-color="white"/>
</linearGradient>
<linearGradient id="paint30_linear_1469_2186" x1="97.875" y1="132.614" x2="102.079" y2="132.614" gradientUnits="userSpaceOnUse">
<stop stop-color="#E6E6E6"/>
<stop offset="1" stop-color="white"/>
</linearGradient>
<linearGradient id="paint31_linear_1469_2186" x1="94.0721" y1="113.455" x2="93.4507" y2="122.901" gradientUnits="userSpaceOnUse">
<stop stop-color="#E6E6E6"/>
<stop offset="1" stop-color="white" stop-opacity="0"/>
</linearGradient>
<linearGradient id="paint32_linear_1469_2186" x1="90.7448" y1="108.5" x2="90.4962" y2="119.934" gradientUnits="userSpaceOnUse">
<stop stop-color="#E6E6E6"/>
<stop offset="1" stop-color="white" stop-opacity="0"/>
</linearGradient>
<linearGradient id="paint33_linear_1469_2186" x1="122.88" y1="46.2687" x2="146.156" y2="46.2687" gradientUnits="userSpaceOnUse">
<stop stop-color="#444B8C"/>
<stop offset="0.9964" stop-color="#26264F"/>
</linearGradient>
</defs>
</svg>
