<svg width="136" height="120" viewBox="0 0 136 120" fill="none" xmlns="http://www.w3.org/2000/svg">
<path d="M44.9993 117.849C32.939 114.871 24.8773 107.617 20.2618 99.6166C8.42109 79.0942 -4.84926 35.3789 19.9573 12.2224C43.1211 -9.4004 81.1002 4.06552 83.5158 4.96114C105.916 13.267 131.646 35.9055 129.832 63.2707C128.447 84.1633 111.684 97.5988 101.998 105.362C96.4106 109.841 76.8171 125.706 44.9993 117.849Z" fill="#DBE6F7"/>
<path fill-rule="evenodd" clip-rule="evenodd" d="M68.2494 17.2079C76.5458 17.2079 83.5223 24.7501 83.5223 33.8006C83.5223 52.8446 83.5223 42.2856 83.5223 64.1579C83.5223 73.397 76.5458 80.7506 68.2494 80.7506C59.7645 80.7506 52.9766 73.397 52.9766 64.1579V56.6157H75.4145V53.5988H52.9766V49.8277H75.4145V46.9994H52.9766V43.2284H75.4145V40.2115H52.9766V33.8006C52.9766 19.282 68.2494 16.0766 68.2494 17.2079Z" fill="#163356"/>
<path fill-rule="evenodd" clip-rule="evenodd" d="M90.3102 64.9123C90.1217 75.8484 81.8253 84.899 71.4548 86.4074V97.7207H85.0307V103H51.2795V97.7207H64.8554V86.4074C54.4849 84.899 46.1886 75.8484 46 64.9123L46.1886 56.2388H48.6398V65.2894C49.0169 75.6598 57.6904 84.1448 68.0608 83.9562C78.6199 84.1448 87.2933 75.6598 87.6705 65.2894V56.2388H90.1217L90.3102 64.9123Z" fill="#163356"/>
</svg>
