<svg width="315" height="182" viewBox="0 0 315 182" fill="none" xmlns="http://www.w3.org/2000/svg">
<path d="M314.5 79.0107H0.5V180.988H314.5V79.0107Z" fill="#FFD6CA"/>
<path d="M225.322 129.703C219.163 142.165 208.366 149.468 195.96 153.39C190.101 155.247 183.89 156.348 177.639 156.888C164.777 157.993 148.917 158.041 135.038 154.107C123.032 150.709 112.507 144.33 106.689 133.073C96.7197 113.775 107.145 95.4942 115.517 77.9737C119.675 69.2775 121.924 60.5292 121.092 50.8845C120.671 45.9661 119.691 40.9917 120.627 36.1454C124.901 14.0706 160.006 15.6794 176.386 19.025C184.302 20.6418 192.987 22.3546 200.226 26.0164C205.689 28.7818 210.559 33.2119 212.476 38.9707C214.077 43.7891 213.16 48.5634 213.793 53.4338C214.521 59.0605 217.711 64.179 221.084 68.6332C227.267 76.8091 230.829 83.1802 231.893 93.5653C233.15 105.804 230.789 118.637 225.322 129.703Z" fill="#BBD4F2"/>
<path d="M124.21 26.3992C129.909 21.3299 136.829 17.9467 144.294 16.4255C152.028 14.85 160.082 15.2258 167.803 16.6777C175.614 18.1464 183.255 20.7036 190.638 23.619C197.943 26.5036 205.068 29.9673 211.617 34.3218C217.596 38.2978 223.183 43.1033 227.343 49.0002C231.392 54.7398 233.898 61.4142 234.294 68.4484C234.669 75.1077 233.134 81.6357 229.983 87.5017C226.896 93.2465 222.568 98.2033 217.969 102.782C213.133 107.597 207.81 111.91 203.022 116.769C197.852 122.016 193.624 128.131 191.06 135.064C189.681 138.794 188.915 142.715 187.553 146.451C186.425 149.545 184.781 152.418 182.391 154.708C178.726 158.22 173.768 159.788 168.778 160.039C163.176 160.32 157.572 159.192 152.241 157.553C146.801 155.88 141.551 153.612 136.515 150.971C131.345 148.26 126.474 145.046 121.68 141.724C115.27 137.282 108.575 132.189 104.916 125.119C103.148 121.704 102.169 117.83 102.608 113.977C103.056 110.049 104.972 106.499 106.184 102.787C107.494 98.7776 107.598 94.6368 107.002 90.4852C106.392 86.2383 105.01 82.1643 104.143 77.9707C103.362 74.1908 102.944 70.3466 103.167 66.4855C103.405 62.3755 104.368 58.3479 105.677 54.4552C108.112 47.2137 111.871 40.3876 116.638 34.4191C118.937 31.5417 121.471 28.8588 124.21 26.3992C124.978 25.7097 123.843 24.5803 123.078 25.2674C117.261 30.49 112.362 36.7438 108.655 43.6256C104.885 50.6238 102.029 58.4996 101.567 66.4855C101.338 70.445 101.782 74.4017 102.576 78.2788C103.453 82.5593 104.883 86.7165 105.479 91.0546C105.776 93.2137 105.877 95.4132 105.676 97.5854C105.482 99.6828 104.907 101.698 104.187 103.67C102.815 107.431 101.085 111.083 100.918 115.153C100.585 123.27 105.567 130.345 111.281 135.606C114.298 138.384 117.601 140.842 120.97 143.173C123.755 145.1 126.569 147.005 129.449 148.788C134.075 151.652 138.941 154.133 143.959 156.233C149.396 158.509 155.084 160.349 160.931 161.198C166.257 161.971 171.915 161.982 176.991 159.979C182.682 157.731 186.655 153.196 188.846 147.544C190.316 143.751 191.079 139.734 192.451 135.908C193.726 132.357 195.468 128.984 197.575 125.856C201.696 119.736 207.237 114.971 212.638 110.032C217.646 105.452 222.592 100.747 226.744 95.3571C230.739 90.1718 233.912 84.2889 235.224 77.831C236.648 70.8232 235.981 63.3764 233.352 56.7275C230.731 50.0983 226.308 44.3651 221.051 39.6016C215.242 34.3367 208.503 30.1562 201.496 26.6841C194.526 23.2309 187.232 20.4411 179.818 18.1052C171.599 15.5159 163.052 13.7518 154.402 13.8131C146.86 13.8663 139.319 15.377 132.555 18.7795C129.121 20.5071 125.949 22.7138 123.078 25.2674C122.307 25.9538 123.443 27.0819 124.21 26.3992Z" fill="#BBD4F2"/>
<path d="M196.228 145.122C196.228 145.122 196.228 166.497 195.98 181.392H166.782C166.762 180.956 166.742 180.523 166.718 180.087C166.674 179.143 166.626 178.194 166.578 177.25C166.506 175.769 166.438 174.276 166.358 172.784V172.772C166.15 168.618 165.889 164.44 165.341 160.358C165.329 160.258 165.317 160.162 165.301 160.062C165.357 160.97 164.681 162.455 164.529 163.347C164.337 164.456 164.097 165.552 163.916 166.665C163.512 169.13 163.18 171.607 162.912 174.088C162.648 176.522 162.452 178.955 162.296 181.392H135.002C134.906 166.04 135.595 140.888 135.595 140.888L196.228 145.122Z" fill="#46413D"/>
<path d="M167.368 181.097C167.064 177.356 166.756 173.615 166.45 169.874C166.171 166.449 165.887 163.024 165.609 159.6C165.52 158.502 165.431 157.405 165.343 156.308C165.309 155.888 164.649 155.884 164.683 156.308C164.882 158.771 165.084 161.235 165.286 163.698C165.591 167.42 165.893 171.142 166.198 174.864C166.368 176.942 166.539 179.02 166.708 181.097C166.742 181.518 167.403 181.521 167.368 181.097Z" fill="#332E29"/>
<path d="M112.411 66.1291C119.913 59.2086 131.537 54.0573 141.381 51.3588C151.224 48.6603 155.501 48.617 165.971 47.3704C171.784 46.6781 198.029 51.6253 202.884 54.1801C203.079 54.283 203.272 54.3926 203.462 54.5051C206.383 56.2299 209.06 58.4302 211.694 60.554C215 63.2189 218.236 65.9791 221.357 68.8597C222.594 70.0022 223.819 71.1636 224.98 72.385C225.461 72.892 226.181 73.4979 226.178 74.2535C226.174 75.1948 225.271 75.9927 224.774 76.7103C223.93 77.9277 223.096 79.1515 222.261 80.3745C220.588 82.8241 218.915 85.2757 217.149 87.6592C215.762 89.5329 214.302 91.4495 212.275 92.6012C211.94 92.7913 211.58 92.9622 211.196 92.9866C209.82 93.0743 203.324 88.5629 196.976 85.0992C197.029 92.604 197.178 113.373 197.2 117.021C197.228 121.764 198.379 150.738 196.691 151.593C195.535 152.179 193.949 152.283 192.692 152.624C191.193 153.03 189.683 153.398 188.165 153.726C185.129 154.383 182.058 154.883 178.97 155.225C165.907 156.673 152.22 155.873 140.01 150.518C139.409 150.254 138.812 149.984 138.214 149.715C136.76 149.058 134.282 148.475 133.83 146.736C133.188 144.268 133.679 138.191 133.814 135.664C134.317 126.208 135.234 93.3768 135.564 80.3989C135.581 80.5678 133.656 81.0352 133.477 81.0808C132.517 81.3245 131.545 81.5162 130.571 81.6919C128.318 82.0981 126.05 82.4087 123.784 82.7252C122.74 82.8709 121.697 83.0158 120.656 83.1726C119.664 83.3219 118.377 83.6989 117.577 82.9101C115.819 81.1769 115.009 78.5356 115.494 76.1144C115.623 75.4669 115.838 74.8362 115.923 74.1815C116.118 72.6659 115.117 71.2012 114.465 69.897C113.826 68.62 113.176 67.3369 112.411 66.1291Z" fill="#64B0E0"/>
<path d="M178.842 48.2684C178.03 47.5769 176.975 47.2503 175.938 47.003C175.133 46.8113 174.319 46.6564 173.497 46.5624C172.563 46.4551 171.525 46.4563 170.798 47.0534C170.447 47.342 170.207 47.743 170.004 48.1496C169.648 48.8631 169.38 49.6867 169.609 50.4507C169.81 51.121 170.363 51.6293 170.957 52.0006C172.421 52.9175 174.211 53.186 175.937 53.124C176.869 53.0904 177.814 52.9623 178.665 52.5777C179.273 52.3032 180.539 51.518 180.512 50.7288C180.485 49.9596 179.391 48.7371 178.842 48.2684Z" fill="#64B0E0"/>
<path d="M188.051 138.003C190.707 136.011 193.26 133.885 195.697 131.63C195.982 131.367 195.556 130.943 195.273 131.205C192.874 133.426 190.362 135.523 187.748 137.485C187.442 137.714 187.741 138.235 188.051 138.003Z" fill="#3790BC"/>
<path d="M211.065 91.5843C210.936 91.8088 210.809 92.0981 210.959 92.309C211.106 92.5143 211.417 92.4963 211.656 92.4155C212.099 92.2662 212.484 91.9841 212.854 91.6975C214.292 90.5826 215.624 89.332 216.828 87.9673C217.01 87.7604 217.193 87.5463 217.298 87.291C217.522 86.7431 217.348 86.112 217.084 85.5818C216.942 85.2976 216.778 85.0731 216.443 85.0131C216.238 84.9763 216.026 85.0059 215.823 85.0543C215.374 85.1612 214.884 85.3633 214.532 85.6706C214.176 85.9808 214.023 86.4402 213.781 86.8376C213.46 87.3642 213.168 87.9101 212.861 88.4456C212.261 89.4913 211.663 90.5378 211.065 91.5843Z" fill="#157A99"/>
<path d="M225.208 74.3911C225.208 74.3911 240.249 85.4945 242.321 88.2583C244.392 91.022 243.666 93.9598 237.363 101.195C231.061 108.431 224.916 114.687 222.699 116.861C219.423 120.074 215.782 122.889 212.064 125.568C210.207 126.907 208.325 128.211 206.445 129.52C204.861 130.622 203.195 131.97 201.149 131.846C199.655 131.755 198.258 130.833 197.506 129.538C196.148 127.198 197.106 124.555 198.702 122.609C199.052 122.182 199.47 121.784 199.992 121.603C200.477 121.436 201.004 121.47 201.514 121.414C202.744 121.278 203.778 119.79 204.557 118.899C205.941 117.315 207.236 115.652 208.516 113.983C214.098 106.707 219.609 94.2936 221.163 92.1882C221.163 92.1882 214.977 88.4351 213.314 87.7168C213.314 87.7168 216.527 80.0423 225.208 74.3911Z" fill="#FFC6AD"/>
<path d="M225.549 86.3922C223.648 87.9586 222.082 89.9208 220.995 92.1326C220.825 92.478 221.343 92.7826 221.513 92.4356C222.58 90.2637 224.106 88.3548 225.973 86.8169C226.271 86.5707 225.844 86.1481 225.549 86.3922Z" fill="#DE9A85"/>
<path d="M242.027 91.6204C241.89 92.386 241.658 93.134 241.324 93.8367C241.254 93.9832 241.284 94.1609 241.432 94.2473C241.563 94.3238 241.773 94.2865 241.842 94.1397C242.199 93.3889 242.459 92.5985 242.605 91.7801C242.634 91.6208 242.562 91.4568 242.396 91.4108C242.25 91.3711 242.055 91.46 242.027 91.6204Z" fill="#FCE8E1"/>
<path d="M157.141 37.8985C157.171 37.8404 157.203 37.7832 157.236 37.7256C157.705 36.902 158.371 36.2064 159.077 35.5745C161.053 33.8065 164.08 32.4566 166.76 32.3134C168.648 32.2121 170.691 32.9501 171.655 34.5768C172.21 35.5145 172.354 36.6302 172.52 37.7072C172.88 40.0331 173.404 42.3418 174.202 44.5589C174.592 45.6422 175.046 46.7027 175.578 47.724C175.821 48.1915 176.052 48.7137 176.423 49.0875C176.737 49.4049 177.104 49.6166 177.38 49.9996C178.118 51.0245 178.073 52.472 177.507 53.6013C176.942 54.7307 175.932 55.5795 174.85 56.2314C170.304 58.9687 165.488 60.1633 160.169 59.124C158.273 58.7538 156.384 57.596 155.736 55.6919C155.429 54.7879 155.543 53.6849 156.233 53.0258C156.42 52.8485 156.65 52.6949 156.738 52.4539C156.773 52.3579 156.783 52.255 156.791 52.153C156.945 50.2621 156.41 48.5124 156.344 46.6259C156.32 45.9568 156.157 45.3417 156.211 44.6558C156.262 44.0254 156.432 43.4944 156.399 42.8489C156.312 41.1464 156.331 39.4368 157.141 37.8985Z" fill="#FFC6AD"/>
<path d="M156.722 53.9971C156.841 54.6182 156.843 55.2709 156.816 55.9201C156.81 56.0769 156.959 56.2274 157.116 56.2202C157.284 56.2126 157.409 56.0881 157.416 55.9201C157.446 55.2197 157.434 54.5282 157.3 53.8374C157.27 53.6782 157.079 53.5873 156.931 53.6277C156.765 53.6738 156.691 53.8374 156.722 53.9971Z" fill="#DE9A85"/>
<path d="M121.766 77.8921C121.756 80.561 121.04 82.5588 119.381 82.8977C117.723 83.2371 116.441 80.9376 116.14 79.6181C115.838 78.2991 121.766 77.8921 121.766 77.8921Z" fill="#157A99"/>
<path d="M96.8402 77.6994C96.5037 75.2126 98.6999 73.525 100.529 72.1455C104.085 69.4634 107.945 67.1863 112.012 65.3718C112.588 65.1149 113.196 64.862 113.825 64.9028C115.318 64.9992 115.852 66.2875 116.766 67.1899C117.768 68.1792 118.761 69.0332 119.552 70.2238C121.046 72.4745 121.863 75.1858 121.766 77.8919C121.761 78.0212 121.753 78.1564 121.684 78.2661C121.617 78.3733 121.503 78.4402 121.393 78.5026C118.33 80.2395 114.494 80.8982 111.035 81.4997C107.062 82.1904 97.6506 83.6879 96.8402 77.6994Z" fill="#FFC6AD"/>
<path d="M96.2891 77.6932C96.0206 77.1198 95.8881 76.5159 96.1178 75.9432C96.5961 74.7518 97.2324 73.6157 97.7006 72.4003C99.2498 68.3791 99.4042 66.2881 103.943 61.7683C108.482 57.2485 119.12 46.3264 122.602 43.2345C124.598 41.462 126.519 39.6003 128.398 37.7046C129.753 36.3371 131.279 33.8819 133.347 33.7823C134.422 33.7306 135.472 34.1352 136.403 34.6743C136.902 34.9628 137.381 35.2954 137.772 35.7188C140.247 38.3989 137.533 41.8902 136.153 44.3802C131.239 53.2441 126.07 61.9788 120.237 70.2736C118.648 72.5339 116.605 74.3004 114.329 75.8675C112.927 76.8608 111.43 77.7196 109.857 78.4128C106.961 79.6894 103.847 80.4798 100.687 80.6919C99.9829 80.7391 99.2462 80.7535 98.6058 80.4562C97.8675 80.1132 97.372 79.4113 96.9114 78.7401C96.6877 78.4144 96.4608 78.0602 96.2891 77.6932Z" fill="#FFC6AD"/>
<path d="M115.55 75.3339C117.087 73.9664 118.624 72.5926 120.002 71.0618C120.26 70.7753 119.837 70.3495 119.577 70.6372C118.199 72.1684 116.662 73.5418 115.125 74.9093C114.837 75.1666 115.262 75.59 115.55 75.3339Z" fill="#DE9A85"/>
<path d="M97.4352 75.3214C97.9787 74.4738 98.5602 73.6505 99.1817 72.8586C99.2817 72.7313 99.3062 72.5584 99.1817 72.434C99.0777 72.3299 98.8579 72.3059 98.7571 72.434C98.1036 73.2664 97.4881 74.1272 96.9166 75.018C96.829 75.1545 96.8886 75.3494 97.0243 75.4286C97.1699 75.5139 97.3476 75.4582 97.4352 75.3214Z" fill="#FCE8E1"/>
<path d="M197.873 115.771C199.445 116.798 200.193 118.582 201.057 120.166C201.272 120.56 201.499 120.91 201.931 121.087C202.511 121.325 203.083 121.275 203.59 121.689C204.886 122.746 205.558 124.619 205.68 126.243C205.827 128.191 204.962 130.175 203.603 131.549C202.232 132.935 200.174 133.541 198.269 133.597C195.394 133.682 192.989 131.777 190.021 132.382C188.201 132.752 186.793 134.137 185.225 135.132C184.691 135.471 184.115 135.773 183.489 135.862C183.355 135.882 183.213 135.89 183.09 135.832C182.725 135.661 182.818 135.116 183.001 134.757C184.366 132.079 187.506 129.874 190.112 128.528C189.771 128.704 189.306 128.603 188.934 128.637C188.338 128.691 187.737 128.823 187.149 128.932C186.006 129.144 184.87 129.398 183.745 129.692C182.79 129.943 181.85 130.246 180.909 130.547C180.15 130.79 179.241 131.265 178.437 131.139C175.891 130.748 177.925 128.99 177.776 128.972C176.454 128.815 174.46 127.702 176.17 126.577C179.38 124.463 181.002 123.791 182.958 123.464C184.913 123.137 187.509 122.977 187.509 122.977C186.533 122.803 185.567 122.734 184.596 122.553C183.433 122.335 182.251 122.177 181.067 122.143C180.024 122.113 178.936 122.187 178.096 121.451C177.547 120.971 176.777 119.895 177.851 119.52C178.487 119.297 187.818 119.474 191.589 119.591C195.096 119.7 196.968 120.114 196.968 120.114C196.968 120.114 196.872 115.282 197.261 115.445C197.474 115.534 197.678 115.644 197.873 115.771Z" fill="#FFC6AD"/>
<path d="M197.201 120.25C197.566 120.285 197.931 120.321 198.296 120.355C198.453 120.371 198.603 120.207 198.596 120.055C198.588 119.88 198.464 119.771 198.296 119.755C197.931 119.72 197.566 119.685 197.201 119.65C197.044 119.635 196.894 119.799 196.901 119.95C196.909 120.126 197.033 120.234 197.201 120.25Z" fill="#DE9A85"/>
<path d="M177.744 129.413C180.759 127.343 184.244 126.241 187.833 125.687C188.863 125.529 189.899 125.413 190.937 125.32C191.319 125.286 191.323 124.686 190.937 124.72C187.25 125.05 183.555 125.696 180.191 127.304C179.234 127.761 178.315 128.294 177.441 128.894C177.124 129.112 177.424 129.633 177.744 129.413Z" fill="#DE9A85"/>
<path d="M184.174 122.744C186.35 122.94 188.51 123.001 190.693 122.962C191.078 122.955 191.08 122.354 190.693 122.361C188.51 122.401 186.349 122.339 184.174 122.144C183.79 122.11 183.792 122.71 184.174 122.744Z" fill="#DE9A85"/>
<path d="M188.811 129.028C188.805 129.032 188.799 129.036 188.794 129.04C188.894 129.04 188.996 129.04 189.097 129.04C189.089 129.036 189.081 129.033 189.073 129.03C189.109 129.066 189.145 129.101 189.181 129.137C189.177 129.129 189.174 129.121 189.171 129.113C189.171 129.214 189.171 129.315 189.171 129.416C189.177 129.405 189.184 129.393 189.19 129.382C189.154 129.418 189.119 129.454 189.083 129.49C189.325 129.336 189.606 129.223 189.866 129.099C190.136 128.97 190.408 128.844 190.681 128.722C191.222 128.479 191.771 128.251 192.324 128.036C192.475 127.978 192.58 127.835 192.534 127.667C192.494 127.523 192.317 127.398 192.164 127.457C191.423 127.745 190.691 128.055 189.969 128.389C189.62 128.551 189.273 128.718 188.93 128.891C188.739 128.987 188.542 129.137 188.637 129.38C188.708 129.565 188.939 129.666 189.114 129.546C189.431 129.329 189.131 128.809 188.811 129.028Z" fill="#DE9A85"/>
<path d="M201.605 122.183C201.726 123.013 201.925 123.828 202.201 124.62C202.254 124.773 202.406 124.874 202.57 124.829C202.718 124.789 202.833 124.614 202.78 124.461C202.504 123.669 202.305 122.853 202.185 122.024C202.161 121.864 201.958 121.775 201.815 121.814C201.643 121.862 201.582 122.023 201.605 122.183Z" fill="#DE9A85"/>
<path d="M153.399 56.3906C153.565 55.7339 153.878 55.11 154.296 54.6005C154.399 54.4753 154.419 54.2984 154.296 54.1759C154.19 54.0699 153.975 54.0503 153.872 54.1759C153.377 54.7778 153.011 55.4737 152.821 56.2309C152.782 56.383 152.87 56.5635 153.03 56.6003C153.186 56.6359 153.358 56.5535 153.399 56.3906Z" fill="#3790BC"/>
<path d="M180.246 51.7454C180.266 51.8206 180.284 51.8967 180.298 51.9731C180.316 52.0623 180.32 52.0923 180.326 52.1576C180.341 52.3073 180.345 52.4577 180.338 52.6078C180.33 52.7723 180.32 52.8511 180.287 53.008C180.255 53.1609 180.211 53.3101 180.156 53.4562C180.101 53.6035 180.218 53.7916 180.366 53.8256C180.536 53.8644 180.676 53.7736 180.735 53.6159C180.976 52.97 181.003 52.2508 180.825 51.5857C180.784 51.434 180.609 51.3264 180.455 51.376C180.3 51.4264 180.202 51.5829 180.246 51.7454Z" fill="#3790BC"/>
<path d="M201.842 53.9743C200.751 54.8167 199.744 55.7575 198.837 56.796C198.73 56.9181 198.717 57.1006 198.837 57.2206C198.945 57.3295 199.154 57.3431 199.261 57.2206C200.133 56.2229 201.097 55.3025 202.146 54.4929C202.274 54.3941 202.343 54.2348 202.253 54.0823C202.179 53.9558 201.972 53.8746 201.842 53.9743Z" fill="#3790BC"/>
<path d="M193.059 69.3519C192.331 73.2774 192.275 77.2926 192.984 81.2253C193.052 81.6051 193.631 81.4442 193.562 81.0656C192.874 77.2458 192.93 73.3243 193.638 69.5116C193.708 69.1338 193.13 68.9721 193.059 69.3519Z" fill="#3790BC"/>
<path d="M136.127 71.0967C135.931 71.797 135.863 72.5221 135.815 73.2453C135.764 74.0173 135.723 74.79 135.69 75.5628C135.623 77.1216 135.587 78.6815 135.554 80.2415C135.546 80.6281 136.146 80.6277 136.154 80.2415C136.187 78.7148 136.222 77.188 136.287 75.6625C136.319 74.9029 136.358 74.1437 136.407 73.385C136.453 72.6666 136.511 71.9519 136.706 71.2563C136.811 70.8837 136.232 70.7245 136.127 71.0967Z" fill="#3790BC"/>
<path d="M139.79 56.3158C140.639 54.6038 141.84 53.0975 143.318 51.8861C143.616 51.6412 143.189 51.2186 142.893 51.4615C141.38 52.7009 140.14 54.2604 139.272 56.0125C139.101 56.3578 139.619 56.6624 139.79 56.3158Z" fill="#3790BC"/>
<path d="M140.411 24.5151C140.899 24.0009 141.458 23.5443 142.038 23.1393C145.507 20.7165 149.801 19.8489 153.975 19.1533C157.179 18.6195 160.407 18.152 163.655 18.1032C165.249 18.0792 166.877 18.1628 168.365 18.7331C169.247 19.0709 170.062 19.5743 170.788 20.1778C172.489 21.5917 173.673 23.5899 174.175 25.7381C174.443 26.8863 174.344 27.9468 174.392 29.0998C174.445 30.364 174.513 31.4709 173.951 32.6751C173.636 33.349 173.205 33.9301 172.89 34.6112C172.745 34.9226 172.608 35.2383 172.511 35.5673C172.418 35.8851 172.364 36.2128 172.31 36.5394C172.187 37.2865 172.064 38.0345 171.987 38.7881C171.955 39.0946 171.932 39.4016 171.892 39.7069C171.789 40.5013 171.61 41.443 171.208 42.1473C170.847 42.7804 170.442 43.4091 170.079 44.0534C169.512 45.0591 168.926 46.0652 168.154 46.9236C167.545 47.6012 166.83 48.1746 166.115 48.7405C164.663 49.8903 163.186 51.0264 161.552 51.8993C159.356 53.0722 156.5 54.0043 153.984 53.897C150.991 53.769 150.926 53.2455 148.235 50.3861C146.879 48.9454 144.888 46.5819 143.637 45.0219C142.297 43.3519 142.405 41.5206 141.716 39.4176C140.983 37.1781 139.86 35.4493 139.248 33.299C138.68 31.3004 138.314 28.6543 139.016 26.6986C139.311 25.8754 139.807 25.151 140.411 24.5151Z" fill="#FFC6AD"/>
<path d="M146.196 25.1584C143.109 26.7415 139.621 28.3683 136.299 27.3646C133.65 26.5643 132.071 23.9862 131.134 21.3817C127.959 12.5554 138.785 9.76128 139.076 10.9002C138.757 8.06846 140.451 5.40757 142.84 3.85441C145.229 2.30086 148.202 2.22482 150.661 3.66472C152.178 1.07866 155.494 0.456758 158.488 0.606831C162.473 0.806528 163.602 3.67272 163.635 3.64751C164.164 3.23811 166.095 3.80439 166.64 3.93325C169.594 4.63239 172.016 6.46568 173.355 9.21702C175.344 13.3058 175.474 18.7132 175.21 23.1702C175.056 25.7703 174.673 28.3519 174.179 30.908C173.939 32.149 173.671 33.3844 173.389 34.6166C173.193 35.4758 173.065 36.3546 172.864 37.219C172.803 37.484 172.729 37.7693 172.517 37.9398C172.432 38.0082 172.321 38.0542 172.214 38.031C172.103 38.0066 172.021 37.9138 171.954 37.8217C171.666 37.4299 171.484 36.9601 171.146 36.6059C170.777 36.2206 170.452 35.7939 170.099 35.3882C169.564 34.7735 168.933 33.9807 168.132 33.7061C167.01 33.3223 164.923 29.2636 163.828 27.8861C163.204 27.1017 161.784 27.5639 160.997 26.9436C160.127 26.2569 160.017 24.9811 159.383 24.0718C158.026 22.1269 155.074 22.5835 152.799 23.2546C149.93 24.1011 147.061 24.9479 144.211 25.8307C144.175 25.8399 144.139 25.8491 146.196 25.1584Z" fill="#8A4D2F"/>
<path d="M150.992 5.55589C150.927 5.25855 150.903 4.96801 150.926 4.64425C150.93 4.57422 150.937 4.50618 150.944 4.46376C150.956 4.38332 150.971 4.30328 150.99 4.22365C151.027 4.06437 151.077 3.90869 151.139 3.75742C151.198 3.61175 151.074 3.42125 150.929 3.38804C150.755 3.34842 150.623 3.44127 150.559 3.59774C150.287 4.26807 150.259 5.01323 150.413 5.71517C150.448 5.87365 150.632 5.96609 150.782 5.92487C150.946 5.88045 151.027 5.71477 150.992 5.55589Z" fill="#A47052"/>
<path d="M139.792 13.1694C139.38 12.4879 139.279 11.6619 139.512 10.9007C139.625 10.5306 139.046 10.3721 138.933 10.7411C138.655 11.6491 138.782 12.6596 139.274 13.472C139.473 13.803 139.992 13.5012 139.792 13.1694Z" fill="#A47052"/>
<path d="M157.856 7.98872C158.243 7.13471 159.037 6.46398 159.981 6.33352C160.954 6.19865 161.859 6.75573 162.29 7.61735C162.462 7.96311 162.98 7.65936 162.808 7.3144C162.286 6.26869 161.149 5.59516 159.976 5.73323C158.832 5.86769 157.811 6.63967 157.337 7.68578C157.18 8.03475 157.697 8.3405 157.856 7.98872Z" fill="#A47052"/>
<path d="M149.398 15.253C149.38 14.2802 149.886 13.186 150.856 12.8423C151.662 12.5569 152.754 12.8971 153.07 13.7427C153.203 14.1013 153.784 13.946 153.648 13.583C153.227 12.4525 151.881 11.8878 150.748 12.2464C149.491 12.6438 148.774 13.9904 148.797 15.253C148.805 15.6388 149.405 15.64 149.398 15.253Z" fill="#A47052"/>
<path d="M144.903 10.2451C145.277 9.14417 146.19 8.34138 147.219 7.85475C148.443 7.27566 149.856 7.15401 151.109 7.71468C151.458 7.87115 151.764 7.3541 151.412 7.19643C149.968 6.55011 148.407 6.65336 146.983 7.30488C145.78 7.85555 144.755 8.81482 144.324 10.0854C144.2 10.452 144.779 10.6093 144.903 10.2451Z" fill="#723A21"/>
<path d="M133.356 22.1965C133.435 21.6322 133.532 20.8014 134.237 20.7165C135.006 20.6237 135.705 21.2408 136.032 21.8799C136.208 22.2241 136.726 21.9207 136.55 21.577C136.119 20.7338 135.177 20.007 134.188 20.1219C133.73 20.1751 133.344 20.4212 133.115 20.825C132.906 21.1948 132.835 21.6222 132.777 22.0372C132.754 22.1973 132.816 22.3597 132.987 22.4066C133.127 22.4446 133.333 22.3581 133.356 22.1965Z" fill="#A47052"/>
<path d="M155.423 15.9986C155.404 15.2747 156.033 14.6716 156.535 14.2258C157.067 13.7527 157.696 13.3713 158.374 13.1492C159.709 12.7114 161.257 12.9239 162.303 13.906C162.585 14.1705 163.01 13.7467 162.728 13.4814C161.51 12.3376 159.697 12.0571 158.14 12.5954C157.364 12.8635 156.658 13.3029 156.051 13.8544C155.446 14.4054 154.8 15.1282 154.822 15.9986C154.832 16.384 155.433 16.3856 155.423 15.9986Z" fill="#723A21"/>
<path d="M158.424 4.14617C157.547 3.85483 156.554 3.77119 155.673 4.09815C154.929 4.37428 154.273 4.90854 153.947 5.6429C153.88 5.79217 153.905 5.96385 154.054 6.0535C154.182 6.12953 154.399 6.09352 154.465 5.94584C154.736 5.33515 155.26 4.87532 155.89 4.65602C156.665 4.38668 157.498 4.47073 158.264 4.72525C158.632 4.84691 158.79 4.26743 158.424 4.14617Z" fill="#723A21"/>
<path d="M170.611 10.6588C170.688 10.6388 170.766 10.622 170.845 10.6104C170.789 10.6188 170.887 10.6064 170.899 10.6052C170.933 10.602 170.968 10.6 171.003 10.5984C171.083 10.5952 171.162 10.596 171.242 10.6012C171.272 10.6032 171.302 10.6064 171.331 10.6088C171.368 10.6132 171.371 10.6132 171.34 10.6092C171.36 10.612 171.38 10.6152 171.4 10.6184C171.715 10.672 171.929 10.7573 172.184 10.9229C172.316 11.0086 172.522 10.9538 172.595 10.8153C172.674 10.6656 172.628 10.4959 172.487 10.4047C171.891 10.0169 171.139 9.90244 170.452 10.0801C170.299 10.1193 170.193 10.2966 170.242 10.4495C170.292 10.606 170.448 10.7008 170.611 10.6588Z" fill="#723A21"/>
<path d="M165.049 24.1307C165.854 24.6618 166.949 24.677 167.773 24.18C168.104 23.9807 167.802 23.4616 167.471 23.6617C166.818 24.0551 165.989 24.0331 165.352 23.6125C165.217 23.5232 165.02 23.5857 164.942 23.7201C164.856 23.867 164.914 24.0415 165.049 24.1307Z" fill="#723A21"/>
<path d="M173.661 23.7719C173.62 23.8075 173.578 23.8419 173.535 23.8763C173.505 23.9003 173.533 23.8763 173.548 23.8671C173.537 23.8743 173.526 23.8835 173.515 23.8919C173.493 23.9083 173.472 23.9243 173.449 23.9399C173.358 24.0048 173.263 24.0656 173.166 24.1216C173.072 24.1761 172.975 24.2257 172.876 24.2713C172.851 24.2825 172.826 24.2933 172.802 24.3045C172.764 24.3209 172.855 24.2833 172.817 24.2981C172.804 24.3029 172.792 24.3085 172.779 24.3133C172.725 24.3345 172.671 24.3545 172.616 24.373C172.468 24.4238 172.354 24.5815 172.406 24.7423C172.454 24.8892 172.616 25.0065 172.776 24.952C173.259 24.7864 173.699 24.5322 174.085 24.1973C174.204 24.094 174.199 23.8771 174.085 23.7727C173.958 23.6554 173.788 23.6618 173.661 23.7719Z" fill="#723A21"/>
<path d="M145.068 20.785C145.242 20.27 145.702 19.8994 146.192 19.6993C146.844 19.434 147.566 19.4252 148.259 19.41C148.645 19.4016 148.646 18.8009 148.259 18.8097C147.448 18.8277 146.619 18.8581 145.866 19.1907C145.237 19.4684 144.711 19.9666 144.489 20.6254C144.366 20.9923 144.946 21.15 145.068 20.785Z" fill="#723A21"/>
<path d="M166.39 33.7088C166.33 33.4478 166.306 33.1733 166.38 32.9172C166.428 32.7555 166.553 32.5834 166.721 32.601C166.807 32.6102 166.879 32.6686 166.941 32.7287C167.12 32.9012 167.267 33.1077 167.461 33.2637C167.655 33.4202 167.919 33.5227 168.154 33.4402C168.507 33.3162 168.609 32.8667 168.607 32.4926C168.604 31.6486 168.427 30.7989 168.385 29.9525C168.338 29.0021 168.442 27.9884 169.014 27.228C169.576 26.482 170.927 25.8165 171.86 25.8101C172.848 25.8029 173.727 26.5345 174.163 27.4205C174.6 28.3069 174.673 29.3246 174.682 30.3127C174.691 31.1923 174.654 32.0824 174.411 32.9276C173.826 34.9562 171.83 36.1191 169.771 36.1135C168.181 36.1091 166.811 35.378 166.405 33.7692C166.4 33.7492 166.395 33.7288 166.39 33.7088Z" fill="#FFC6AD"/>
<path d="M147.947 38.1694C148.634 39.9579 148.33 41.9084 148.632 43.7657C148.762 44.5613 149.16 45.2821 150.039 45.3541C150.443 45.3873 150.855 45.2797 151.233 45.1456C151.701 44.9799 152.161 44.787 152.618 44.5941C152.769 44.5309 152.873 44.3964 152.828 44.2247C152.791 44.0835 152.608 43.9522 152.458 44.015C152.035 44.1931 151.61 44.3672 151.18 44.5273C150.842 44.653 150.476 44.7774 150.111 44.7582C149.269 44.7138 149.205 43.7065 149.142 43.0606C148.977 41.373 149.145 39.6233 148.526 38.0097C148.389 37.6528 147.809 37.808 147.947 38.1694Z" fill="#DE9A85"/>
<path d="M153.299 38.3336C155.113 38.773 157.058 38.4233 158.444 37.1242C158.726 36.8597 158.301 36.4355 158.019 36.6996C156.792 37.8494 155.06 38.1427 153.459 37.7545C153.083 37.6637 152.923 38.2424 153.299 38.3336Z" fill="#CF7C65"/>
<path d="M143.017 39.6871C143.575 40.0052 144.221 40.1117 144.853 40.014C145.472 39.9184 146.031 39.6118 146.51 39.218C146.635 39.1152 146.617 38.9003 146.51 38.7934C146.386 38.6694 146.211 38.6902 146.085 38.7934C145.309 39.4321 144.23 39.6875 143.32 39.1684C142.984 38.9771 142.682 39.4954 143.017 39.6871Z" fill="#CF7C65"/>
<path d="M167.532 45.2648C166.685 46.9985 165.626 48.6381 164.228 49.9803C162.78 51.3718 161.036 52.2814 159.137 52.8997C158.075 53.2459 156.987 53.5104 155.889 53.7169C155.509 53.7882 155.67 54.3669 156.049 54.2956C158.062 53.917 160.087 53.3564 161.909 52.4015C163.685 51.4706 165.165 50.0664 166.339 48.4528C166.999 47.5467 167.559 46.5735 168.05 45.5674C168.219 45.222 167.701 44.9171 167.532 45.2648Z" fill="#DE9A85"/>
<path d="M170.395 32.986C171.003 32.6995 171.695 32.0296 171.671 31.302C171.659 30.9727 171.453 30.7201 171.204 30.528C170.971 30.3476 170.665 30.2083 170.566 29.9101C170.455 29.5768 170.564 29.1702 170.68 28.852C170.8 28.5223 170.996 28.2045 171.271 27.9824C171.747 27.599 172.484 27.5662 172.898 28.0536C173.149 28.3482 173.572 27.922 173.323 27.629C172.86 27.0848 172.052 26.9639 171.405 27.2184C170.69 27.5002 170.228 28.1933 170.031 28.9125C169.931 29.2802 169.874 29.6972 169.987 30.0694C170.095 30.426 170.348 30.6513 170.641 30.8582C170.764 30.9455 170.914 31.0287 171.005 31.1532C171.117 31.3064 171.06 31.4785 170.983 31.6342C170.796 32.0132 170.469 32.2901 170.092 32.4678C169.742 32.6323 170.047 33.1501 170.395 32.986Z" fill="#DE9A85"/>
<path d="M172.86 29.4463C172.556 29.1341 172.206 28.8616 171.828 28.6443C171.634 28.5326 171.431 28.4386 171.224 28.3542C170.986 28.2573 170.73 28.1913 170.52 28.3886C170.406 28.4966 170.403 28.7055 170.52 28.8132C170.643 28.926 170.822 28.9284 170.945 28.8132C170.915 28.8408 170.876 28.8444 170.841 28.8552C170.868 28.8468 170.869 28.8624 170.839 28.8528C170.879 28.8656 170.92 28.8772 170.96 28.892C171 28.9072 171.039 28.9228 171.079 28.9392C171.128 28.9596 171.047 28.9252 171.096 28.9464C171.115 28.9552 171.135 28.9636 171.154 28.9725C171.32 29.0477 171.48 29.1333 171.635 29.2282C171.708 29.273 171.78 29.3198 171.85 29.3686C171.929 29.4235 171.976 29.4587 172.033 29.5043C172.175 29.6184 172.309 29.7412 172.436 29.8713C172.546 29.9837 172.751 29.9897 172.86 29.8713C172.972 29.75 172.978 29.5667 172.86 29.4463Z" fill="#DE9A85"/>
<path d="M170.025 32.6884C169.885 33.1723 170.118 33.7586 170.58 33.9815C170.821 34.0975 171.088 34.1247 171.348 34.0611C171.612 33.9967 171.826 33.8386 171.987 33.6245C172.081 33.4984 172.011 33.2835 171.879 33.2139C171.721 33.1307 171.569 33.1871 171.468 33.3215C171.52 33.2535 171.473 33.3135 171.46 33.3275C171.445 33.344 171.429 33.3596 171.412 33.3748C171.405 33.3812 171.398 33.3876 171.39 33.3936C171.373 33.408 171.38 33.402 171.413 33.3764C171.414 33.3776 171.372 33.4048 171.365 33.4088C171.343 33.4224 171.321 33.4348 171.298 33.4464C171.274 33.4584 171.228 33.4616 171.299 33.4476C171.262 33.4548 171.226 33.4736 171.189 33.4824C171.173 33.4864 171.124 33.4872 171.113 33.4972C171.127 33.4952 171.14 33.4932 171.154 33.4912C171.141 33.4924 171.129 33.4936 171.116 33.4944C171.077 33.4968 171.039 33.4944 171 33.4932C170.967 33.49 170.975 33.4912 171.023 33.4972C171.01 33.4952 170.997 33.4932 170.985 33.4904C170.966 33.4864 170.947 33.482 170.929 33.4768C170.91 33.4716 170.892 33.4652 170.874 33.4588C170.817 33.4396 170.934 33.4888 170.866 33.454C170.846 33.4436 170.827 33.4324 170.808 33.4204C170.788 33.4076 170.753 33.368 170.806 33.4224C170.777 33.3928 170.743 33.368 170.715 33.3367C170.709 33.3295 170.702 33.3223 170.696 33.3151C170.676 33.2903 170.68 33.2955 170.707 33.3304C170.706 33.3312 170.676 33.2847 170.675 33.2823C170.664 33.2659 170.655 33.2495 170.646 33.2323C170.64 33.2211 170.634 33.2095 170.628 33.1979C170.617 33.1743 170.617 33.1747 170.627 33.1987C170.637 33.2227 170.637 33.2227 170.628 33.1987C170.623 33.1867 170.619 33.1743 170.615 33.1623C170.609 33.1439 170.603 33.1254 170.599 33.1066C170.594 33.0878 170.591 33.069 170.586 33.0502C170.572 32.9906 170.592 33.1215 170.586 33.0442C170.583 33.0022 170.585 32.9614 170.586 32.9193C170.589 32.8557 170.572 32.9802 170.586 32.9229C170.592 32.8977 170.597 32.8729 170.604 32.8481C170.648 32.6972 170.551 32.5144 170.395 32.4787C170.234 32.4419 170.072 32.5268 170.025 32.6884Z" fill="#DE9A85"/>
<path d="M153.276 33.8719C153.097 33.8719 152.946 33.8559 152.815 33.8231C152.553 33.7571 152.344 33.603 152.269 33.4213C152.239 33.3461 152.234 33.248 152.237 33.2052L152.283 33.2056C152.293 33.1196 152.376 33.0139 152.48 32.9551C152.663 32.8514 152.917 32.8266 153.163 32.8026C154.844 32.6405 156.582 32.4728 158.295 32.42C158.362 32.4176 158.429 32.416 158.496 32.416C158.736 32.416 158.892 32.4404 159.018 32.4977C159.15 32.5577 159.254 32.6938 159.237 32.7826C159.226 32.839 159.15 32.9823 158.671 33.11C156.997 33.5554 155.249 33.7327 153.76 33.8471C153.599 33.8595 153.437 33.8719 153.276 33.8719Z" fill="#8A4D2F"/>
<path d="M144.326 34.2548C144.562 34.1852 144.811 34.1195 145.05 34.1764C145.366 34.252 145.536 34.5361 145.393 34.8391C145.238 35.1661 144.747 35.3822 144.441 35.533C143.615 35.94 142.698 36.1161 141.798 36.2726C141.456 36.3318 140.436 36.2406 140.862 35.6747C141.103 35.3557 141.649 35.2537 141.997 35.1024C142.755 34.7727 143.534 34.4893 144.326 34.2548Z" fill="#8A4D2F"/>
<path d="M149.462 43.4385C149.467 43.771 149.511 44.1052 149.592 44.4282C149.63 44.5806 149.81 44.6867 149.961 44.6379C150.119 44.5866 150.212 44.4322 150.171 44.2685C150.135 44.1224 150.106 43.9747 150.086 43.8255C150.09 43.8519 150.093 43.8787 150.097 43.9051C150.076 43.7502 150.065 43.5946 150.063 43.4381C150.06 43.2812 149.927 43.1307 149.763 43.1379C149.602 43.1455 149.459 43.27 149.462 43.4385Z" fill="#FCE8E1"/>
<path d="M158.077 30.1124C158.077 30.3977 158.077 30.6831 158.077 30.9684C158.077 31.1253 158.215 31.2758 158.377 31.2686C158.54 31.2614 158.677 31.1369 158.677 30.9684C158.677 30.6831 158.677 30.3977 158.677 30.1124C158.677 29.9555 158.539 29.8051 158.377 29.8123C158.215 29.8195 158.077 29.9439 158.077 30.1124Z" fill="#FCE8E1"/>
<path d="M171.406 35.5735C171.605 35.5003 171.804 35.4275 172.003 35.3542C172.078 35.3266 172.141 35.287 172.182 35.2161C172.22 35.1517 172.236 35.0569 172.213 34.9848C172.189 34.912 172.144 34.842 172.075 34.8055C172.007 34.7695 171.919 34.7475 171.843 34.7751C171.645 34.8484 171.446 34.9212 171.247 34.9944C171.172 35.0221 171.109 35.0617 171.067 35.1325C171.03 35.1969 171.014 35.2918 171.037 35.3638C171.061 35.4367 171.105 35.5067 171.175 35.5431C171.243 35.5791 171.332 35.6011 171.406 35.5735Z" fill="#FCE8E1"/>
<path d="M149.881 48.2659C149.914 48.2319 149.828 48.2875 149.909 48.2447C149.959 48.2186 150.008 48.191 150.058 48.1666C150.137 48.1294 150.291 48.0722 150.42 48.0274C150.822 47.8881 151.231 47.7736 151.642 47.6656C152.647 47.4019 153.667 47.1821 154.693 47.0193C155.15 46.9468 155.61 46.8848 156.073 46.872C156.466 46.8612 156.467 46.2497 156.073 46.2609C155.103 46.2881 154.128 46.483 153.18 46.6795C152.21 46.8804 151.235 47.1041 150.297 47.4247C150.018 47.5199 149.661 47.6152 149.449 47.8337C149.174 48.1158 149.606 48.5484 149.881 48.2659Z" fill="#DE9A85"/>
<path d="M152.677 49.5748C153.248 49.5172 153.825 49.4143 154.372 49.241C154.521 49.1938 154.633 49.0301 154.582 48.8717C154.533 48.7216 154.373 48.6111 154.212 48.662C153.863 48.7728 153.503 48.8496 153.14 48.9097C153.072 48.9209 153.003 48.9317 152.935 48.9417C152.903 48.9465 152.871 48.9509 152.839 48.9553C152.8 48.9609 152.914 48.9453 152.864 48.9517C152.853 48.9533 152.841 48.9549 152.829 48.9561C152.778 48.9625 152.727 48.9689 152.677 48.9741C152.521 48.9897 152.369 49.101 152.376 49.2742C152.384 49.4239 152.51 49.5916 152.677 49.5748Z" fill="#DE9A85"/>
<path d="M129.211 35.7636C129.05 34.8331 128.694 33.9495 128.335 33.0767C128.155 32.64 127.972 32.1962 127.924 31.7268C127.842 30.9232 128.16 30.1408 128.322 29.3492C128.563 28.1743 128.424 26.9529 128.017 25.8311C127.805 25.2488 127.505 24.7326 127.203 24.1955C127.007 23.847 126.549 23.3711 126.6 22.9617C126.641 22.6348 126.964 22.4007 127.29 22.3522C129.331 22.0497 130.979 24.1947 131.192 26.0292C131.126 25.4646 131.415 24.9239 131.524 24.3836C131.626 23.877 131.79 23.3895 131.907 22.8829C132.074 22.1565 132.215 21.423 132.393 20.699C132.97 18.3467 133.445 15.9375 134.188 13.6312C134.476 12.7364 135.305 11.0383 135.966 11.3825C135.966 11.3825 136.331 9.82094 136.507 9.01615C136.645 8.38865 138.975 9.22386 138.727 11.5422C138.618 12.5559 138.536 14.2303 138.141 15.9143C138.141 15.9143 139.398 11.5186 139.583 10.9703C139.819 10.2696 142.135 10.6686 142.067 12.8776C142.037 13.8297 141.178 15.0227 140.808 18.7057C140.438 22.3887 140.301 23.8514 140.268 25.4946C140.268 25.4946 141.554 23.0586 142.356 20.8419C142.979 19.1195 143.925 17.425 144.906 15.8823C145.102 15.5729 145.365 15.2364 145.732 15.2284C147.736 15.186 145.56 19.8894 145.287 20.691C144.595 22.7164 144.505 24.9919 144.438 27.1306C144.39 28.6649 143.01 35.0524 142.34 36.5848C142.087 37.165 141.81 37.7413 141.425 38.2444C141.055 38.7282 140.593 39.1344 140.111 39.507C138.614 40.6647 136.865 41.5388 134.993 41.8205C133.122 42.1023 131.124 41.7557 129.57 40.6768C129.284 40.4787 129.007 40.2481 128.85 39.938C128.506 39.2589 128.831 38.5805 129.106 37.9582C129.406 37.2759 129.338 36.4923 129.211 35.7636Z" fill="#FFC6AD"/>
<path d="M128.52 30.4478C128.518 30.467 128.515 30.4858 128.513 30.505C128.517 30.4786 128.52 30.4518 128.524 30.4254C128.479 30.7551 128.399 31.0789 128.285 31.391C128.259 31.4607 128.279 31.5603 128.315 31.6224C128.351 31.6848 128.423 31.744 128.494 31.7604C128.664 31.7988 128.806 31.7088 128.864 31.5507C128.995 31.1934 129.075 30.8252 129.121 30.4478C129.13 30.377 129.081 30.2837 129.033 30.2357C128.981 30.1837 128.895 30.1444 128.821 30.1476C128.743 30.1512 128.663 30.1765 128.609 30.2357C128.551 30.2981 128.53 30.3637 128.52 30.4478Z" fill="#FCE8E1"/>
<path d="M136.644 9.40043C136.636 9.48647 136.626 9.57211 136.615 9.65735C136.618 9.63094 136.622 9.60413 136.625 9.57771C136.59 9.84064 136.538 10.1012 136.469 10.3577C136.429 10.5094 136.52 10.6907 136.679 10.7271C136.836 10.7631 137.005 10.6798 137.049 10.5174C137.146 10.1512 137.209 9.77741 137.244 9.40043C137.251 9.32799 137.206 9.23795 137.156 9.18832C137.104 9.1363 137.018 9.09708 136.944 9.10028C136.769 9.10828 136.66 9.23234 136.644 9.40043Z" fill="#FCE8E1"/>
<path d="M146.311 16.512C145.933 18.6931 144.894 20.6865 144.426 22.8459C143.955 25.015 143.749 27.2468 143.435 29.4423C143.129 31.5782 142.782 33.718 142.176 35.7922C141.877 36.8139 141.455 37.8092 140.781 38.6444C140.258 39.2931 139.614 39.827 138.878 40.2176C138.664 40.3312 138.444 40.4333 138.219 40.5213C137.961 40.6214 137.701 40.6466 137.556 40.8983C137.24 41.447 136.969 42.0272 136.677 42.5895C136.499 42.9321 137.017 43.2358 137.195 42.8925C137.503 42.3006 137.81 41.7083 138.118 41.1172C138.059 41.1632 137.999 41.2092 137.939 41.2553C139.376 40.791 140.612 39.9254 141.492 38.694C142.088 37.8592 142.479 36.9027 142.764 35.9223C143.342 33.9333 143.684 31.8847 143.98 29.8377C144.287 27.7191 144.501 25.576 144.909 23.4742C145.137 22.3004 145.498 21.1767 145.899 20.0525C146.295 18.9452 146.689 17.8343 146.89 16.6721C146.955 16.2935 146.377 16.1314 146.311 16.512Z" fill="#DE9A85"/>
<path d="M130.732 25.4372C130.522 26.3196 130.312 27.2016 130.103 28.0837C130.014 28.4591 130.593 28.6195 130.682 28.2434C130.891 27.3613 131.101 26.4789 131.31 25.5969C131.4 25.2211 130.821 25.061 130.732 25.4372Z" fill="#DE9A85"/>
<path d="M135.596 11.5331C134.991 14.7815 134.558 18.0567 134.171 21.3371C134.066 22.2259 133.963 23.1147 133.86 24.0036C133.815 24.3865 134.416 24.3833 134.46 24.0036C134.828 20.8564 135.183 17.7077 135.679 14.5774C135.831 13.6133 135.997 12.6516 136.175 11.6924C136.245 11.315 135.667 11.1533 135.596 11.5331Z" fill="#DE9A85"/>
<path d="M138.008 15.4292C137.91 16.0343 137.728 16.629 137.588 17.2249C137.288 18.4923 137.038 19.7709 136.823 21.0555C136.636 22.1689 136.477 23.287 136.332 24.4064C136.283 24.7886 136.884 24.785 136.933 24.4064C137.281 21.7043 137.759 19.033 138.409 16.3877C138.474 16.1231 138.543 15.8582 138.587 15.5889C138.648 15.2107 138.069 15.0482 138.008 15.4292Z" fill="#DE9A85"/>
<path d="M141.295 11.8112C141.766 12.309 141.691 13.1258 141.579 13.7465C141.431 14.5641 141.139 15.3485 140.96 16.1593C140.526 18.1199 140.412 20.1284 140.27 22.1258C140.196 23.1543 140.13 24.1832 140.074 25.2125C140.052 25.5987 140.653 25.5975 140.674 25.2125C140.781 23.2572 140.896 21.2962 141.082 19.3469C141.184 18.2827 141.331 17.2222 141.571 16.1793C141.758 15.3613 142.059 14.5685 142.186 13.7373C142.309 12.9317 142.317 12.0169 141.72 11.3866C141.454 11.1057 141.03 11.5307 141.295 11.8112Z" fill="#DE9A85"/>
<path d="M143.219 17.8166C142.893 18.2452 142.659 18.743 142.438 19.2313C142.141 19.8868 141.877 20.5571 141.62 21.2286C141.131 22.5077 140.7 23.8211 140.114 25.0609C139.95 25.4083 140.468 25.7132 140.633 25.3639C141.221 24.1196 141.659 22.8054 142.149 21.5212C142.403 20.8533 142.662 20.1857 142.956 19.5342C143.177 19.046 143.412 18.5477 143.738 18.1195C143.972 17.8122 143.451 17.5128 143.219 17.8166Z" fill="#DE9A85"/>
<path d="M127.112 23.2927C127.498 23.2927 127.499 22.6924 127.112 22.6924C126.726 22.6924 126.725 23.2927 127.112 23.2927Z" fill="#FCE8E1"/>
<path d="M145.284 16.6037C145.415 16.458 145.545 16.312 145.675 16.1663C145.728 16.1071 145.763 16.0354 145.763 15.9542C145.763 15.8805 145.73 15.7925 145.675 15.7421C145.618 15.6897 145.543 15.6504 145.463 15.654C145.386 15.6576 145.304 15.6825 145.251 15.7421C145.12 15.8878 144.99 16.0334 144.86 16.1795C144.807 16.2387 144.772 16.3104 144.772 16.3916C144.772 16.4652 144.805 16.5533 144.86 16.6037C144.917 16.6561 144.992 16.6953 145.072 16.6917C145.149 16.6881 145.231 16.6629 145.284 16.6037Z" fill="#FCE8E1"/>
<path d="M197.06 84.7163C196.103 84.0156 195.172 83.2676 194.12 82.7101C193.779 82.5292 193.476 83.0471 193.817 83.2284C194.869 83.7859 195.8 84.5338 196.757 85.2346C196.888 85.3306 197.092 85.2566 197.168 85.1269C197.257 84.9748 197.191 84.8123 197.06 84.7163Z" fill="#3790BC"/>
<path d="M153.421 58.8931C154.043 59.9321 154.899 60.8041 155.953 61.4056C156.962 61.9818 158.096 62.3064 159.239 62.4901C159.928 62.601 160.625 62.6666 161.322 62.709C161.708 62.7322 161.707 62.1319 161.322 62.1087C159.9 62.0227 158.46 61.8418 157.128 61.3099C155.784 60.7733 154.682 59.8312 153.94 58.5902C153.741 58.2592 153.222 58.5606 153.421 58.8931Z" fill="#3790BC"/>
<path d="M132.047 74.8125C133.277 75.9871 134.449 77.2213 135.558 78.5107C135.81 78.8041 136.233 78.3779 135.982 78.0861C134.873 76.7967 133.702 75.5625 132.472 74.3879C132.193 74.1214 131.767 74.5452 132.047 74.8125Z" fill="#3790BC"/>
<path d="M182.714 110.716C184.775 113.686 187.613 115.971 190.6 117.957C191.459 118.529 192.332 119.078 193.211 119.618C193.541 119.821 193.843 119.303 193.514 119.1C190.518 117.256 187.536 115.295 185.109 112.719C184.429 111.996 183.799 111.229 183.233 110.413C183.014 110.098 182.493 110.398 182.714 110.716Z" fill="#3790BC"/>
<path d="M194.705 117.4C194.905 118.14 195.123 118.876 195.36 119.606C195.41 119.76 195.568 119.86 195.729 119.815C195.88 119.774 195.989 119.601 195.939 119.446C195.702 118.716 195.484 117.981 195.284 117.24C195.242 117.084 195.071 116.988 194.915 117.031C194.757 117.074 194.663 117.243 194.705 117.4Z" fill="#3790BC"/>
<path d="M152.694 104.402C153.615 106.409 155.129 108.055 156.707 109.568C158.472 111.262 160.281 112.913 162.078 114.574C163.001 115.428 163.964 116.268 165.109 116.812C165.456 116.977 165.761 116.459 165.412 116.294C164.415 115.821 163.567 115.123 162.757 114.384C161.852 113.559 160.961 112.717 160.065 111.884C158.406 110.342 156.665 108.846 155.191 107.122C154.405 106.203 153.718 105.201 153.212 104.099C153.052 103.749 152.534 104.053 152.694 104.402Z" fill="#3790BC"/>
<path d="M203.6 79.7738C204.467 81.9508 205.268 84.1531 206.002 86.3786C206.123 86.7439 206.702 86.5875 206.581 86.2189C205.846 83.9938 205.045 81.7911 204.178 79.6141C204.037 79.2595 203.456 79.4144 203.6 79.7738Z" fill="#3790BC"/>
<path d="M176.327 48.9926C176.486 49.1519 176.635 49.3212 176.773 49.4997C176.758 49.4792 176.742 49.4592 176.727 49.4388C176.806 49.5421 176.881 49.6481 176.953 49.7566C176.996 49.8218 177.056 49.8734 177.132 49.8946C177.204 49.9143 177.3 49.9055 177.364 49.8642C177.494 49.7802 177.564 49.5937 177.471 49.4536C177.262 49.1363 177.021 48.8373 176.752 48.5684C176.641 48.4571 176.437 48.4491 176.327 48.5684C176.217 48.6877 176.209 48.8737 176.327 48.9926Z" fill="#3790BC"/>
<path d="M177.912 120.274C178.301 120.294 178.69 120.287 179.078 120.253C179.159 120.246 179.231 120.224 179.29 120.165C179.342 120.113 179.381 120.027 179.378 119.953C179.371 119.802 179.245 119.638 179.078 119.653C178.69 119.686 178.301 119.694 177.912 119.674C177.755 119.666 177.605 119.818 177.611 119.974C177.619 120.143 177.743 120.266 177.912 120.274Z" fill="#FCE8E1"/>
<path d="M171.37 61.3073C173.846 60.4677 176.154 59.2175 178.216 57.6119C178.521 57.375 178.093 56.9528 177.792 57.1873C175.816 58.7257 173.581 59.9243 171.211 60.7283C170.847 60.8519 171.003 61.4318 171.37 61.3073Z" fill="#034054"/>
<path d="M178.725 49.2004C178.857 49.4489 178.98 49.7026 179.091 49.9608C179.096 49.9704 179.133 50.0596 179.113 50.0116C179.127 50.0436 179.14 50.0756 179.153 50.1076C179.179 50.1717 179.204 50.2361 179.229 50.3005C179.28 50.4342 179.329 50.569 179.374 50.7047C179.424 50.8532 179.583 50.9664 179.744 50.9144C179.891 50.8668 180.007 50.7043 179.953 50.545C179.762 49.978 179.524 49.4257 179.244 48.897C179.171 48.7582 178.966 48.7041 178.834 48.7894C178.692 48.8806 178.646 49.0519 178.725 49.2004Z" fill="#034054"/>
<path d="M223.392 75.1525C223.948 74.6571 224.626 74.2545 225.323 74.0068C225.476 73.9523 225.578 73.8019 225.533 73.6374C225.493 73.4897 225.317 73.3733 225.164 73.4277C224.353 73.7162 223.61 74.1548 222.968 74.7279C222.847 74.836 222.858 75.0425 222.968 75.1525C223.088 75.273 223.271 75.261 223.392 75.1525Z" fill="#034054"/>
<path d="M182.884 111.693C181.499 110.011 180.202 108.257 178.996 106.442C178.784 106.122 178.264 106.422 178.478 106.745C179.712 108.603 181.042 110.395 182.46 112.118C182.705 112.416 183.128 111.989 182.884 111.693Z" fill="#034054"/>
<path d="M196.142 147.654C196.092 148.464 196.042 149.273 195.991 150.083C195.981 150.245 196.136 150.383 196.291 150.383C196.462 150.383 196.581 150.245 196.591 150.083C196.642 149.273 196.692 148.464 196.742 147.654C196.752 147.492 196.597 147.354 196.442 147.354C196.271 147.354 196.152 147.492 196.142 147.654Z" fill="#034054"/>
<path d="M122.161 75.5715C122.351 76.8806 122.529 78.2036 122.359 79.525C122.339 79.6871 122.512 79.8236 122.66 79.8252C122.839 79.8272 122.939 79.6851 122.96 79.525C123.136 78.1504 122.937 76.7725 122.74 75.4118C122.716 75.2502 122.513 75.1645 122.37 75.2021C122.197 75.2478 122.137 75.4118 122.161 75.5715Z" fill="#034054"/>
<path d="M201.802 56.1633C201.94 56.0048 202.091 55.8576 202.253 55.7239C202.273 55.7075 202.293 55.6915 202.313 55.6759C202.321 55.6695 202.354 55.6439 202.316 55.6731C202.276 55.7043 202.317 55.6723 202.326 55.6655C202.367 55.6347 202.409 55.605 202.451 55.5758C202.54 55.5146 202.631 55.4574 202.724 55.4033C202.861 55.3253 202.919 55.128 202.832 54.9927C202.744 54.8551 202.567 54.8015 202.422 54.8851C202.031 55.1092 201.674 55.3994 201.378 55.7387C201.325 55.7991 201.29 55.8684 201.29 55.9508C201.29 56.0245 201.323 56.1125 201.378 56.1629C201.491 56.2674 201.692 56.2898 201.802 56.1633Z" fill="#034054"/>
</svg>
