<svg width="136" height="120" viewBox="0 0 136 120" fill="none" xmlns="http://www.w3.org/2000/svg">
<path d="M44.9993 117.849C32.939 114.871 24.8773 107.617 20.2618 99.6166C8.42109 79.0942 -4.84926 35.3789 19.9573 12.2224C43.1211 -9.4004 81.1002 4.06552 83.5158 4.96114C105.916 13.267 131.646 35.9055 129.832 63.2707C128.447 84.1633 111.684 97.5988 101.998 105.362C96.4106 109.841 76.8171 125.706 44.9993 117.849Z" fill="#DBE6F7"/>
<path d="M53 18C48.1419 18 44.1053 21.4199 43.1875 26H92.8125C91.8947 21.4199 87.8581 18 83 18H53ZM43 30V86H93V30H43ZM78 41C80.7614 41 83 43.2386 83 46C83 48.7614 80.7614 51 78 51C76.8626 51 75.8401 50.6083 75 49.9688L62.9688 57.5C62.9858 57.6681 62.9998 57.8274 62.9998 58C62.9998 58.1726 62.9858 58.3319 62.9688 58.5L75.0312 66C75.8656 65.3761 76.8783 65 78 65C80.7614 65 83 67.2386 83 70C83 72.7614 80.7614 75 78 75C75.2387 75 73 72.7614 73 70C73 69.8274 73.014 69.6681 73.031 69.5L61 61.9688C60.16 62.6084 59.1375 63 58 63C55.2387 63 53 60.7614 53 58C53 55.2386 55.2387 53 58 53C59.1218 53 60.1344 53.3761 60.9688 54L73.0312 46.4688C73.0162 46.3107 73.0002 46.1618 73.0002 46C73.0002 43.2386 75.2386 41 78 41ZM43 90V92C43 97.54 47.46 102 53 102H83C88.54 102 93 97.54 93 92V90H43ZM60 94H76C77.1046 94 78 94.8955 78 96C78 97.1046 77.1046 98 76 98H60C58.8954 98 58 97.1046 58 96C58 94.8955 58.8954 94 60 94Z" fill="#163356"/>
</svg>
