<svg width="37" height="37" viewBox="0 0 37 37" fill="none" xmlns="http://www.w3.org/2000/svg">
<path d="M18.4975 0.5C12.2202 0.5 6.39496 3.77282 3.12766 9.13436C-0.137875 14.4944 -0.37503 21.171 2.50194 26.7501L1.48943 34.8646C1.43288 35.2788 1.56057 35.6984 1.83605 36.0121C2.11334 36.3259 2.51104 36.5029 2.93066 36.4992H3.1058L12.1927 35.37V35.3718C17.1875 37.229 22.7484 36.7765 27.3785 34.1386C32.0086 31.5006 35.2301 26.9473 36.1791 21.7021C37.1277 16.4589 35.703 11.0647 32.2897 6.97078C28.8782 2.87884 23.8267 0.509017 18.498 0.500143L18.4975 0.5ZM17.5251 29.4556C16.934 29.4556 16.4013 29.0998 16.1769 28.5543C15.9507 28.0089 16.0748 27.3813 16.4926 26.9636C16.9103 26.5476 17.5379 26.4217 18.0833 26.6479C18.6288 26.8742 18.9845 27.405 18.9845 27.9961C18.9736 28.797 18.326 29.4446 17.5251 29.4556ZM21.046 19.5896C19.8128 20.0074 18.9827 21.1659 18.9846 22.4703V23.1325V23.1307C18.9846 23.937 18.3296 24.5901 17.5251 24.5901C16.7187 24.5901 16.0656 23.937 16.0656 23.1307V22.4684V22.4703C16.0292 19.898 17.682 17.6067 20.132 16.8258C21.1883 16.4755 21.9016 15.4867 21.9035 14.3739C21.9035 12.4931 20.3783 10.9697 18.4974 10.9697C16.6166 10.9697 15.0914 12.493 15.0914 14.3739C15.0914 15.1803 14.4383 15.8334 13.632 15.8334C12.8274 15.8334 12.1725 15.1803 12.1725 14.3739C12.1725 10.8822 15.0039 8.05086 18.4974 8.05086C21.991 8.05086 24.8224 10.8822 24.8224 14.3739C24.8169 16.7437 23.2954 18.8453 21.046 19.5896Z" fill="#163356"/>
</svg>
