<svg width="29" height="13" viewBox="0 0 29 13" fill="none" xmlns="http://www.w3.org/2000/svg">
<path d="M28.5373 8.6481L28.2177 10.1137C27.9173 11.4876 26.5989 12.3812 25.1376 12.2022L22.2268 11.8447C20.9597 11.6886 19.9002 10.7597 19.608 9.54895L18.7963 6.17646C17.4778 5.59669 16.0158 5.30991 14.4109 5.31497C12.8654 5.3074 11.3342 5.60916 9.90772 6.20237L9.2689 9.32387C9.02598 10.5055 8.01858 11.3666 6.7712 11.4579L3.86344 11.6741C2.41171 11.7811 1.04894 10.8263 0.673659 9.4405L0.270901 7.95609C-0.129238 6.47777 0.30252 4.94338 1.40556 3.93038C4.00961 1.53561 8.27342 0.413796 14.1996 0.560328C20.1348 0.707394 24.4687 2.04821 27.1961 4.58126C28.344 5.64691 28.8551 7.19373 28.5373 8.6481Z" fill="white"/>
</svg>
