<svg width="18" height="17" viewBox="0 0 18 17" fill="none" xmlns="http://www.w3.org/2000/svg">
<path d="M14.5782 0.285751H3.26042C1.90637 0.285751 0.819336 1.37279 0.819336 2.72683V11.0713C0.819336 12.4254 1.90637 13.5124 3.26042 13.5124H4.85804V16.1528C4.85804 16.2863 4.94646 16.3972 5.05742 16.4631C5.10163 16.4856 5.14584 16.4856 5.19091 16.4856C5.27933 16.4856 5.36862 16.4631 5.43538 16.3972L8.29765 13.5123H14.5781C15.9322 13.5123 17.0192 12.4253 17.0192 11.0712V2.72673C17.0192 1.37268 15.9322 0.285751 14.5782 0.285751ZM8.91929 10.8936C8.498 10.8936 8.14258 10.5382 8.14258 10.1169C8.14258 9.69559 8.498 9.34017 8.91929 9.34017C9.34057 9.34017 9.69599 9.69559 9.69599 10.1169C9.69599 10.5382 9.34057 10.8936 8.91929 10.8936ZM10.1173 7.0542C9.71765 7.27612 9.47408 7.6532 9.47408 8.05283V8.16379C9.47408 8.47411 9.22962 8.71858 8.91929 8.71858C8.60896 8.71858 8.3645 8.47411 8.3645 8.16379V8.05283C8.3645 7.23191 8.83088 6.47687 9.60758 6.05558C10.0956 5.78946 10.4068 5.27887 10.3843 4.72408C10.3618 3.96992 9.71854 3.32583 8.96438 3.30417C8.56475 3.28163 8.18767 3.43767 7.899 3.72546C7.61034 4.01413 7.45517 4.36866 7.45517 4.76829C7.45517 5.07861 7.21071 5.32308 6.90038 5.32308C6.59005 5.32308 6.34559 5.07861 6.34559 4.76829C6.34559 4.05833 6.63426 3.41424 7.1223 2.9262C7.63288 2.43816 8.29863 2.17204 8.98604 2.1937C10.3175 2.23791 11.4498 3.34749 11.4939 4.70158C11.5156 5.67852 11.0049 6.58774 10.1173 7.0542Z" fill="#163356"/>
</svg>
