<svg width="45" height="44" viewBox="0 0 45 44" fill="none" xmlns="http://www.w3.org/2000/svg">
<path d="M19.0625 1.375L22.5 8.25L25.9375 1.375H19.0625Z" fill="#4AA9FF"/>
<path d="M31.368 2.0625L30.8867 9.7625L37.2805 5.5L31.368 2.0625Z" fill="#4AA9FF"/>
<path d="M7.71875 5.5L14.1812 9.7625L13.7 2.0625L7.71875 5.5Z" fill="#4AA9FF"/>
<path d="M14.5246 42.625H6.41211V33.7562L15.8996 35.9562C13.6309 38.3625 14.5246 42.625 14.5246 42.625Z" fill="#E6B796"/>
<path d="M13.7703 42.625H4.69531C4.69531 42.625 4.83281 38.225 3.32031 34.4437L14.6641 36.0937C13.3578 39.4625 13.7703 42.625 13.7703 42.625Z" fill="#FFE1BD"/>
<path d="M12.875 30.525H16.3125V15.2625C16.3125 14.2313 15.5563 13.4062 14.5938 13.4062C13.6313 13.4062 12.875 14.2312 12.875 15.3312V30.525Z" fill="#FFE1BD"/>
<path d="M8.81875 30.525H12.875V13.9562C12.875 12.7187 11.9813 11.6875 10.8125 11.6875C9.7125 11.6875 8.75 12.7187 8.75 13.9562V30.525H8.81875Z" fill="#FFE1BD"/>
<path d="M5.3125 30.5251H8.8875V14.9188C8.8875 13.8188 8.0625 12.925 7.1 12.925C6.1375 12.925 5.3125 13.8188 5.3125 14.9188V30.5251Z" fill="#FFE1BD"/>
<path d="M3.66328 15.2625C2.76953 15.2625 2.08203 16.0875 2.08203 17.1187V30.525H5.31328V17.1187C5.31328 16.0875 4.55703 15.2625 3.66328 15.2625Z" fill="#FFE1BD"/>
<path d="M14.5938 13.3375H14.25C15.075 13.475 15.6938 14.3 15.6938 15.1938V30.525H16.3125V15.2625C16.3125 14.2313 15.5562 13.3375 14.5938 13.3375Z" fill="#E6B796"/>
<path d="M10.8805 11.6875C10.743 11.6875 10.6742 11.6875 10.6055 11.7563C11.568 11.8938 12.3242 12.8562 12.3242 13.9562V25.025L12.943 25.7125V13.9562C12.8742 12.7187 11.9805 11.6875 10.8805 11.6875Z" fill="#E6B796"/>
<path d="M7.09922 12.925H6.82422C7.64922 13.0625 8.26797 13.8875 8.26797 14.85V24.9563L8.88672 25.6438V14.9188C8.81797 13.8188 8.06172 12.925 7.09922 12.925Z" fill="#E6B796"/>
<path d="M3.66172 15.2625C3.52422 15.2625 3.45547 15.2625 3.38672 15.3312C4.14297 15.4687 4.69297 16.225 4.69297 17.1187V25.025L5.31172 25.7125V17.1187C5.31172 16.0875 4.55547 15.2625 3.66172 15.2625Z" fill="#E6B796"/>
<path d="M22.0867 23.5125C21.0554 22.3437 18.9929 22.8937 17.5492 25.9187C16.5179 27.9812 16.2429 27.5687 15.6929 27.7062V25.85C15.6929 25.85 2.01167 24.9562 2.01167 27.0187C2.01167 27.0187 1.39292 32.1062 2.69917 35.2687C4.69292 40.0125 14.8679 41.25 18.0304 33.2062C18.6492 31.625 19.5429 29.9062 20.2304 28.1875C21.1242 26.125 23.2554 24.8875 22.0867 23.5125Z" fill="#FFE1BD"/>
<path d="M21.4008 23.0312C23.6008 24.6813 19.5445 27.8437 17.6195 32.725C14.8695 39.7375 6.82578 39.7375 3.45703 36.5063C6.55078 40.15 15.1445 40.8375 18.032 33.2063C19.957 28.2562 24.632 24.475 21.4008 23.0312Z" fill="#E6B796"/>
<path d="M16.3133 27.6375C13.632 26.675 7.99455 28.5312 8.7508 33.8937C8.7508 28.875 13.2195 27.7062 15.6945 27.7062C16.0383 27.7062 16.3133 27.6375 16.3133 27.6375Z" fill="#E6B796"/>
<path d="M30.4766 42.625H38.5891V33.7562L29.1016 35.9562C31.3703 38.3625 30.4766 42.625 30.4766 42.625Z" fill="#E6B796"/>
<path d="M31.2316 42.625H40.3066C40.3066 42.625 40.1691 38.225 41.6816 34.4437L30.3379 36.0937C31.6441 39.4625 31.2316 42.625 31.2316 42.625Z" fill="#FFE1BD"/>
<path d="M32.125 30.525H28.6875V15.2625C28.6875 14.2313 29.4438 13.4062 30.4062 13.4062C31.3688 13.4062 32.125 14.2312 32.125 15.3312V30.525Z" fill="#FFE1BD"/>
<path d="M36.1813 30.525H32.125V13.9562C32.125 12.7187 33.0187 11.6875 34.1875 11.6875C35.2875 11.6875 36.25 12.7187 36.25 13.9562V30.525H36.1813Z" fill="#FFE1BD"/>
<path d="M39.6883 30.5251H36.1133V14.9188C36.1133 13.8188 36.9383 12.925 37.9008 12.925C38.8633 12.925 39.6883 13.8188 39.6883 14.9188V30.5251Z" fill="#FFE1BD"/>
<path d="M41.3375 15.2625C42.2313 15.2625 42.9188 16.0875 42.9188 17.1187V30.525H39.6875V17.1187C39.6875 16.0875 40.4438 15.2625 41.3375 15.2625Z" fill="#FFE1BD"/>
<path d="M30.4062 13.3375H30.75C29.925 13.475 29.3063 14.3 29.3063 15.1938V30.525H28.6875V15.2625C28.6875 14.2313 29.4438 13.3375 30.4062 13.3375Z" fill="#E6B796"/>
<path d="M34.1191 11.6875C34.2566 11.6875 34.3254 11.6875 34.3941 11.7563C33.4316 11.8938 32.6754 12.8562 32.6754 13.9562V25.025L32.0566 25.7125V13.9562C32.1254 12.7187 33.0191 11.6875 34.1191 11.6875Z" fill="#E6B796"/>
<path d="M37.9008 12.925H38.1758C37.3508 13.0625 36.732 13.8875 36.732 14.85V24.9563L36.1133 25.6438V14.9188C36.182 13.8188 36.9383 12.925 37.9008 12.925Z" fill="#E6B796"/>
<path d="M41.3375 15.2625C41.475 15.2625 41.5437 15.2625 41.6125 15.3312C40.8562 15.4687 40.3063 16.225 40.3063 17.1187V25.025L39.6875 25.7125V17.1187C39.6875 16.0875 40.4438 15.2625 41.3375 15.2625Z" fill="#E6B796"/>
<path d="M22.9122 23.5125C23.9434 22.3437 26.0059 22.8937 27.4497 25.9187C28.4809 27.9812 28.7559 27.5687 29.3059 27.7062V25.85C29.3059 25.85 42.9872 24.9562 42.9872 27.0187C42.9872 27.0187 43.6059 32.1062 42.2997 35.2687C40.3059 40.0125 30.1309 41.25 26.9684 33.2062C26.3497 31.625 25.4559 29.9062 24.7684 28.1875C23.8747 26.125 21.7434 24.8875 22.9122 23.5125Z" fill="#FFE1BD"/>
<path d="M23.6002 23.0312C21.4002 24.6813 25.4564 27.8437 27.3814 32.725C30.1314 39.7375 38.1752 39.7375 41.5439 36.5063C38.4502 40.15 29.8564 40.8375 26.9689 33.2063C25.0439 28.2562 20.3689 24.475 23.6002 23.0312Z" fill="#E6B796"/>
<path d="M28.6875 27.6375C31.3687 26.675 37.0062 28.5312 36.25 33.8937C36.25 28.875 31.7813 27.7062 29.3063 27.7062C28.9625 27.7062 28.6875 27.6375 28.6875 27.6375Z" fill="#E6B796"/>
</svg>
