<svg width="15" height="17" viewBox="0 0 15 17" fill="none" xmlns="http://www.w3.org/2000/svg">
<path d="M2.39873 3.23063L4.7714 0.465357C5.04452 0.158104 5.53953 0.260522 5.65902 0.653122L5.9492 1.55781C8.18532 1.06279 10.6433 1.6773 12.3844 3.43546C14.2792 5.33019 14.8595 8.02718 14.1255 10.434C13.9036 11.1509 12.9989 11.3899 12.4698 10.8607C12.2137 10.6047 12.1113 10.2121 12.2308 9.8707C12.7429 8.14667 12.3332 6.21781 10.9847 4.85224C9.77279 3.6403 8.09997 3.17942 6.52957 3.4696L6.80268 4.35722C6.92217 4.74982 6.56371 5.10828 6.17111 5.00587L2.65477 4.06704C2.27924 3.96462 2.14269 3.52081 2.39873 3.23063Z" fill="#163356"/>
<path d="M2.48415 13.3359C0.589429 11.4412 0.00906309 8.74419 0.725986 6.35444C0.94789 5.63752 1.85258 5.39855 2.38174 5.92771C2.63778 6.18375 2.7402 6.57635 2.62071 6.91774C2.10862 8.64177 2.51829 10.5706 3.86679 11.9362C5.07873 13.1481 6.75155 13.609 8.32195 13.3188L8.04884 12.4312C7.92935 12.0386 8.28781 11.6802 8.68041 11.7826L12.2138 12.7043C12.5893 12.8067 12.7259 13.2506 12.4699 13.5407L10.0972 16.306C9.82407 16.6133 9.32906 16.5108 9.20957 16.1182L8.91939 15.2136C6.68327 15.7086 4.22525 15.0941 2.48415 13.3359Z" fill="#163356"/>
</svg>
