<svg width="12" height="13" viewBox="0 0 12 13" fill="none" xmlns="http://www.w3.org/2000/svg">
<path d="M8.68842 10.084C9.26123 9.51124 9.65132 8.78143 9.80935 7.98692C9.96739 7.19241 9.88628 6.36888 9.57628 5.62047C9.26628 4.87205 8.7413 4.23237 8.06775 3.78232C7.3942 3.33227 6.60231 3.09205 5.79224 3.09205C4.98216 3.09205 4.19028 3.33227 3.51672 3.78232C2.84317 4.23238 2.3182 4.87205 2.00819 5.62047C1.69819 6.36888 1.61708 7.19241 1.77512 7.98692C1.93316 8.78143 2.32325 9.51124 2.89606 10.084L5.79224 7.18787L8.68842 10.084Z" fill="white"/>
<path d="M10.1875 4.21036L10.5971 3.78502C10.6128 3.76927 10.6128 3.75351 10.6286 3.75351C10.8334 3.50146 10.8176 3.13914 10.5971 2.90284L9.9197 2.22546C9.6834 1.98916 9.28958 1.98916 9.05328 2.20971L9.03753 2.22546L8.61219 2.66655C8.12384 2.36724 7.57248 2.14669 6.98962 2.02067V1.28027H7.30468C7.65125 1.28027 7.93481 0.996714 7.93481 0.650145C7.93481 0.303576 7.65125 0.0200195 7.30468 0.0200195H4.45336C4.10679 0.0200195 3.82324 0.303576 3.82324 0.650145C3.82324 0.996714 4.10679 1.28027 4.45336 1.28027H4.76842V2.03642C2.43696 2.54052 0.672607 4.61994 0.672607 7.10893C0.672607 9.97601 3.00407 12.3075 5.87114 12.3075C8.73822 12.3075 11.0697 9.97601 11.0697 7.10893C11.0697 6.03772 10.7389 5.02952 10.1875 4.21036ZM6.02868 6.9514V3.17065C7.06838 3.17065 8.01357 3.59598 8.70671 4.27337C9.3841 4.96651 9.80943 5.9117 9.80943 6.9514H6.02868Z" fill="#007AFF"/>
<mask id="path-3-inside-1_1510_1350" fill="white">
<path d="M5.79235 3.09157C4.98227 3.09157 4.19039 3.33178 3.51684 3.78184C2.84328 4.23189 2.31831 4.87157 2.00831 5.61998C1.69831 6.3684 1.61719 7.19193 1.77523 7.98644C1.93327 8.78095 2.32336 9.51076 2.89617 10.0836C3.46898 10.6564 4.19879 11.0465 4.9933 11.2045C5.78781 11.3625 6.61134 11.2814 7.35975 10.9714C8.10816 10.6614 8.74784 10.1365 9.1979 9.4629C9.64795 8.78935 9.88817 7.99746 9.88817 7.18739L5.79235 7.18739L5.79235 3.09157Z"/>
</mask>
<path d="M5.79235 3.09157C4.98227 3.09157 4.19039 3.33178 3.51684 3.78184C2.84328 4.23189 2.31831 4.87157 2.00831 5.61998C1.69831 6.3684 1.61719 7.19193 1.77523 7.98644C1.93327 8.78095 2.32336 9.51076 2.89617 10.0836C3.46898 10.6564 4.19879 11.0465 4.9933 11.2045C5.78781 11.3625 6.61134 11.2814 7.35975 10.9714C8.10816 10.6614 8.74784 10.1365 9.1979 9.4629C9.64795 8.78935 9.88817 7.99746 9.88817 7.18739L5.79235 7.18739L5.79235 3.09157Z" fill="#007AFF" stroke="white" stroke-width="0.648" mask="url(#path-3-inside-1_1510_1350)"/>
</svg>
