<svg width="13" height="17" viewBox="0 0 13 17" fill="none" xmlns="http://www.w3.org/2000/svg">
<path d="M8.16118 3.95597V0.291963L12.6635 4.79427H8.99946C8.5372 4.79427 8.16118 4.41823 8.16118 3.95597ZM12.6698 5.33427V15.1356C12.6698 15.8801 12.0642 16.4856 11.3198 16.4856H1.99917C1.25473 16.4856 0.64917 15.8801 0.64917 15.1356V1.63564C0.64917 0.891219 1.25473 0.285645 1.99917 0.285645H7.62118V3.98427C7.62118 4.72869 8.22674 5.33427 8.97118 5.33427H12.6698ZM10.1367 9.98208C10.1367 8.06166 8.57988 6.50488 6.65948 6.50488C4.73908 6.50488 3.18227 8.06166 3.18227 9.98208C3.18227 11.9025 4.73908 13.4593 6.65948 13.4593C8.57988 13.4593 10.1367 11.9025 10.1367 9.98208ZM6.72737 11.9448V8.24811C6.72737 8.11212 6.56858 8.03803 6.46438 8.1254L5.31171 9.09178H4.6091C4.43327 9.09178 4.29073 9.23431 4.29073 9.41015V10.7852C4.29073 10.961 4.43327 11.1036 4.6091 11.1036H5.31171L6.46454 12.0677C6.56878 12.1548 6.72737 12.0807 6.72737 11.9448ZM8.80357 9.15275C8.68669 8.88891 8.51513 8.66506 8.28887 8.48115C8.24834 8.44821 8.19306 8.50061 8.22373 8.54288C8.38717 8.76804 8.50124 9.05488 8.56588 9.40345C8.64378 9.83212 8.64004 10.28 8.55448 10.747C8.49357 11.0795 8.39538 11.3823 8.25997 11.6555C8.23568 11.7045 8.30192 11.7475 8.3356 11.7044C8.63825 11.3175 8.83391 10.8819 8.9226 10.3979C9.00621 9.94151 8.96654 9.52645 8.80357 9.15275ZM8.14381 9.3708C8.05396 9.16792 7.92203 8.99579 7.74806 8.85438C7.71689 8.82906 7.67437 8.86934 7.69797 8.90185C7.82365 9.07497 7.91134 9.29555 7.96106 9.56358C8.02096 9.8932 8.01808 10.2376 7.95229 10.5967C7.90546 10.8523 7.82995 11.0852 7.72582 11.2953C7.70715 11.333 7.75809 11.366 7.78399 11.3329C8.01671 11.0354 8.16716 10.7005 8.23536 10.3282C8.29964 9.97731 8.26915 9.65815 8.14381 9.3708ZM7.52803 9.55357C7.4608 9.4018 7.36211 9.27301 7.23195 9.16722C7.20862 9.14827 7.17682 9.17842 7.19447 9.20274C7.28849 9.33226 7.35412 9.49727 7.39129 9.69779C7.43611 9.94439 7.43396 10.202 7.38473 10.4707C7.34971 10.662 7.2932 10.8362 7.21532 10.9933C7.20135 11.0215 7.23946 11.0462 7.25882 11.0215C7.43294 10.7989 7.54549 10.5483 7.5965 10.2698C7.6446 10.0073 7.62178 9.76855 7.52803 9.55357Z" fill="#163356"/>
</svg>
